<?xml version="1.0" encoding="UTF-8"?>
<!DOCTYPE svg PUBLIC "-//W3C//DTD SVG 1.1//EN" "http://www.w3.org/Graphics/SVG/1.1/DTD/svg11.dtd">
<!-- Creator: CorelDRAW X7 -->
<svg xmlns="http://www.w3.org/2000/svg" xml:space="preserve" width="8.5in" height="11in" version="1.1" style="shape-rendering:geometricPrecision; text-rendering:geometricPrecision; image-rendering:optimizeQuality; fill-rule:evenodd; clip-rule:evenodd"
viewBox="0 0 8500 11000"
 xmlns:xlink="http://www.w3.org/1999/xlink">
 <defs>
  <style type="text/css">
   <![CDATA[
    .str0 {stroke:#FEFEFE;stroke-width:6.94488}
    .str1 {stroke:#FEFEFE;stroke-width:3}
    .fil4 {fill:#FEFEFE}
    .fil0 {fill:whitesmoke}
    .fil5 {fill:#B7B9BB}
    .fil2 {fill:#2FB995}
    .fil3 {fill:#33B77C}
    .fil1 {fill:#197890}
   ]]>
  </style>
    <clipPath id="id0">
     <path d="M1562 4389l515 0 -13 331 -515 0 13 -331z"/>
    </clipPath>
    <clipPath id="id1">
     <path d="M1697 4412l221 0 -6 228 -221 0 6 -228z"/>
    </clipPath>
 </defs>
 <g id="Layer_x0020_1">
  <metadata id="CorelCorpID_0Corel-Layer"/>
  <ellipse class="fil0" cx="2186" cy="4294" rx="1343" ry="1369"/>
  <path class="fil1" d="M1361 4819c0,57 14,90 52,107l329 131c147,59 292,115 439,176 159,66 130,-89 131,-154l8 -912c0,-91 -79,-90 -159,-112l-634 -168c-91,-23 -164,-69 -163,56 0,89 -1,178 -1,267l-2 609z"/>
  <path class="fil1" d="M2737 3937c0,-171 24,-202 -98,-201l-1056 0c-27,0 -126,-14 -115,33 7,29 186,65 226,76l477 125c64,17 193,36 220,78 30,45 14,501 14,591 0,165 -23,236 66,238 49,2 100,0 149,0 54,0 101,9 113,-38 9,-34 4,-799 4,-902z"/>
  <polygon class="fil2" points="1573,4525 1787,4731 2039,4563 1833,4404 "/>
  <g id="_2998018685152">
   <g style="clip-path:url(#id0)">
    <image x="1549" y="4389" width="528" height="331" xlink:href="mifospaysvg_Images\mifospaysvg_ImgID1.png"/>
   </g>
  </g>
  <polygon class="fil3" points="1574,4492 1788,4699 2040,4530 1835,4371 "/>
  <g id="_2998018683168">
   <g style="clip-path:url(#id1)">
    <image x="1691" y="4412" width="227" height="228" xlink:href="mifospaysvg_Images\mifospaysvg_ImgID2.png"/>
   </g>
  </g>
  <g id="_2998018683136">
   <path class="fil4" d="M1795 4531c3,-4 6,-6 10,-3 4,3 6,7 4,10 -2,4 -7,5 -10,2 -5,-3 -5,-6 -4,-9zm88 51c12,-14 14,-32 11,-44 -3,-16 -19,-32 -35,-37 -34,-11 -69,22 -90,16 -11,-4 -30,-23 -8,-40 7,-6 16,-7 23,-4 12,5 9,13 22,1 13,-12 20,-15 13,-22 -13,-11 -29,-17 -45,-13 -6,1 -12,3 -17,6 -4,2 -4,3 -6,2 -4,-5 -9,-11 -14,-16 -6,-5 -11,2 -15,6 -14,13 -9,9 9,30 -13,15 -16,32 -13,46 4,16 21,33 37,38 14,3 31,-1 47,-7 16,-6 32,-17 47,-7 30,20 -5,57 -29,43 -13,-6 -7,-11 -24,5 -11,10 -17,11 -3,22 17,13 38,13 58,2 2,-1 4,-2 6,-3 6,-4 4,-4 6,-3 4,4 10,11 14,15 6,4 11,-3 15,-7 12,-11 11,-8 -9,-29z"/>
   <path class="fil4" d="M1794 4530c-2,4 -1,7 4,11 4,3 9,2 12,-2 2,-4 0,-9 -4,-12 -5,-4 -9,-2 -12,3z"/>
  </g>
  <path class="fil5" d="M2643 3429c-39,0 -41,42 0,44 167,7 302,121 331,282 5,28 -1,76 22,82 61,16 18,-188 -72,-279l-38 -38c-64,-54 -155,-91 -243,-91z"/>
  <path class="fil5" d="M2624 3530c-6,4 -6,-1 -9,11 -12,39 45,25 94,40 96,30 165,114 173,217 1,21 5,52 33,37 27,-15 0,-102 -9,-125 -14,-39 -39,-72 -61,-96 -51,-55 -180,-109 -221,-84z"/>
  <path class="fil5" d="M2629 3626c-8,3 -11,0 -14,12 -13,52 84,2 145,96 38,59 14,119 56,102 37,-15 -4,-111 -38,-152 -16,-19 -101,-77 -149,-58z"/>
  <polygon class="fil4 str0" points="1578,4992 1573,4555 1784,4757 2045,4593 2038,5175 "/>
  <path class="fil4 str1" d="M2460 3853c-3,2 -34,2 -38,1 0,-1 -1,-49 0,-55 0,0 0,0 0,0 0,-1 0,-1 0,-1 12,1 24,0 36,0 11,1 18,7 22,13 6,9 6,19 1,28 -3,6 -12,14 -21,14zm-37 20c10,1 23,1 34,0 12,0 20,-3 27,-8 34,-22 27,-73 -14,-85 -13,-3 -52,-1 -68,-1l0 159 19 0 0 -61c0,-3 0,-3 2,-4z"/>
  <path class="fil4 str1" d="M2582 3891c-1,32 -41,41 -53,22 -10,-16 8,-34 37,-29 8,2 10,4 16,7zm-55 -33c8,-11 19,-17 34,-14 7,2 12,6 16,10 5,6 5,11 5,19 -4,-1 -7,-3 -12,-4 -12,-3 -30,-3 -42,2 -36,16 -28,63 10,70 31,5 39,-16 44,-18l0 15 19 0c1,-6 1,-21 1,-28 0,-13 1,-44 -3,-55 -10,-34 -55,-35 -76,-22 -5,3 -11,8 -14,14 4,1 14,8 18,11z"/>
  <path class="fil4 str1" d="M2714 3829l-22 0c-3,4 -6,15 -8,20l-25 58 -32 -78 -22 0c1,3 39,90 43,99 3,5 1,5 -1,10l-22 48 21 0 68 -157z"/>
  <path class="fil4 str1" d="M2423 3873c-2,1 -2,1 -2,4l0 61 -19 0 0 -159c-1,0 -1,-1 -1,4 0,26 -1,148 0,155 3,1 18,1 21,0 2,-13 -2,-55 1,-65z"/>
  <path class="fil4 str1" d="M2460 3853l-37 1 -1 0 0 -56c0,0 0,0 0,1 0,0 0,0 0,0 -1,6 0,54 0,55 4,1 35,1 38,-1z"/>
 </g>
</svg>
