<?xml version="1.0" encoding="UTF-8"?>
<!DOCTYPE svg PUBLIC "-//W3C//DTD SVG 1.1//EN" "http://www.w3.org/Graphics/SVG/1.1/DTD/svg11.dtd">
<!-- Creator: CorelDRAW -->
<svg xmlns="http://www.w3.org/2000/svg" xml:space="preserve" width="11in" height="8.5in" style="shape-rendering:geometricPrecision; text-rendering:geometricPrecision; image-rendering:optimizeQuality; fill-rule:evenodd; clip-rule:evenodd"
viewBox="0 0 11 8.5">
 <defs>
  <style type="text/css">
   <![CDATA[
    .str0 {stroke:#1F1A17;stroke-width:0.003}
    .fil4 {fill:none}
    .fil6 {fill:#0A0B0C}
    .fil1 {fill:#1F1A17}
    .fil8 {fill:#4D4948}
    .fil5 {fill:#C2C1C1}
    .fil7 {fill:#DEDEDD}
    .fil0 {fill:#1F1A17;fill-rule:nonzero}
    .fil3 {fill:#4D4948;fill-opacity:0.321569}
    .fil2 {fill:url(#id1)}
   ]]>
  </style>
   <clipPath id="id0">
    <path d="M1.95622 0.328807c2.30406,0.666126 4.51504,0.587764 6.66237,0 -0.582874,0.820398 -0.514299,2.80407 0,5.5837 -2.22079,0 -4.44158,0 -6.66237,0 0.51002,-2.14813 0.745406,-4.14177 0,-5.5837z"/>
   </clipPath>
  <radialGradient id="id1" gradientUnits="userSpaceOnUse" cx="5.28741" cy="3.12066" r="3.33119" fx="5.28741" fy="3.12066">
   <stop offset="0" style="stop-color:white"/>
   <stop offset="0.819608" style="stop-color:#1F1A17"/>
   <stop offset="1" style="stop-color:#1F1A17"/>
  </radialGradient>
 </defs>
 <g id="Layer_x0020_1">
  <metadata id="CorelCorpID_0Corel-Layer"/>
  <path class="fil0" d="M1.36542 6.45259c-0.0113898,-0.0296142 -0.0250591,-0.0387244 -0.0592323,-0.0387244 -0.0273346,0 -0.0865669,0.00683465 -0.193638,0.00683465 -0.193638,0 -0.255146,-0.00683465 -0.277929,-0.00683465 -0.0136654,0 -0.0159449,0.00683465 -0.0159449,0.0136654l0 0.0592323c0,0.00911417 0.00227953,0.0159488 0.0159449,0.0159488l0.138965 0c0.0934016,0 0.091126,0.0318898 0.0934016,0.0842874 0.00227953,0.0660669 0.00227953,0.410059 0.00227953,0.441953 0,0.0410039 -0.00683465,0.624197 -0.0341732,0.785941 -0.0136654,0.0774567 -0.0341693,0.136689 -0.120736,0.136689l-0.12074 0c-0.0113898,0 -0.0136693,0.00683465 -0.0136693,0.0136654l0 0.0546772c0,0.0186024 0.00227953,0.0208819 0.0205039,0.0208819 0.0205039,0 0.100236,-0.00683465 0.293874,-0.00683465 0.189083,0 0.250591,0.00683465 0.27565,0.00683465 0.0182244,0 0.0205039,-0.0072126 0.0205039,-0.0163268l0 -0.0569528c0,-0.00911024 -0.00227953,-0.0159449 -0.0159488,-0.0159449l-0.113906 0c-0.0728976,0 -0.0934016,-0.0364528 -0.104791,-0.166303 -0.00683465,-0.0797323 -0.00455512,-0.560413 -0.00455512,-0.587748 0,-0.0273386 0.00455512,-0.603697 0.0136693,-0.635591 0.0318937,0.0273386 0.239201,0.53763 0.282484,0.642425 0.0113898,0.0273346 0.302984,0.747217 0.309819,0.763161 0.00911417,0.0227795 0.0205039,0.0410079 0.0341732,0.0410079 0.0182244,0 0.0364488,-0.0341732 0.045563,-0.0546772 0.00911024,-0.0205 0.26198,-0.601417 0.27565,-0.628756 0.0113898,-0.0227795 0.334878,-0.740382 0.357661,-0.769996l0.00455512 0c0.00683465,0.0205039 0.00683465,0.426004 0.00683465,0.576358l0 0.145799c0,0.168579 -0.00227953,0.564969 -0.00455512,0.592307 -0.00455906,0.0683425 -0.0250591,0.0820118 -0.0637874,0.0820118l-0.154913 0c-0.0159449,0 -0.0182244,0.00455512 -0.0182244,0.0159449l0 0.0523976c0,0.0136693 0.00227953,0.0208819 0.0182244,0.0208819 0.0296181,0 0.118465,-0.00683465 0.328047,-0.00683465 0.250591,0 0.291598,0.00683465 0.318933,0.00683465 0.0182244,0 0.0205039,-0.0072126 0.0205039,-0.0208819l0 -0.0523976c0,-0.00911024 -0.00227953,-0.0159449 -0.0159449,-0.0159449l-0.134409 0c-0.0569528,0 -0.0774567,-0.0364528 -0.0774567,-0.12302 0,-0.045563 -0.00683071,-0.414614 -0.00683071,-0.52852l0 -0.159465c0,-0.152634 0.00683071,-0.478402 0.00683071,-0.544465 0,-0.0523976 0.00683465,-0.0934016 0.0751772,-0.0934016l0.100236 0c0.0159488,0 0.0182283,-0.00683465 0.0182283,-0.0205039l0 -0.0523976c0,-0.00911024 -0.00227953,-0.0159449 -0.0136693,-0.0159449 -0.0250591,0 -0.102516,0.00683465 -0.405504,0.00683465 -0.0227795,0 -0.0478386,0.00227559 -0.0523937,0.0273346 -0.00683465,0.045563 -0.25515,0.580917 -0.271094,0.612811 -0.0182244,0.0296142 -0.246035,0.574079 -0.277929,0.608252l-0.505736 -1.21651z"/>
  <path class="fil0" d="M3.22891 7.70555c0,0.0683425 0,0.138965 -0.00227953,0.207307 -0.00227559,0.0364488 -0.0113898,0.045563 -0.0364488,0.045563l-0.111626 0c-0.0159488,0 -0.0227795,0.00455512 -0.0227795,0.0182244l0 0.0455591c0,0.0140512 0.00683071,0.0186063 0.0182244,0.0186063 0.0250591,0 0.113906,-0.00683465 0.246031,-0.00683465 0.0956811,0 0.200476,0.00683465 0.218701,0.00683465 0.0159449,0 0.0205,-0.0072126 0.0205,-0.0231614l0 -0.0387283c0,-0.0136693 -0.00455512,-0.0205 -0.0227795,-0.0205l-0.104791 0c-0.0250591,0 -0.0318937,-0.0159488 -0.0364528,-0.0592323 -0.00227559,-0.0250591 -0.00227559,-0.107071 -0.00227559,-0.195917l0 -0.248311c0,-0.189083 0,-0.332602 0.00455512,-0.371331 0.00227953,-0.0159488 0,-0.0273386 -0.0113898,-0.0273386 -0.0136693,0 -0.0250591,0.00455906 -0.0432835,0.0136693 -0.0865669,0.0478386 -0.173138,0.0842913 -0.246035,0.111626 -0.0113898,0.00455906 -0.0159449,0.00911417 -0.0159449,0.0159488l0 0.0205039c0,0.00911024 0.00455512,0.0136654 0.0205,0.0159449 0.113906,0.0182244 0.127575,0.0592323 0.127575,0.136685l0 0.334882zm0.0227795 -0.91124c0.091126,0 0.13213,-0.066063 0.13213,-0.125295 0,-0.0501181 -0.0387283,-0.111626 -0.118461,-0.111626 -0.091122,0 -0.138965,0.0615079 -0.138965,0.118461 0,0.0728976 0.0751772,0.118461 0.125295,0.118461z"/>
  <path class="fil0" d="M3.84855 7.4504l0 0.428283c-0.00227559,0.0523976 -0.0113898,0.0797362 -0.0546732,0.0797362l-0.10935 0c-0.0182244,0 -0.0227795,0.00455512 -0.0227795,0.0159449l0 0.0501181c0,0.0117717 0.00455512,0.0163268 0.0182244,0.0163268 0.0182244,0 0.134409,-0.00683465 0.259705,-0.00683465 0.175413,0 0.259701,0.00683465 0.27337,0.00683465 0.0113898,0 0.0159488,-0.00949213 0.0159488,-0.0277165l0 -0.0364488c0,-0.0136693 -0.00455906,-0.0182244 -0.0250591,-0.0182244l-0.129854 0c-0.0478386,0 -0.0546732,-0.0205039 -0.0592283,-0.0592323 -0.00227953,-0.0250591 -0.00227953,-0.234646 -0.00227953,-0.503461l0 -0.202748 0.250591 0c0.0182244,0 0.0273386,-0.00227953 0.0296142,-0.0113937l0.0113937 -0.0751772c0.00227559,-0.00911024 0,-0.0227795 -0.0159488,-0.0227795l-0.27565 0 0 -0.045563c0,-0.159465 -0.00455512,-0.357661 0.0797323,-0.464732 0.0501181,-0.0637874 0.11163,-0.0797323 0.170858,-0.0797323 0.0432835,0 0.0751772,0.0159449 0.104791,0.0523976 0.00911417,0.0113898 0.0341732,0.0410039 0.0546772,0.0523937 0.0182244,0.00911417 0.0410039,0.0136693 0.0637874,0.0136693 0.0364488,0 0.0956772,-0.0432835 0.0956772,-0.0979567 0,-0.0865709 -0.100236,-0.127575 -0.207307,-0.127575 -0.127571,0 -0.252866,0.0478386 -0.373606,0.179969 -0.0888465,0.100236 -0.152634,0.248315 -0.152634,0.473846l0 0.0432835 -0.13213 0c-0.0182244,0 -0.0250591,0.00227953 -0.0273346,0.0159449l-0.00911417 0.0683465c-0.00455512,0.0205 0,0.0250591 0.0113898,0.0250591l0.157189 0 0 0.257421z"/>
  <path class="fil0" d="M4.87369 8.06131c0.280205,0 0.503461,-0.253252 0.503461,-0.501563 0,-0.148075 -0.0523976,-0.266535 -0.154909,-0.371331 -0.0683465,-0.0683425 -0.193642,-0.13213 -0.318937,-0.13213 -0.0751772,0 -0.186803,0.0182244 -0.305264,0.10935 -0.134409,0.104791 -0.195917,0.250591 -0.195917,0.366772 0,0.161748 0.0205039,0.246035 0.125295,0.371331 0.0956811,0.113906 0.236925,0.157571 0.346272,0.157571zm0.0273386 -0.0687244c-0.107071,0 -0.173138,-0.0432835 -0.225531,-0.118461 -0.0729016,-0.104791 -0.0865669,-0.191362 -0.0865669,-0.318933 0,-0.173138 0.0318898,-0.266539 0.120736,-0.357661 0.0546772,-0.0592323 0.113906,-0.0729016 0.175413,-0.0729016 0.116185,0 0.300709,0.159469 0.300709,0.412339 0,0.243756 -0.111626,0.455618 -0.28476,0.455618z"/>
  <path class="fil0" d="M5.83505 8.06131c0.193638,0 0.343992,-0.116563 0.346272,-0.301091 -0.00227953,-0.175413 -0.107071,-0.243756 -0.273374,-0.291594 -0.111626,-0.0318937 -0.218697,-0.0569528 -0.218697,-0.189083 0,-0.0979606 0.0888465,-0.150354 0.175413,-0.150354 0.0888465,0 0.13213,0.0455591 0.159469,0.0888465l0.0774528 0.104791c0.00683465,0.0113898 0.0113898,0.0136693 0.0205039,0.0113898l0.0273386 -0.00911417c0.0113898,-0.00455512 0.0159449,-0.0113898 0.0159449,-0.0205l-0.0341693 -0.159469c-0.00227953,-0.0136693 -0.00683465,-0.0250591 -0.0410079,-0.0410039 -0.0410039,-0.0205039 -0.100236,-0.0478425 -0.209587,-0.0478425 -0.170854,0 -0.318933,0.12074 -0.318933,0.277929 0,0.179969 0.134409,0.250591 0.268815,0.289319 0.170858,0.0478386 0.220976,0.107071 0.220976,0.209587 0,0.107067 -0.100236,0.154909 -0.179969,0.154909 -0.12074,0 -0.152634,-0.0569528 -0.198193,-0.141244l-0.0569528 -0.111626c-0.00455906,-0.0113898 -0.0113937,-0.0159449 -0.0205039,-0.0136693l-0.0296142 0.00683465c-0.00911417,0.00227953 -0.0159488,0.00683465 -0.0136693,0.0182244l0.0387283 0.216421c0.00227559,0.0113898 0.00227559,0.0250591 0.0136654,0.0318937 0.0273386,0.0205 0.118465,0.0664449 0.230091,0.0664449z"/>
  <path class="fil0" d="M7.35909 7.31144c0.0729016,0.00911024 0.164024,0.0113898 0.248315,0.0113898 0.362217,0 0.578638,-0.177693 0.578638,-0.464732 0,-0.12985 -0.0660669,-0.257425 -0.173138,-0.330323 -0.12985,-0.0888465 -0.250591,-0.113906 -0.508016,-0.113906 -0.0751772,0 -0.209587,0.00683465 -0.250591,0.00683465 -0.216417,0 -0.298429,-0.00683465 -0.323488,-0.00683465 -0.0113937,0 -0.0136693,0.00455512 -0.0136693,0.0159449l0 0.0546732c0,0.0136693 0.00227559,0.0182283 0.0136693,0.0182283l0.12985 0c0.0615079,0 0.0842874,0.00455512 0.0888465,0.0501181 0.00227559,0.0227795 0.00455512,0.271091 0.00455512,0.421445l0 0.261984c0,0.26426 -0.00683465,0.619642 -0.00911417,0.642421 -0.00683071,0.0615079 -0.0227795,0.0729016 -0.100236,0.0729016l-0.0979567 0c-0.0113898,0 -0.0136693,0.00455512 -0.0136693,0.0159449l0 0.0569528c0,0.00911417 0.00227953,0.0163268 0.0182244,0.0163268 0.0250591,0 0.113906,-0.00683465 0.314378,-0.00683465 0.214142,0 0.284764,0.00683465 0.316657,0.00683465 0.0182244,0 0.0205,-0.0072126 0.0205,-0.0186063l0 -0.0546732c0,-0.00911024 -0.00227559,-0.0159449 -0.0182244,-0.0159449l-0.145795 0c-0.0478425,0 -0.070622,-0.0227835 -0.0751772,-0.0729016 -0.00227953,-0.0318937 -0.00455906,-0.341713 -0.00455906,-0.448783l0 -0.118461zm0 -0.808724c0.045563,-0.0159488 0.138965,-0.0159488 0.177693,-0.0159488 0.134409,0 0.412335,0.0797323 0.412335,0.378165 0,0.0797323 -0.00911024,0.164024 -0.0592283,0.230087 -0.0592323,0.0797323 -0.182248,0.154909 -0.321213,0.154909 -0.0888465,0 -0.164024,-0.00683071 -0.209587,-0.0205l0 -0.726713z"/>
  <path class="fil0" d="M8.92187 7.62809l0 -0.348547c0,-0.0615079 -0.00227953,-0.113906 -0.0501181,-0.161748 -0.0318937,-0.0296142 -0.0751772,-0.0615079 -0.182248,-0.0615079 -0.102516,0 -0.182248,0.0227835 -0.277929,0.0797362 -0.0934016,0.0546732 -0.157189,0.14124 -0.157189,0.214138 0,0.0523976 0.0182244,0.0729016 0.0546772,0.0729016 0.0934016,0 0.120736,-0.0501181 0.120736,-0.12985 0,-0.0410079 -0.0205,-0.0751772 0.0113937,-0.104795 0.0318937,-0.0296142 0.102512,-0.0478386 0.148075,-0.0478386 0.066063,0 0.111626,0.0205039 0.136685,0.0501181 0.0250591,0.0296142 0.0273386,0.0888465 0.0318937,0.127575l0 0.145795c-0.0364488,0.0318937 -0.154909,0.0865709 -0.257425,0.13213 -0.179969,0.0797362 -0.227811,0.170858 -0.227811,0.27565 0,0.14352 0.0820118,0.189465 0.136689,0.189465 0.0501181,0 0.091122,0 0.134406,-0.0136693 0.102516,-0.0345512 0.177693,-0.0823937 0.225531,-0.139343l0.00455906 0c0.0205,0.0934016 0.0797323,0.153012 0.161744,0.153012 0.116181,0 0.159465,-0.0778346 0.177693,-0.112008 0.0136654,-0.0227795 0.00911024,-0.0341732 0.00227559,-0.0410039l-0.0227795 -0.0182283c-0.00911417,-0.00683071 -0.0136693,-0.00227559 -0.0227835,0.00911417 -0.0113898,0.0159449 -0.0432835,0.0341732 -0.0797323,0.0341732 -0.0410039,0 -0.0683425,-0.0410079 -0.0683425,-0.170858l0 -0.134409zm-0.166299 0.184528c0,0.0615079 -0.12074,0.14124 -0.186807,0.14124 -0.0683425,0 -0.118461,-0.0410039 -0.118461,-0.125295 0,-0.189083 0.223256,-0.234642 0.305268,-0.296154l0 0.280209z"/>
  <path class="fil0" d="M9.24537 8.65362c0.120736,0 0.161744,-0.0888465 0.193638,-0.148075 0.0410039,-0.0751772 0.12985,-0.287039 0.241476,-0.540291 0.157189,-0.357661 0.307543,-0.703929 0.357661,-0.765441 0.0227835,-0.0296142 0.0546772,-0.0410039 0.0797362,-0.0410039l0.0364488 0c0.0113898,0 0.0113898,-0.00683465 0.0113898,-0.0205039l0 -0.0432835c0,-0.00911024 0,-0.0182244 -0.0136693,-0.0182244 -0.0250591,0 -0.0774528,0.00683465 -0.138965,0.00683465 -0.109346,0 -0.157189,-0.00683465 -0.186803,-0.00683465 -0.0113898,0 -0.0136693,0.00683465 -0.0136693,0.0182244l0 0.045563c0,0.0113898 0.00227953,0.0182244 0.0159488,0.0182244l0.0364488 0c0.0341693,0 0.0523976,0.0296142 0.0387283,0.0865669 -0.0136693,0.0569528 -0.211862,0.52852 -0.234646,0.564969l-0.00911024 0c-0.0250591,-0.0501181 -0.179972,-0.551299 -0.186807,-0.601417 -0.00455512,-0.0341732 0.00455906,-0.0501181 0.0296181,-0.0501181l0.0432835 0c0.0113898,0 0.0136693,-0.00683465 0.0136693,-0.0182244l0 -0.0478425c0,-0.00911024 -0.00227953,-0.0159449 -0.0205039,-0.0159449 -0.0250591,0 -0.0956811,0.00683465 -0.211862,0.00683465 -0.134409,0 -0.189083,-0.00683465 -0.209587,-0.00683465 -0.0163268,0 -0.0186063,0.00683465 -0.0186063,0.0159449l0 0.045563c0,0.0136693 0.00227953,0.0205039 0.0186063,0.0205039l0.0592323 0c0.0592283,0 0.0797323,0.0387283 0.107067,0.0956811 0.0182283,0.0478386 0.259705,0.758606 0.271094,0.815937 -0.0318937,0.0888465 -0.148075,0.348551 -0.182248,0.389555 -0.0136654,0.0136693 -0.0318937,0.0159488 -0.0478386,0.0136693 -0.0205039,-0.00455512 -0.0615079,-0.0250591 -0.104791,-0.0250591 -0.0546772,0 -0.105173,0.0410039 -0.105173,0.0888465 0,0.0683425 0.0436614,0.116181 0.130232,0.116181z"/>
  <rect class="fil1 str0" x="1.95622" y="0.328803" width="6.66237" height="5.5837"/>
  <path class="fil2" d="M1.95622 0.328807c2.30406,0.666126 4.51504,0.587764 6.66237,0 -0.582874,0.820398 -0.514299,2.80407 0,5.5837 -2.22079,0 -4.44158,0 -6.66237,0 0.51002,-2.14813 0.745406,-4.14177 0,-5.5837z"/>
  <g style="clip-path:url(#id0)">
   <g id="_144571144">
    <polygon id="_144561808" class="fil3" points="2.08576,6.34162 1.10761,5.51181 3.85107,3.7156 "/>
    <polygon id="_144698080" class="fil3" points="8.30581,6.55365 9.27674,5.71541 6.51783,3.94302 "/>
    <polygon id="_144571024" class="fil3" points="4.57038,0.859972 5.8531,0.859972 4.92304,4.00448 "/>
    <polygon id="_144570760" class="fil3" points="0.954996,0.207984 1.78129,-0.77313 3.58732,1.96387 "/>
    <polygon id="_144562288" class="fil3" points="8.33701,-0.343677 9.37684,0.40739 6.78169,2.41191 "/>
   </g>
  </g>
  <path class="fil4" d="M1.95622 0.328807c2.30406,0.666126 4.51504,0.587764 6.66237,0 -0.582874,0.820398 -0.514299,2.80407 0,5.5837 -2.22079,0 -4.44158,0 -6.66237,0 0.51002,-2.14813 0.745406,-4.14177 0,-5.5837z"/>
  <path class="fil5" d="M4.11752 1.74646c-0.0170197,-0.0496772 -0.0374409,-0.0649567 -0.0884882,-0.0649567 -0.0408346,0 -0.129319,0.0114606 -0.289272,0.0114606 -0.289272,0 -0.381154,-0.0114606 -0.415185,-0.0114606 -0.0204213,0 -0.0238228,0.0114606 -0.0238228,0.0229213l0 0.0993504c0,0.0152795 0.00340157,0.0267402 0.0238228,0.0267402l0.207591 0c0.0359213,0 0.0623386,0.00356693 0.0818701,0.0103307l0 2.24589c-0.0216142,0.101764 -0.060126,0.173933 -0.17035,0.173933l-0.180366 0c-0.0170197,0 -0.0204213,0.0114606 -0.0204213,0.0229291l0 0.0917047c0,0.0312008 0.00340157,0.0350197 0.030626,0.0350197 0.0306299,0 0.14974,-0.0114606 0.439012,-0.0114606 0.282465,0 0.37435,0.0114606 0.411787,0.0114606 0.0272283,0 0.0306299,-0.0120984 0.0306299,-0.027378l0 -0.0955276c0,-0.0152874 -0.00340157,-0.026748 -0.0238228,-0.026748l-0.170161 0c-0.0752441,0 -0.11313,-0.0291732 -0.134969,-0.119051l0 -2.20073c0.0670157,0.110429 0.35228,0.89863 0.414031,1.0665 0.0170118,0.0458465 0.452626,1.25328 0.462835,1.28003 0.0136102,0.0382087 0.030626,0.0687795 0.0510472,0.0687795 0.0272283,0 0.0544528,-0.0573189 0.068063,-0.0917047 0.0136142,-0.0343898 0.39137,-1.00874 0.411791,-1.0546 0.0170118,-0.0382047 0.500264,-1.24181 0.534295,-1.29149l0.00680315 0c0.0102165,0.0343898 0.0102165,0.714524 0.0102165,0.966709l0 0.244547c0,0.282756 -0.00340157,0.947602 -0.00680709,0.993461 -0.00681102,0.114626 -0.037437,0.137551 -0.0952913,0.137551l-0.231417 0c-0.0238228,0 -0.0272283,0.00764173 -0.0272283,0.026748l0 0.0878858c0,0.0229213 0.00340551,0.0350197 0.0272283,0.0350197 0.0442441,0 0.176965,-0.0114606 0.490059,-0.0114606 0.37435,0 0.435614,0.0114606 0.476449,0.0114606 0.0272244,0 0.030626,-0.0120984 0.030626,-0.0350197l0 -0.0878858c0,-0.0152874 -0.00340157,-0.026748 -0.0238228,-0.026748l-0.200787 0c-0.0850787,0 -0.115709,-0.0611339 -0.115709,-0.206327 0,-0.0764252 -0.0102047,-0.695425 -0.0102047,-0.886476l0 -0.267465c0,-0.256008 0.0102047,-0.802409 0.0102047,-0.913224 0,-0.0878819 0.0102087,-0.156661 0.112307,-0.156661l0.149736 0c0.0238268,0 0.0272283,-0.0114606 0.0272283,-0.0343858l0 -0.087878c0,-0.0152874 -0.00340157,-0.026748 -0.0204134,-0.026748 -0.0374409,0 -0.15315,0.0114606 -0.605776,0.0114606 -0.0340315,0 -0.0714646,0.0038189 -0.0782677,0.0458543 -0.0102126,0.0764173 -0.381161,0.97435 -0.404984,1.02785 -0.0272205,0.0496693 -0.367539,0.962882 -0.415189,1.0202l-0.755504 -2.04041z"/>
  <path class="fil6" d="M4.17116 1.65722c-0.0170197,-0.0496732 -0.0374409,-0.0649567 -0.0884921,-0.0649567 -0.0408346,0 -0.129315,0.0114606 -0.289272,0.0114606 -0.289268,0 -0.381154,-0.0114606 -0.415185,-0.0114606 -0.0204213,0 -0.0238228,0.0114606 -0.0238228,0.0229213l0 0.0993543c0,0.0152795 0.00340157,0.0267402 0.0238228,0.0267402l0.207594 0c0.0359213,0 0.0623386,0.00356693 0.0818661,0.0103268l0 2.24589c-0.0216102,0.101764 -0.060122,0.173933 -0.17035,0.173933l-0.180366 0c-0.0170197,0 -0.0204213,0.0114606 -0.0204213,0.0229291l0 0.0917047c0,0.0311969 0.00340157,0.0350197 0.0306299,0.0350197 0.030626,0 0.149736,-0.0114606 0.439008,-0.0114606 0.282465,0 0.37435,0.0114606 0.411791,0.0114606 0.0272244,0 0.030626,-0.0121024 0.030626,-0.0273819l0 -0.0955236c0,-0.0152874 -0.00340157,-0.026748 -0.0238228,-0.026748l-0.170157 0c-0.075248,0 -0.113134,-0.0291732 -0.134969,-0.119051l0 -2.20073c0.0670157,0.110429 0.35228,0.89863 0.414031,1.0665 0.0170118,0.0458504 0.452626,1.25329 0.462831,1.28004 0.0136102,0.0382087 0.0306299,0.0687756 0.0510512,0.0687756 0.0272244,0 0.0544528,-0.057315 0.0680591,-0.0917047 0.0136181,-0.0343858 0.39137,-1.00874 0.411791,-1.05459 0.0170118,-0.0382087 0.500268,-1.24182 0.534295,-1.29149l0.00680709 0c0.0102126,0.0343858 0.0102126,0.714524 0.0102126,0.966709l0 0.244547c0,0.282756 -0.00340157,0.947602 -0.00680315,0.993457 -0.00681102,0.114626 -0.0374409,0.137555 -0.0952953,0.137555l-0.231417 0c-0.0238228,0 -0.0272244,0.0076378 -0.0272244,0.026748l0 0.0878858c0,0.0229173 0.00340157,0.0350197 0.0272244,0.0350197 0.044248,0 0.176965,-0.0114606 0.490059,-0.0114606 0.37435,0 0.435614,0.0114606 0.476449,0.0114606 0.0272283,0 0.0306299,-0.0121024 0.0306299,-0.0350197l0 -0.0878858c0,-0.0152874 -0.00340157,-0.026748 -0.0238228,-0.026748l-0.200787 0c-0.0850827,0 -0.115709,-0.0611378 -0.115709,-0.206331 0,-0.0764252 -0.0102087,-0.695421 -0.0102087,-0.886472l0 -0.267469c0,-0.256004 0.0102087,-0.802409 0.0102087,-0.91322 0,-0.0878858 0.0102047,-0.156661 0.112303,-0.156661l0.14974 0c0.0238228,0 0.0272244,-0.0114606 0.0272244,-0.0343898l0 -0.087878c0,-0.0152874 -0.00340157,-0.026748 -0.0204134,-0.026748 -0.0374409,0 -0.153146,0.0114606 -0.605772,0.0114606 -0.0340315,0 -0.0714646,0.00382283 -0.0782677,0.0458583 -0.0102165,0.0764173 -0.381165,0.97435 -0.404988,1.02785 -0.0272165,0.0496693 -0.367539,0.962882 -0.415185,1.0202l-0.755504 -2.04041z"/>
  <path class="fil1" d="M6.11179 3.17776c0.122272,0.0152835 0.275106,0.0191024 0.416488,0.0191024 0.607539,0 0.970531,-0.298035 0.970531,-0.77948 0,-0.217799 -0.110807,-0.431776 -0.290398,-0.554043 -0.217799,-0.14902 -0.420307,-0.191051 -0.852083,-0.191051 -0.126094,0 -0.351531,0.0114606 -0.420311,0.0114606 -0.362992,0 -0.500543,-0.0114606 -0.542583,-0.0114606 -0.0190984,0 -0.0229173,0.00764173 -0.0229173,0.026752l0 0.0916969c0,0.0229252 0.0038189,0.0305669 0.0229173,0.0305669l0.217799 0c0.103165,0 0.141382,0.00764961 0.149024,0.084063 0.0038189,0.0382087 0.0076378,0.454697 0.0076378,0.706886l0 0.439417c0,0.443228 -0.0114606,1.03931 -0.0152795,1.07752 -0.00687008,0.0618228 -0.0192638,0.0934724 -0.0560354,0.108902l-0.377528 0 0 0.204354 1.27444 0 0 -0.204354 -0.41539 0c-0.0351811,-0.0176732 -0.0536181,-0.053252 -0.0586772,-0.108902 -0.0038189,-0.0534882 -0.0076378,-0.573154 -0.0076378,-0.752732l0 -0.198693zm0.172425 -1.34527c-0.0655472,0.00546063 -0.132709,0.0366181 -0.172425,0.120618l0 1.08709c0.0764173,0.0229291 0.202508,0.0343858 0.351531,0.0343858 0.233079,0 0.439409,-0.126091 0.538752,-0.259827 0.0840669,-0.110803 0.0993543,-0.252185 0.0993543,-0.385917 0,-0.28015 -0.146055,-0.445362 -0.314177,-0.536559 -0.13365,-0.0519724 -0.335732,-0.0597756 -0.503035,-0.0597913z"/>
  <path class="fil7" d="M6.16543 3.08852c0.122276,0.0152795 0.275106,0.0190984 0.416488,0.0190984 0.607539,0 0.970531,-0.298035 0.970531,-0.77948 0,-0.217795 -0.110803,-0.431776 -0.290394,-0.554039 -0.217799,-0.149024 -0.420311,-0.191051 -0.852087,-0.191051 -0.126094,0 -0.351531,0.0114606 -0.420307,0.0114606 -0.362992,0 -0.500547,-0.0114606 -0.542583,-0.0114606 -0.0190984,0 -0.0229213,0.00764173 -0.0229213,0.026748l0 0.0916969c0,0.0229291 0.00382283,0.0305669 0.0229213,0.0305669l0.217799 0c0.103165,0 0.141382,0.00764961 0.14902,0.0840669 0.00382283,0.0382087 0.00764173,0.454697 0.00764173,0.706882l0 0.439417c0,0.443228 -0.0114606,1.03931 -0.0152795,1.07752 -0.00687008,0.0618268 -0.0192638,0.0934764 -0.0560394,0.108906l-0.377524 0 0 0.204354 1.27444 0 0 -0.204354 -0.41539 0c-0.035185,-0.0176772 -0.0536181,-0.053252 -0.0586772,-0.108906 -0.0038189,-0.0534882 -0.00764173,-0.57315 -0.00764173,-0.752732l0 -0.198689zm0.172425 -1.34527c-0.0655472,0.00545669 -0.132709,0.0366181 -0.172425,0.120614l0 1.08709c0.0764173,0.0229291 0.202512,0.0343898 0.351531,0.0343898 0.233079,0 0.439409,-0.126094 0.538756,-0.259827 0.084063,-0.110807 0.0993543,-0.252185 0.0993543,-0.385921 0,-0.280146 -0.146055,-0.445358 -0.314177,-0.536555 -0.133654,-0.0519724 -0.335736,-0.0597756 -0.503039,-0.0597913z"/>
  <rect class="fil8 str0" transform="matrix(1.01782 -0.155663 -0.600487 0.558788 7.24958 5.27737)" width="0.931535" height="0.50811"/>
  <rect class="fil8 str0" transform="matrix(-1.01782 -0.155663 0.600487 0.558788 3.46526 5.38487)" width="0.931535" height="0.50811"/>
  <rect class="fil8 str0" transform="matrix(1.01782 -0.155663 -0.600487 0.558788 7.21702 5.21077)" width="0.931535" height="0.50811"/>
  <rect class="fil8 str0" transform="matrix(-1.01782 -0.155663 0.600487 0.558788 3.49782 5.31827)" width="0.931535" height="0.50811"/>
  <rect class="fil8 str0" transform="matrix(1.01782 -0.155663 -0.600487 0.558788 7.25123 5.1184)" width="0.931535" height="0.50811"/>
  <rect class="fil8 str0" transform="matrix(-1.01782 -0.155663 0.600487 0.558788 3.46361 5.2259)" width="0.931535" height="0.50811"/>
  <rect class="fil8 str0" transform="matrix(1.01782 -0.155663 -0.600487 0.558788 7.21867 5.0518)" width="0.931535" height="0.50811"/>
  <rect class="fil8 str0" transform="matrix(-1.01782 -0.155663 0.600487 0.558788 3.49617 5.1593)" width="0.931535" height="0.50811"/>
 </g>
</svg>
