<?xml version="1.0" encoding="UTF-8" standalone="no"?>
<!-- Created with Inkscape (http://www.inkscape.org/) -->

<svg
   xmlns:dc="http://purl.org/dc/elements/1.1/"
   xmlns:cc="http://creativecommons.org/ns#"
   xmlns:rdf="http://www.w3.org/1999/02/22-rdf-syntax-ns#"
   xmlns:svg="http://www.w3.org/2000/svg"
   xmlns="http://www.w3.org/2000/svg"
   xmlns:sodipodi="http://sodipodi.sourceforge.net/DTD/sodipodi-0.dtd"
   xmlns:inkscape="http://www.inkscape.org/namespaces/inkscape"
   width="256"
   height="256"
   viewBox="0 0 67.733332 67.733335"
   version="1.1"
   id="svg8"
   inkscape:version="0.92.3 (2405546, 2018-03-11)"
   sodipodi:docname="MifosPaySquare.svg"
   inkscape:export-filename="C:\Users\jonat\Desktop\Projects\GCI\Mifos\MifosPaySquare_png.png"
   inkscape:export-xdpi="96"
   inkscape:export-ydpi="96">
  <defs
     id="defs2">
    <clipPath
       clipPathUnits="userSpaceOnUse"
       id="clipPath4118">
      <circle
         style="opacity:1;fill:#d4af37;fill-opacity:1;fill-rule:evenodd;stroke:#d4af37;stroke-width:0;stroke-miterlimit:4;stroke-dasharray:none;stroke-opacity:1"
         id="circle4120"
         cx="33.866665"
         cy="263.13333"
         r="33.866665" />
    </clipPath>
    <clipPath
       clipPathUnits="userSpaceOnUse"
       id="clipPath962">
      <rect
         style="opacity:1;fill:#550000;fill-opacity:1;fill-rule:evenodd;stroke:#323232;stroke-width:0.30000001;stroke-miterlimit:4;stroke-dasharray:none;stroke-opacity:1"
         id="rect964"
         width="11.561809"
         height="45.199394"
         x="-114.56546"
         y="244.37125"
         transform="scale(-1,1)" />
    </clipPath>
    <clipPath
       clipPathUnits="userSpaceOnUse"
       id="clipPath4136">
      <rect
         style="opacity:1;fill:#550000;fill-opacity:1;fill-rule:evenodd;stroke:#323232;stroke-width:0.30000001;stroke-miterlimit:4;stroke-dasharray:none;stroke-opacity:1"
         id="rect4134"
         width="11.561809"
         height="45.199394"
         x="-114.56546"
         y="244.37125"
         transform="scale(-1,1)" />
    </clipPath>
    <clipPath
       clipPathUnits="userSpaceOnUse"
       id="clipPath2023">
      <path
         style="opacity:1;fill:#016db6;fill-opacity:1;fill-rule:evenodd;stroke:#ffffff;stroke-width:0;stroke-miterlimit:4;stroke-dasharray:none;stroke-opacity:1"
         d="m 123.39597,285.02839 c 0,-1.12707 0,-2.25412 0,-3.38118 0,-0.18784 0,-0.37568 0,-0.56352 0,-0.0423 -0.0143,-0.25318 0,-0.28177 0.0198,-0.0396 0.0741,-0.0543 0.0939,-0.0939 0.028,-0.056 -0.0443,-0.14356 0,-0.18784 0.0221,-0.0221 0.0718,0.0221 0.0939,0 0.0288,-0.0288 -0.029,-0.44058 0,-0.4696 0.0221,-0.0221 0.0799,0.028 0.0939,0 0.0399,-0.0798 -0.0311,-0.37625 0,-0.46961 0.014,-0.042 0.0741,-0.0543 0.0939,-0.094 0.028,-0.056 -0.0443,-0.14357 0,-0.18785 0.0221,-0.0221 0.0799,0.028 0.0939,0 0.028,-0.056 -0.0198,-0.12843 0,-0.18784 0.014,-0.042 0.0741,-0.0543 0.0939,-0.0939 0.028,-0.056 -0.0443,-0.14357 0,-0.18785 0.0221,-0.0221 0.0718,0.0221 0.0939,0 0.0221,-0.0221 -0.014,-0.066 0,-0.0939 0.0396,-0.0792 0.13872,-0.11417 0.18784,-0.18784 0.19734,-0.29601 -0.0391,-0.15852 0.37569,-0.46961 0.0251,-0.0188 0.0659,0.0139 0.0939,0 0.0396,-0.0198 0.0571,-0.0694 0.0939,-0.0939 0.68098,-0.34048 -0.1485,0.099 0.28176,-0.18784 0.0583,-0.0389 0.13835,-0.0444 0.18784,-0.0939 0.0495,-0.0495 0.0444,-0.13834 0.0939,-0.18784 0.0495,-0.0495 0.13184,-0.0519 0.18784,-0.0939 0.0708,-0.0531 0.11701,-0.13472 0.18785,-0.18784 0.056,-0.042 0.12143,-0.0718 0.18784,-0.0939 0.0297,-0.01 0.0718,0.0221 0.0939,0 0.0221,-0.0221 -0.0221,-0.0718 0,-0.0939 0.0221,-0.0221 0.0659,0.0139 0.0939,0 0.0396,-0.0198 0.0571,-0.0694 0.0939,-0.0939 0.0582,-0.0389 0.12959,-0.0551 0.18784,-0.0939 0.18607,0.009 0.0444,-0.13834 0.0939,-0.18784 0.0221,-0.0221 0.0718,0.0221 0.0939,0 0.0221,-0.0221 -0.0221,-0.0718 0,-0.0939 0.0221,-0.0221 0.0659,0.0139 0.0939,0 0.0792,-0.0396 0.11416,-0.13873 0.18784,-0.18784 0.0583,-0.0389 0.1296,-0.0551 0.18785,-0.0939 0.0737,-0.0491 0.10864,-0.14825 0.18784,-0.18785 0.028,-0.014 0.0659,0.014 0.0939,0 0.0396,-0.0198 0.0543,-0.0741 0.0939,-0.094 0.028,-0.014 0.0659,0.014 0.0939,0 0.39088,-0.19544 -0.10041,0.006 0.0939,-0.18785 0.0221,-0.0221 0.0659,0.014 0.0939,0 0.0396,-0.0198 0.0543,-0.0741 0.0939,-0.0939 0.028,-0.014 0.0659,0.0139 0.0939,0 0.0396,-0.0198 0.0543,-0.0741 0.0939,-0.0939 0.028,-0.0139 0.0718,0.0221 0.0939,0 0.0495,-0.0495 0.0444,-0.13835 0.0939,-0.18784 0.0221,-0.0221 0.0659,0.0139 0.0939,0 0.0396,-0.0198 0.0543,-0.0741 0.0939,-0.0939 0.028,-0.014 0.0718,0.0221 0.0939,0 0.0495,-0.0495 0.0444,-0.13833 0.0939,-0.18784 0.0221,-0.0221 0.0659,0.0139 0.0939,0 0.0396,-0.0198 0.0571,-0.0694 0.0939,-0.0939 0.68098,-0.3405 -0.1485,0.099 0.28176,-0.18784 0.0583,-0.0389 0.13835,-0.0444 0.18785,-0.0939 0.0221,-0.0221 -0.0221,-0.0718 0,-0.0939 0.0443,-0.0443 0.14356,0.0443 0.18784,0 0.0221,-0.0221 -0.0221,-0.0718 0,-0.0939 0.0221,-0.0221 0.0659,0.0139 0.0939,0 0.42984,-0.21492 -0.39855,0.039 0.28176,-0.18784 0.0594,-0.0198 0.14357,0.0443 0.18784,0 0.0221,-0.0221 -0.0221,-0.0718 0,-0.0939 0.0495,-0.0495 0.1296,-0.0551 0.18784,-0.0939 0.0694,-0.0463 0.11847,-0.1416 0.18785,-0.18785 0.0582,-0.0389 0.13834,-0.0444 0.18784,-0.0939 0.0221,-0.0221 -0.0221,-0.0718 0,-0.094 0.0495,-0.0495 0.12143,-0.0718 0.18784,-0.0939 0.0297,-0.01 0.0718,0.0221 0.0939,0 0.0495,-0.0495 0.0444,-0.13834 0.0939,-0.18784 0.0443,-0.0443 0.12844,0.0198 0.18784,0 0.68031,-0.22677 -0.14808,0.0271 0.28176,-0.18784 0.028,-0.0139 0.0679,0.0174 0.0939,0 0.14735,-0.0982 0.22832,-0.27745 0.37568,-0.37569 0.0261,-0.0174 0.0659,0.0139 0.0939,0 0.0396,-0.0198 0.0543,-0.0741 0.0939,-0.0939 0.0734,-0.0367 0.38754,-0.10578 0.46961,-0.18784 0.0221,-0.0221 -0.0221,-0.0718 0,-0.0939 0.22744,-0.11373 0.13834,-0.0445 0.28176,-0.18784 0.0313,-0.0313 0.0626,-0.0627 0.0939,-0.0939 0.0313,-0.0626 0.0444,-0.13834 0.0939,-0.18785 0.0221,-0.0221 0.0679,0.0174 0.0939,0 0.40623,-0.40623 -0.0249,-0.0148 0.37568,-0.28176 0.0737,-0.0491 0.11417,-0.13872 0.18784,-0.18784 0.0582,-0.0389 0.1296,-0.0551 0.18784,-0.0939 0.0855,-0.057 0.19852,-0.24014 0.28177,-0.28176 0.028,-0.0139 0.0718,0.0221 0.0939,0 0.0495,-0.0495 0.0444,-0.13834 0.0939,-0.18784 0.0221,-0.0221 0.0718,0.0221 0.0939,0 0.0495,-0.0495 0.0444,-0.13835 0.0939,-0.18785 0.0221,-0.0221 0.0626,0 0.0939,0 0,-0.0313 -0.014,-0.066 0,-0.0939 0.0198,-0.0396 0.0626,-0.0627 0.0939,-0.0939 0.0313,-0.0313 0.0571,-0.0694 0.0939,-0.0939 0.0582,-0.0389 0.13834,-0.0444 0.18784,-0.0939 0.0221,-0.0221 -0.0221,-0.0718 0,-0.0939 0.0495,-0.0495 0.1296,-0.0551 0.18784,-0.094 0.0737,-0.0491 0.12523,-0.12522 0.18785,-0.18784 0.0939,-0.0939 0.18784,-0.18784 0.28176,-0.28176 0.0313,-0.0313 0.0543,-0.0741 0.0939,-0.0939 0.0751,-0.0376 0.20662,0.0376 0.28176,0 0.028,-0.014 -0.0221,-0.0718 0,-0.094 0.0201,-0.0201 0.3239,0.0173 0.37568,0 0.0626,-0.0313 0.12523,-0.0627 0.18785,-0.0939 0.0313,0 0.0642,0.01 0.0939,0 0.0664,-0.0221 0.12143,-0.0718 0.18784,-0.0939 0.0297,-0.01 0.0718,0.0221 0.0939,0 0.0221,-0.0221 -0.0221,-0.0718 0,-0.0939 0.12523,-0.12523 0.0901,0.19924 0.18784,-0.0939 0.0168,-0.0505 0,-0.29616 0,-0.37568 0,-0.22026 -0.0221,0.0443 0.0939,-0.18784 0.0309,-0.0618 -0.029,-0.47668 0,-0.56354 0.014,-0.042 0.0799,-0.0519 0.0939,-0.0939 0.0198,-0.0594 -0.0198,-0.12845 0,-0.18785 0.014,-0.042 0.0741,-0.0543 0.0939,-0.0939 0.014,-0.028 0,-0.0627 0,-0.0939 0.0313,-0.0626 0.0551,-0.12959 0.0939,-0.18785 0.0245,-0.0368 0.0799,-0.0519 0.0939,-0.0939 0.0198,-0.0594 -0.0198,-0.12845 0,-0.18785 0.014,-0.042 0.0626,-0.0627 0.0939,-0.0939 0.0626,-0.0627 0.13873,-0.11416 0.18785,-0.18785 0.0347,-0.0521 -0.0347,-0.13573 0,-0.18783 0.0491,-0.0737 0.13872,-0.11417 0.18784,-0.18784 0.0174,-0.0261 -0.0221,-0.0718 0,-0.0939 0.0221,-0.0221 0.0718,0.0221 0.0939,0 0.0495,-0.0495 0.0551,-0.1296 0.0939,-0.18785 0.0463,-0.0694 0.1416,-0.11847 0.18785,-0.18784 0.31631,-0.47447 7.9e-4,-0.002 0.0939,-0.28177 0.0221,-0.0664 0.0769,-0.11992 0.0939,-0.18783 0.0152,-0.0607 -0.0347,-0.13575 0,-0.18785 0.0388,-0.0582 0.13834,-0.0444 0.18784,-0.0939 0.0221,-0.0221 -0.01,-0.0643 0,-0.0939 0.0221,-0.0664 0.0718,-0.12143 0.0939,-0.18785 0.01,-0.0297 -0.014,-0.066 0,-0.0939 0.0198,-0.0396 0.0741,-0.0543 0.0939,-0.0939 0.014,-0.028 -0.014,-0.066 0,-0.0939 0.0198,-0.0397 0.0741,-0.0543 0.0939,-0.0939 0.014,-0.028 -0.014,-0.066 0,-0.0939 0.0198,-0.0396 0.0741,-0.0543 0.0939,-0.0939 0.028,-0.056 -0.0443,-0.14356 0,-0.18784 0.0221,-0.0221 0.0718,0.0221 0.0939,0 0.0443,-0.0443 -0.028,-0.13184 0,-0.18783 0.0198,-0.0397 0.0741,-0.0543 0.0939,-0.0939 0.014,-0.028 -0.01,-0.0643 0,-0.0939 0.0221,-0.0664 0.0718,-0.12143 0.0939,-0.18784 0.01,-0.0297 -0.0221,-0.0718 0,-0.0939 0.0221,-0.0221 0.0718,0.0221 0.0939,0 0.0443,-0.0443 -0.028,-0.13184 0,-0.18784 0.0198,-0.0397 0.0741,-0.0543 0.0939,-0.0939 0.028,-0.056 -0.0443,-0.14357 0,-0.18784 0.0221,-0.0221 0.0718,0.0221 0.0939,0 0.0221,-0.0221 0,-0.0627 0,-0.0939 0,-0.0313 0,-0.0627 0,-0.0939 0,-0.25045 0,-0.50091 0,-0.75136 0,-0.81399 0,-1.62797 0,-2.44195 0,-0.25046 0,-0.50092 0,-0.75138 0,-0.0423 0.0143,-0.25318 0,-0.28176 -0.0198,-0.0396 -0.0741,-0.0543 -0.0939,-0.0939 -0.028,-0.056 0.0198,-0.12844 0,-0.18784 -0.0221,-0.0665 -0.0718,-0.12144 -0.0939,-0.18784 -0.0177,-0.053 0,-0.22006 0,-0.28178 0,-0.0443 0.004,-0.46534 0,-0.4696 -0.0221,-0.0222 -0.0718,0.0221 -0.0939,0 -0.047,-0.047 0.047,-0.2348 0,-0.28176 -0.0221,-0.0222 -0.0718,0.0221 -0.0939,0 -0.0221,-0.0222 0.0221,-0.0718 0,-0.0939 -0.0221,-0.0221 -0.0659,0.014 -0.0939,0 -0.0396,-0.0198 -0.0571,-0.0694 -0.0939,-0.0939 -0.0583,-0.0389 -0.1296,-0.0551 -0.18785,-0.0939 -0.0368,-0.0246 -0.0543,-0.0741 -0.0939,-0.0939 -0.2764,-0.13819 0.12365,0.21758 -0.18785,-0.0939 -0.0494,-0.0495 -0.25668,-0.23159 -0.28176,-0.28177 -0.028,-0.056 0.028,-0.13183 0,-0.18783 -0.0396,-0.0792 -0.14824,-0.10865 -0.18785,-0.18784 -0.014,-0.028 0.0221,-0.0718 0,-0.0939 -0.0221,-0.0221 -0.0659,0.014 -0.0939,0 -0.0396,-0.0198 -0.0543,-0.0741 -0.0939,-0.0939 -0.028,-0.014 -0.0718,0.0221 -0.0939,0 -0.19432,-0.19433 0.29696,0.008 -0.0939,-0.18784 -0.028,-0.014 -0.0659,0.014 -0.0939,0 -0.0396,-0.0198 -0.0543,-0.0741 -0.0939,-0.0939 -0.028,-0.014 -0.0659,0.014 -0.0939,0 -0.0396,-0.0198 -0.0543,-0.0741 -0.0939,-0.094 -0.028,-0.0139 -0.0659,0.0141 -0.0939,0 -0.39087,-0.19543 0.10041,0.006 -0.0939,-0.18784 -0.0221,-0.0221 -0.0659,0.014 -0.0939,0 -0.0396,-0.0198 -0.0543,-0.0741 -0.0939,-0.0939 -0.028,-0.0139 -0.0659,0.014 -0.0939,0 -0.39087,-0.19544 0.10041,0.006 -0.0939,-0.18784 -0.0221,-0.0222 -0.0718,0.0222 -0.0939,0 -0.0221,-0.0222 0.0221,-0.0718 0,-0.0939 -0.0221,-0.0222 -0.0626,0 -0.0939,0 0,-0.0313 0.0221,-0.0718 0,-0.094 -0.0221,-0.0221 -0.0718,0.0222 -0.0939,0 -0.0221,-0.0221 0.0221,-0.0718 0,-0.0939 -0.0221,-0.0222 -0.0718,0.0221 -0.0939,0 -0.0443,-0.0443 0.0443,-0.14357 0,-0.18784 -0.0221,-0.0221 -0.0718,0.0222 -0.0939,0 -0.0221,-0.0221 0.014,-0.066 0,-0.0939 -0.0396,-0.0792 -0.14824,-0.10864 -0.18784,-0.18784 -0.014,-0.028 0.014,-0.066 0,-0.0939 -0.0198,-0.0396 -0.0741,-0.0543 -0.0939,-0.0939 -0.014,-0.028 0.0221,-0.0718 0,-0.0939 -0.0221,-0.0222 -0.0799,0.028 -0.0939,0 -0.028,-0.056 0.0198,-0.12843 0,-0.18784 -0.014,-0.042 -0.0694,-0.057 -0.0939,-0.0939 -0.0388,-0.0582 -0.0444,-0.13834 -0.0939,-0.18784 -0.0221,-0.0222 -0.0718,0.0222 -0.0939,0 -0.0443,-0.0443 0.028,-0.13184 0,-0.18784 -0.19543,-0.39088 0.007,0.1004 -0.18783,-0.0939 -0.0221,-0.0222 0.0221,-0.0718 0,-0.0939 -0.0221,-0.0221 -0.0718,0.0222 -0.0939,0 -0.0221,-0.0221 0.0221,-0.0718 0,-0.0939 -0.0221,-0.0222 -0.0659,0.0139 -0.0939,0 -0.39087,-0.19545 0.10041,0.006 -0.0939,-0.18785 -0.0221,-0.0222 -0.0626,0 -0.0939,0 0,-0.0313 0.014,-0.066 0,-0.0939 -0.0299,-0.0598 -0.39581,-0.3958 -0.46961,-0.46961 -0.0313,-0.0313 -0.0741,-0.0543 -0.0939,-0.0939 -0.014,-0.028 0.014,-0.066 0,-0.0939 -0.0198,-0.0397 -0.0741,-0.0543 -0.0939,-0.094 -0.014,-0.028 0.0221,-0.0718 0,-0.0939 -0.0495,-0.0495 -0.14901,-0.0356 -0.18785,-0.0939 -0.0347,-0.0521 0.028,-0.13184 0,-0.18785 -0.014,-0.028 -0.0659,0.014 -0.0939,0 -0.0249,-0.0125 -0.26929,-0.25682 -0.28176,-0.28176 -0.014,-0.028 0.0221,-0.0718 0,-0.0939 -0.0221,-0.0222 -0.0718,0.0221 -0.0939,0 -0.0443,-0.0443 0.0443,-0.14356 0,-0.18784 -0.0221,-0.0221 -0.0718,0.0222 -0.0939,0 -0.0443,-0.0443 0.0443,-0.14357 0,-0.18784 -0.19433,-0.19433 0.008,0.29695 -0.18784,-0.0939 -0.014,-0.028 0.014,-0.066 0,-0.0939 -0.0564,-0.1127 -0.22541,-0.16906 -0.28176,-0.28176 -0.014,-0.028 0.0221,-0.0718 0,-0.0939 -0.0221,-0.0221 -0.0659,0.014 -0.0939,0 -0.0396,-0.0198 -0.0543,-0.0741 -0.0939,-0.0939 -0.028,-0.014 -0.0718,0.0221 -0.0939,0 -0.0221,-0.0222 0.0221,-0.0718 0,-0.094 -0.0221,-0.0221 -0.0659,0.0141 -0.0939,0 -0.39088,-0.19543 0.1004,0.006 -0.0939,-0.18783 -0.0221,-0.0222 -0.0659,0.0139 -0.0939,0 -0.15381,-0.0769 -0.0759,-0.27275 -0.0939,-0.28177 -0.056,-0.028 -0.13184,0.028 -0.18784,0 -0.028,-0.014 0.0221,-0.0718 0,-0.0939 -0.0495,-0.0495 -0.13835,-0.0444 -0.18785,-0.094 -0.0221,-0.0221 0.0221,-0.0718 0,-0.0939 -0.0221,-0.0222 -0.0659,0.014 -0.0939,0 -0.0396,-0.0198 -0.0543,-0.0741 -0.0939,-0.0939 -0.056,-0.028 -0.14357,0.0443 -0.18784,0 -0.0221,-0.0222 0.014,-0.066 0,-0.094 -0.0198,-0.0396 -0.0741,-0.0543 -0.0939,-0.0939 -0.014,-0.028 0.0221,-0.0718 0,-0.0939 -0.0443,-0.0443 -0.14357,0.0443 -0.18785,0 -0.0221,-0.0222 0.0221,-0.0718 0,-0.0939 -0.0221,-0.0222 -0.0679,0.0174 -0.0939,0 -0.0695,-0.0463 -0.29842,-0.33705 -0.37568,-0.37569 -0.028,-0.0139 -0.0659,0.014 -0.0939,0 -0.39088,-0.19543 0.1004,0.006 -0.0939,-0.18784 -0.0443,-0.0443 -0.14357,0.0443 -0.18784,0 -0.0443,-0.0443 0.0443,-0.14357 0,-0.18785 -0.19433,-0.19432 0.008,0.29697 -0.18784,-0.0939 -0.014,-0.028 0.0221,-0.0718 0,-0.0939 -0.0626,-0.0626 -0.12526,0.0625 -0.18785,0 -0.0443,-0.0443 0.0443,-0.14357 0,-0.18783 -0.0221,-0.0222 -0.0718,0.0221 -0.0939,0 -0.0221,-0.0222 0.0221,-0.0718 0,-0.0939 -0.0221,-0.0222 -0.0718,0.0221 -0.0939,0 -0.0221,-0.0222 0.0221,-0.0718 0,-0.0939 -0.19433,-0.19433 0.008,0.29696 -0.18784,-0.0939 0,-0.25046 0.0313,0.0313 -0.0939,-0.0939 -0.0221,-0.0222 0.0221,-0.0718 0,-0.0939 -0.0221,-0.0221 -0.0718,0.0221 -0.0939,0 -0.0221,-0.0221 0.0221,-0.0718 0,-0.0939 -0.0221,-0.0222 -0.0659,0.0139 -0.0939,0 -0.39088,-0.19544 0.1004,0.006 -0.0939,-0.18785 -0.0221,-0.0222 -0.0718,0.0221 -0.0939,0 -0.0221,-0.0222 0.0221,-0.0718 0,-0.0939 -0.0221,-0.0221 -0.0718,0.0221 -0.0939,0 -0.0221,-0.0221 0.0221,-0.0718 0,-0.0939 -0.0221,-0.0221 -0.0659,0.014 -0.0939,0 -0.0435,-0.0218 -0.32045,-0.32045 -0.37569,-0.37568 -0.0494,-0.0495 -0.25668,-0.23161 -0.28176,-0.28177 -0.014,-0.028 0.0221,-0.0718 0,-0.0939 -0.0221,-0.0222 -0.0718,0.0221 -0.0939,0 -0.0221,-0.0222 0.0221,-0.0718 0,-0.094 -0.0221,-0.0221 -0.0718,0.0222 -0.0939,0 -0.0221,-0.0221 0.0221,-0.0718 0,-0.0939 -0.0495,-0.0495 -0.13834,-0.0444 -0.18784,-0.0939 -0.23011,-0.46021 0.0307,-0.0785 -0.18785,-0.18784 -0.0396,-0.0198 -0.0626,-0.0627 -0.0939,-0.0939 -0.0313,-0.0313 -0.0694,-0.057 -0.0939,-0.0939 -0.0388,-0.0582 -0.0444,-0.13834 -0.0939,-0.18784 -0.0221,-0.0222 -0.0659,0.014 -0.0939,0 -0.0396,-0.0198 -0.0626,-0.0626 -0.0939,-0.0939 -0.0313,-0.0313 -0.0741,-0.0543 -0.0939,-0.094 -0.0648,-0.12955 0.11374,-0.084 -0.0939,-0.18785 -0.25046,0 0.0313,0.0313 -0.0939,-0.0939 -0.0221,-0.0221 -0.0718,0.0222 -0.0939,0 -0.0221,-0.0221 0.0221,-0.0718 0,-0.0939 -0.0221,-0.0221 -0.0718,0.0222 -0.0939,0 -0.0221,-0.0221 0.0221,-0.0718 0,-0.0939 -0.0221,-0.0222 -0.0659,0.014 -0.0939,0 -0.0792,-0.0396 -0.10864,-0.14824 -0.18784,-0.18784 -0.028,-0.014 -0.0718,0.0222 -0.0939,0 -0.19433,-0.19433 0.29696,0.008 -0.0939,-0.18785 -0.028,-0.0139 -0.0659,0.014 -0.0939,0 -0.0396,-0.0198 -0.0543,-0.0741 -0.0939,-0.0939 -0.028,-0.014 -0.0659,0.014 -0.0939,0 -0.0396,-0.0198 -0.0543,-0.0741 -0.0939,-0.0939 -0.0372,-0.0186 -0.26256,0.0192 -0.28176,0 -0.0221,-0.0221 0.0221,-0.0718 0,-0.0939 -0.0443,-0.0443 -0.13184,0.028 -0.18784,0 -0.0792,-0.0395 -0.10864,-0.14824 -0.18784,-0.18784 -0.028,-0.014 -0.0718,0.0222 -0.0939,0 -0.0221,-0.0221 0.0221,-0.0718 0,-0.0939 -0.0443,-0.0443 -0.13184,0.028 -0.18784,0 -0.39088,-0.19544 0.1004,0.006 -0.0939,-0.18784 -0.047,-0.047 -0.2348,0.047 -0.28177,0 -0.0221,-0.0221 0.0221,-0.0718 0,-0.0939 -0.0192,-0.0192 -0.24452,0.0187 -0.28176,0 -0.0396,-0.0198 -0.0543,-0.0741 -0.0939,-0.0939 -0.021,-0.0105 -0.35336,0 -0.37568,0 -0.21915,0 -0.4383,0 -0.65745,0 -0.68876,0 -1.37751,0 -2.06627,0 -0.78268,0 -1.56535,0 -2.34803,0 -0.25046,0 -0.50091,0 -0.75137,0 -0.0617,0 -0.22878,-0.0177 -0.28176,0 -0.0664,0.0221 -0.12144,0.0718 -0.18785,0.0939 -0.0646,0.0216 -0.22634,-0.0277 -0.28176,0 -0.0396,0.0198 -0.0543,0.0741 -0.0939,0.0939 -0.06,0.03 -0.30009,-0.0252 -0.37568,0 -0.0664,0.0221 -0.12143,0.0718 -0.18785,0.0939 -0.0756,0.0252 -0.31566,-0.03 -0.37568,0 -0.0396,0.0198 -0.0543,0.0741 -0.0939,0.0939 -0.056,0.028 -0.14356,-0.0443 -0.18784,0 -0.0221,0.0221 0.0313,0.0939 0,0.0939 -0.0313,0 0,-0.12523 0,-0.0939 0,0.18784 0,0.37568 0,0.56353 0,0.4696 0,0.93921 0,1.40882 0,0.0654 0.017,0.43564 0,0.4696 -0.0198,0.0396 -0.0741,0.0543 -0.0939,0.0939 -0.014,0.028 0,0.0626 0,0.0939 0,0.0313 0,0.0626 0,0.0939 0,0.18785 0,0.37569 0,0.56354 0,0.0313 0,0.0627 0,0.0939 0,0.0313 0.014,0.066 0,0.0939 -0.0198,0.0396 -0.0741,0.0543 -0.0939,0.0939 -0.014,0.028 0,0.0626 0,0.0939 0,0.0627 0.0152,0.1271 0,0.18785 -0.017,0.068 -0.0769,0.11993 -0.0939,0.18784 -0.0152,0.0607 0.0198,0.12845 0,0.18785 -0.014,0.042 -0.0741,0.0543 -0.0939,0.0939 -0.0139,0.0277 0,0.56069 0,0.65746 0,0.0313 0,0.0626 0,0.0939 0,0.0313 0.014,0.066 0,0.0939 -0.0198,0.0397 -0.0741,0.0543 -0.0939,0.094 -0.014,0.028 0,0.0626 0,0.0939 0,0.0313 0,0.0627 0,0.0939 0,0.15652 0,0.31306 0,0.4696 0,0.40699 0,0.81399 0,1.22097 0,1.65928 0,3.31856 0,4.97783 0,0.68876 0,1.37752 0,2.06627 0,0.21915 0,0.4383 0,0.65745 0,0.094 0.0228,0.19065 0,0.28176 -0.017,0.068 -0.0802,0.1192 -0.0939,0.18785 -0.0184,0.0921 0,0.18784 0,0.28177 0,0.0313 0.01,0.0643 0,0.0939 -0.26607,0.53212 0.035,-0.14002 -0.0939,0.37568 -0.017,0.0679 -0.0769,0.11992 -0.0939,0.18784 -0.0152,0.0607 0,0.12523 0,0.18784 0,0.15654 0,0.31308 0,0.46962 0,0.0627 0.0198,0.12843 0,0.18783 -0.0221,0.0664 -0.0718,0.12144 -0.0939,0.18784 -0.0268,0.0804 0.0207,0.29283 0,0.37569 -0.017,0.0679 -0.0769,0.11993 -0.0939,0.18785 -0.0152,0.0607 0,0.12523 0,0.18784 0,0.18784 0,0.37568 0,0.56352 0,0.0818 0.0173,0.52887 0,0.56353 -0.0198,0.0396 -0.0799,0.0519 -0.0939,0.0939 -0.016,0.0481 0,0.49638 0,0.56353 0,0.0313 0.01,0.0643 0,0.0939 -0.0221,0.0664 -0.0718,0.12143 -0.0939,0.18783 -0.0202,0.0607 0,0.36705 0,0.46961 0,0.31307 0,0.62614 0,0.93922 0,0.97051 0,1.94104 0,2.91155 0,0.8453 0,1.69059 0,2.53588 0,0.28176 0,0.56353 0,0.84529 0,0.12523 -0.0245,0.25289 0,0.37568 0.0137,0.0687 0.0718,0.12144 0.0939,0.18785 0.01,0.0297 0,0.0627 0,0.0939 0,0.0171 -0.0128,0.61904 0,0.65745 0.014,0.042 0.0799,0.0519 0.0939,0.0939 0.0198,0.0594 0,0.12523 0,0.18784 0,0.21915 0,0.4383 0,0.65745 0,0.094 -0.0297,0.19266 0,0.28176 0.014,0.042 0.0741,0.0543 0.0939,0.0939 0.014,0.028 0,0.0626 0,0.0939 0,0.0923 -0.0207,0.50141 0,0.56353 0.0221,0.0664 0.0718,0.12143 0.0939,0.18784 0.0197,0.0591 0,0.38495 0,0.4696 0,0.34438 0,0.68876 0,1.03314 0,0.53222 0,1.06444 0,1.59666 0,0.18784 0,0.37569 0,0.56353 0,0.0939 -0.0297,0.19267 0,0.28176 0.014,0.042 0.0741,0.0543 0.0939,0.0939 0.014,0.028 -0.01,0.0643 0,0.0939 0.0221,0.0664 0.0626,0.12523 0.0939,0.18784 0,0.0939 -0.0228,0.19065 0,0.28176 0.0107,0.043 0.0799,0.0519 0.0939,0.0939 0.0396,0.11881 -0.0246,0.25289 0,0.37569 0.0194,0.0971 0.0699,0.18572 0.0939,0.28177 0.008,0.0304 -0.01,0.0643 0,0.0939 0.0221,0.0664 0.0769,0.11994 0.0939,0.18785 0.0368,0.14732 -0.0368,0.32227 0,0.4696 0.017,0.0679 0.0718,0.12143 0.0939,0.18785 0.01,0.0297 0,0.0626 0,0.0939 0,0.0627 0,0.12524 0,0.18785 0,0.15654 0,0.31308 0,0.4696 0,0.59484 0,1.18968 0,1.78451 0,1.56536 0,3.13071 0,4.69606 0,0.21915 0,0.4383 0,0.65745 0,0.0313 0,0.0627 0,0.0939 0,0.0313 -0.0221,0.0718 0,0.0939 0.0443,0.0443 0.14357,-0.0443 0.18784,0 0.0221,0.0221 -0.0221,0.0718 0,0.0939 0.0443,0.0443 0.14357,-0.0443 0.18784,0 0.0221,0.0221 -0.0221,0.0718 0,0.0939 0.0226,0.0226 0.35309,-0.0226 0.37569,0 0.0221,0.0221 -0.0221,0.0718 0,0.0939 0.0443,0.0443 0.13184,-0.028 0.18784,0 0.0396,0.0198 0.0543,0.0741 0.0939,0.0939 0.059,0.0295 0.31665,-0.0295 0.37568,0 0.0396,0.0198 0.0543,0.0741 0.0939,0.0939 0.0596,0.0298 0.43916,-0.0304 0.46961,0 0.0221,0.0221 -0.0221,0.0718 0,0.0939 0.0221,0.0221 0.0626,0 0.0939,0 0.0313,0 0.0626,0 0.0939,0 0.50091,0 1.00182,0 1.50274,0 0.15654,0 0.31307,0 0.46961,0 0.0313,0 0.0626,0 0.0939,0 0.0313,0 0.0659,-0.014 0.0939,0 0.0396,0.0198 0.0543,0.0741 0.0939,0.0939 0.034,0.017 0.40428,0 0.4696,0 0.37569,0 0.75137,0 1.12706,0 0.28176,0 0.56353,0 0.84529,0 0.0313,0 0.0718,0.0221 0.0939,0 0.0221,-0.0221 -0.0221,-0.0718 0,-0.0939 0.0221,-0.0221 0.0718,0.0221 0.0939,0 0.0221,-0.0221 -0.014,-0.066 0,-0.0939 0.0198,-0.0396 0.0741,-0.0543 0.0939,-0.0939 0.03,-0.0599 -0.0251,-0.44449 0,-0.4696 0.0221,-0.0221 0.0718,0.0221 0.0939,0 0.0192,-0.0192 -0.0186,-0.24453 0,-0.28177 0.0198,-0.0396 0.0741,-0.0543 0.0939,-0.0939 0.0295,-0.059 -0.0295,-0.31665 0,-0.37569 0.0198,-0.0396 0.0741,-0.0543 0.0939,-0.0939 0.0121,-0.0243 0,-0.49696 0,-0.56354 0,-0.0313 -0.0221,-0.0718 0,-0.0939 0.0221,-0.0221 0.0718,0.0221 0.0939,0 0.003,-0.003 0,-0.25899 0,-0.28176 0,-0.56354 0,-1.12707 0,-1.69059 0,-0.15654 0,-0.31307 0,-0.4696 0,-0.0313 0.0221,-0.0718 0,-0.0939 -0.11069,-0.11068 -0.25046,-0.18784 -0.37569,-0.28176 z"
         id="path2025"
         inkscape:connector-curvature="0" />
    </clipPath>
    <clipPath
       clipPathUnits="userSpaceOnUse"
       id="clipPath984">
      <rect
         style="opacity:1;fill:#d4af37;fill-opacity:1;fill-rule:evenodd;stroke:#323232;stroke-width:0;stroke-miterlimit:4;stroke-dasharray:none;stroke-opacity:1"
         id="rect986"
         width="67.73333"
         height="67.73333"
         x="1.7801921e-006"
         y="229.26665" />
    </clipPath>
    <clipPath
       clipPathUnits="userSpaceOnUse"
       id="clipPath888">
      <rect
         style="opacity:1;fill:#d4af37;fill-opacity:1;fill-rule:evenodd;stroke:#323232;stroke-width:0;stroke-miterlimit:4;stroke-dasharray:none;stroke-opacity:1"
         id="rect890"
         width="67.73333"
         height="67.73333"
         x="1.7801921e-006"
         y="229.26665" />
    </clipPath>
    <clipPath
       clipPathUnits="userSpaceOnUse"
       id="clipPath933">
      <rect
         style="opacity:1;fill:#ffffff;fill-opacity:1;fill-rule:evenodd;stroke:#323232;stroke-width:0;stroke-miterlimit:4;stroke-dasharray:none;stroke-opacity:1"
         id="rect935"
         width="67.73333"
         height="67.73333"
         x="1.7801921e-006"
         y="229.26665" />
    </clipPath>
  </defs>
  <sodipodi:namedview
     id="base"
     pagecolor="#ffffff"
     bordercolor="#666666"
     borderopacity="1.0"
     inkscape:pageopacity="0.0"
     inkscape:pageshadow="2"
     inkscape:zoom="1.4142136"
     inkscape:cx="90.885668"
     inkscape:cy="109.40029"
     inkscape:document-units="mm"
     inkscape:current-layer="layer1"
     showgrid="false"
     units="px"
     inkscape:window-width="1366"
     inkscape:window-height="705"
     inkscape:window-x="-8"
     inkscape:window-y="-8"
     inkscape:window-maximized="1"
     inkscape:pagecheckerboard="true"
     showborder="true"
     borderlayer="false"
     inkscape:showpageshadow="false"
     inkscape:snap-nodes="false" />
  <metadata
     id="metadata5">
    <rdf:RDF>
      <cc:Work
         rdf:about="">
        <dc:format>image/svg+xml</dc:format>
        <dc:type
           rdf:resource="http://purl.org/dc/dcmitype/StillImage" />
        <dc:title></dc:title>
      </cc:Work>
    </rdf:RDF>
  </metadata>
  <g
     inkscape:label="Layer 1"
     inkscape:groupmode="layer"
     id="layer1"
     transform="translate(0,-229.26665)">
    <g
       id="g929"
       clip-path="url(#clipPath933)">
      <rect
         y="229.26665"
         x="1.7801921e-006"
         height="67.73333"
         width="67.73333"
         id="rect898"
         style="opacity:1;fill:#d4af37;fill-opacity:1;fill-rule:evenodd;stroke:#323232;stroke-width:0;stroke-miterlimit:4;stroke-dasharray:none;stroke-opacity:1"
         ry="8.4189968"
         rx="0" />
      <g
         transform="matrix(0,0.96761903,-0.96761903,0,349.87671,228.14447)"
         id="g3768">
        <rect
           y="288.67453"
           x="36.482288"
           height="16.089626"
           width="5.6126599"
           id="rect3764"
           style="opacity:1;fill:#ffffff;fill-opacity:1;fill-rule:evenodd;stroke:#016db6;stroke-width:0;stroke-miterlimit:4;stroke-dasharray:none;stroke-opacity:1" />
        <rect
           style="opacity:1;fill:#ffffff;fill-opacity:1;fill-rule:evenodd;stroke:#016db6;stroke-width:0;stroke-miterlimit:4;stroke-dasharray:none;stroke-opacity:1"
           id="rect3766"
           width="5.6126599"
           height="16.089626"
           x="28.544788"
           y="288.67453" />
      </g>
      <g
         id="g3695-9-0"
         transform="matrix(0.96761903,0,0,0.96761903,-0.93316839,5.2609629)">
        <rect
           style="opacity:1;fill:#ffffff;fill-opacity:1;fill-rule:evenodd;stroke:#016db6;stroke-width:0;stroke-miterlimit:4;stroke-dasharray:none;stroke-opacity:1"
           id="rect3640-6-5-1-2-9"
           width="5.6126599"
           height="16.089626"
           x="36.482288"
           y="288.67453" />
        <rect
           y="288.67453"
           x="28.544788"
           height="16.089626"
           width="5.6126599"
           id="rect3691-5-2"
           style="opacity:1;fill:#ffffff;fill-opacity:1;fill-rule:evenodd;stroke:#016db6;stroke-width:0;stroke-miterlimit:4;stroke-dasharray:none;stroke-opacity:1" />
      </g>
      <g
         transform="matrix(0.96761903,0,0,0.96761903,-0.93316839,-53.519297)"
         id="g3774">
        <rect
           y="288.67453"
           x="36.482288"
           height="16.089626"
           width="5.6126599"
           id="rect3770"
           style="opacity:1;fill:#ffffff;fill-opacity:1;fill-rule:evenodd;stroke:#016db6;stroke-width:0;stroke-miterlimit:4;stroke-dasharray:none;stroke-opacity:1" />
        <rect
           style="opacity:1;fill:#ffffff;fill-opacity:1;fill-rule:evenodd;stroke:#016db6;stroke-width:0;stroke-miterlimit:4;stroke-dasharray:none;stroke-opacity:1"
           id="rect3772"
           width="5.6126599"
           height="16.089626"
           x="28.544788"
           y="288.67453" />
      </g>
      <circle
         r="26.30563"
         cy="262.98212"
         cx="33.639881"
         id="path3605"
         style="opacity:1;fill:#ffffff;fill-opacity:0.98492462;fill-rule:evenodd;stroke:#016db6;stroke-width:0;stroke-miterlimit:4;stroke-dasharray:none;stroke-opacity:1" />
      <path
         style="fill:#03b14b;fill-opacity:1;stroke:#ffffff;stroke-width:0;stroke-miterlimit:4;stroke-dasharray:none;stroke-opacity:1"
         d="m 92.137151,286.38992 -6.94344,-6.94715 v -12.56775 -12.56774 l 6.94715,-6.94344 6.947151,-6.94344 h 16.807118 16.80711 l 6.80511,6.98995 6.80512,6.98995 v 12.47843 12.47844 l -6.80512,6.98995 -6.80511,6.98995 H 115.89142 99.080591 Z m 41.523619,-1.96468 7.36003,-7.3565 v -10.30795 -10.30795 l -7.33894,-7.35476 -7.33894,-7.35476 h -10.45255 -10.45255 l -7.343931,7.34041 -7.343929,7.34042 v 10.31881 10.31881 l 7.406792,7.41004 7.406798,7.41005 10.36859,-0.05 10.3686,-0.0501 z m -24.6626,-10.06277 c -0.006,-10.49465 -0.0907,-14.88238 -0.28216,-14.55343 -0.15076,0.25901 -1.52498,3.53194 -3.05383,7.27316 -1.52885,3.74123 -2.81228,6.83479 -2.85207,6.87458 -0.0398,0.0398 -0.89437,-1.37976 -1.89906,-3.15457 l -1.826714,-3.22691 -0.07065,6.98469 -0.07065,6.98469 -2.773621,-2.76419 -2.773621,-2.76418 v -9.3075 -9.30751 l 1.990532,-1.78151 c 1.094793,-0.97984 2.027478,-1.73468 2.072634,-1.67743 0.04516,0.0572 1.005055,1.71143 2.13311,3.67596 1.12805,1.96453 2.14212,3.6672 2.25348,3.78372 0.11136,0.11651 1.75845,-3.63396 3.66019,-8.33438 l 3.45771,-8.54622 2.801,-0.0751 2.80101,-0.0751 -0.0676,22.4324 -0.0676,22.43241 -2.71198,0.0754 -2.71198,0.0754 z m 8.38652,14.82946 c -0.097,-0.097 -0.17639,-10.21733 -0.17639,-22.48958 v -22.3132 h 4.00648 4.00649 l 6.57685,6.58421 6.57685,6.58421 v 2.7767 2.77669 l -7.9375,7.73652 -7.9375,7.73653 v 5.39215 5.39216 h -2.46945 c -1.35819,0 -2.54882,-0.0794 -2.64583,-0.17639 z m 10.44727,-23.46256 c 2.66996,-2.59668 4.95783,-4.9032 5.08416,-5.1256 0.17628,-0.3103 -0.96168,-1.59692 -4.89224,-5.53137 -2.81707,-2.81985 -5.21239,-5.127 -5.32293,-5.127 -0.11054,0 -0.20098,4.65336 -0.20098,10.3408 0,6.03714 0.0994,10.30409 0.23876,10.2526 0.13132,-0.0485 2.42327,-2.21275 5.09323,-4.80943 z"
         id="path956"
         inkscape:connector-curvature="0"
         clip-path="url(#clipPath962)"
         transform="matrix(-0.77949946,0,0,0.77949946,107.88215,51.585416)" />
      <path
         transform="matrix(0.77949946,0,0,0.77949946,-52.948376,51.585421)"
         clip-path="url(#clipPath962)"
         inkscape:connector-curvature="0"
         id="path973"
         d="m 92.137151,286.38992 -6.94344,-6.94715 v -12.56775 -12.56774 l 6.94715,-6.94344 6.947151,-6.94344 h 16.807118 16.80711 l 6.80511,6.98995 6.80512,6.98995 v 12.47843 12.47844 l -6.80512,6.98995 -6.80511,6.98995 H 115.89142 99.080591 Z m 41.523619,-1.96468 7.36003,-7.3565 v -10.30795 -10.30795 l -7.33894,-7.35476 -7.33894,-7.35476 h -10.45255 -10.45255 l -7.343931,7.34041 -7.343929,7.34042 v 10.31881 10.31881 l 7.406792,7.41004 7.406798,7.41005 10.36859,-0.05 10.3686,-0.0501 z m -24.6626,-10.06277 c -0.006,-10.49465 -0.0907,-14.88238 -0.28216,-14.55343 -0.15076,0.25901 -1.52498,3.53194 -3.05383,7.27316 -1.52885,3.74123 -2.81228,6.83479 -2.85207,6.87458 -0.0398,0.0398 -0.89437,-1.37976 -1.89906,-3.15457 l -1.826714,-3.22691 -0.07065,6.98469 -0.07065,6.98469 -2.773621,-2.76419 -2.773621,-2.76418 v -9.3075 -9.30751 l 1.990532,-1.78151 c 1.094793,-0.97984 2.027478,-1.73468 2.072634,-1.67743 0.04516,0.0572 1.005055,1.71143 2.13311,3.67596 1.12805,1.96453 2.14212,3.6672 2.25348,3.78372 0.11136,0.11651 1.75845,-3.63396 3.66019,-8.33438 l 3.45771,-8.54622 2.801,-0.0751 2.80101,-0.0751 -0.0676,22.4324 -0.0676,22.43241 -2.71198,0.0754 -2.71198,0.0754 z m 8.38652,14.82946 c -0.097,-0.097 -0.17639,-10.21733 -0.17639,-22.48958 v -22.3132 h 4.00648 4.00649 l 6.57685,6.58421 6.57685,6.58421 v 2.7767 2.77669 l -7.9375,7.73652 -7.9375,7.73653 v 5.39215 5.39216 h -2.46945 c -1.35819,0 -2.54882,-0.0794 -2.64583,-0.17639 z m 10.44727,-23.46256 c 2.66996,-2.59668 4.95783,-4.9032 5.08416,-5.1256 0.17628,-0.3103 -0.96168,-1.59692 -4.89224,-5.53137 -2.81707,-2.81985 -5.21239,-5.127 -5.32293,-5.127 -0.11054,0 -0.20098,4.65336 -0.20098,10.3408 0,6.03714 0.0994,10.30409 0.23876,10.2526 0.13132,-0.0485 2.42327,-2.21275 5.09323,-4.80943 z"
         style="fill:#03b14b;fill-opacity:1;stroke:#ffffff;stroke-width:0;stroke-miterlimit:4;stroke-dasharray:none;stroke-opacity:1" />
      <path
         style="fill:#03b14b;fill-opacity:1;stroke:#ffffff;stroke-width:0;stroke-miterlimit:4;stroke-dasharray:none;stroke-opacity:1"
         d="m 92.137151,286.38992 -6.94344,-6.94715 v -12.56775 -12.56774 l 6.94715,-6.94344 6.947151,-6.94344 h 16.807118 16.80711 l 6.80511,6.98995 6.80512,6.98995 v 12.47843 12.47844 l -6.80512,6.98995 -6.80511,6.98995 H 115.89142 99.080591 Z m 41.523619,-1.96468 7.36003,-7.3565 v -10.30795 -10.30795 l -7.33894,-7.35476 -7.33894,-7.35476 h -10.45255 -10.45255 l -7.343931,7.34041 -7.343929,7.34042 v 10.31881 10.31881 l 7.406792,7.41004 7.406798,7.41005 10.36859,-0.05 10.3686,-0.0501 z m -24.6626,-10.06277 c -0.006,-10.49465 -0.0907,-14.88238 -0.28216,-14.55343 -0.15076,0.25901 -1.52498,3.53194 -3.05383,7.27316 -1.52885,3.74123 -2.81228,6.83479 -2.85207,6.87458 -0.0398,0.0398 -0.89437,-1.37976 -1.89906,-3.15457 l -1.826714,-3.22691 -0.07065,6.98469 -0.07065,6.98469 -2.773621,-2.76419 -2.773621,-2.76418 v -9.3075 -9.30751 l 1.990532,-1.78151 c 1.094793,-0.97984 2.027478,-1.73468 2.072634,-1.67743 0.04516,0.0572 1.005055,1.71143 2.13311,3.67596 1.12805,1.96453 2.14212,3.6672 2.25348,3.78372 0.11136,0.11651 1.75845,-3.63396 3.66019,-8.33438 l 3.45771,-8.54622 2.801,-0.0751 2.80101,-0.0751 -0.0676,22.4324 -0.0676,22.43241 -2.71198,0.0754 -2.71198,0.0754 z m 8.38652,14.82946 c -0.097,-0.097 -0.17639,-10.21733 -0.17639,-22.48958 v -22.3132 h 4.00648 4.00649 l 6.57685,6.58421 6.57685,6.58421 v 2.7767 2.77669 l -7.9375,7.73652 -7.9375,7.73653 v 5.39215 5.39216 h -2.46945 c -1.35819,0 -2.54882,-0.0794 -2.64583,-0.17639 z m 10.44727,-23.46256 c 2.66996,-2.59668 4.95783,-4.9032 5.08416,-5.1256 0.17628,-0.3103 -0.96168,-1.59692 -4.89224,-5.53137 -2.81707,-2.81985 -5.21239,-5.127 -5.32293,-5.127 -0.11054,0 -0.20098,4.65336 -0.20098,10.3408 0,6.03714 0.0994,10.30409 0.23876,10.2526 0.13132,-0.0485 2.42327,-2.21275 5.09323,-4.80943 z"
         id="path869"
         inkscape:connector-curvature="0"
         clip-path="url(#clipPath2023)"
         transform="matrix(0.83178621,0,0,0.83178621,-62.08091,46.999285)" />
      <g
         id="g3695-9-0-0"
         transform="matrix(0,0.96761903,-0.96761903,0,291.62562,228.14447)">
        <rect
           style="opacity:1;fill:#ffffff;fill-opacity:1;fill-rule:evenodd;stroke:#016db6;stroke-width:0;stroke-miterlimit:4;stroke-dasharray:none;stroke-opacity:1"
           id="rect3640-6-5-1-2-9-7"
           width="5.6126599"
           height="16.089626"
           x="36.482288"
           y="288.67453" />
        <rect
           y="288.67453"
           x="28.544788"
           height="16.089626"
           width="5.6126599"
           id="rect3691-5-2-3"
           style="opacity:1;fill:#ffffff;fill-opacity:1;fill-rule:evenodd;stroke:#016db6;stroke-width:0;stroke-miterlimit:4;stroke-dasharray:none;stroke-opacity:1" />
      </g>
      <rect
         y="264.20685"
         x="26.969997"
         height="0.83020598"
         width="0.9471364"
         id="rect909"
         style="opacity:1;fill:#ffffff;fill-opacity:1;fill-rule:evenodd;stroke:#323232;stroke-width:0;stroke-miterlimit:4;stroke-dasharray:none;stroke-opacity:1" />
    </g>
  </g>
</svg>
