<?xml version="1.0" encoding="UTF-8" standalone="no"?>
<!-- Created with Inkscape (http://www.inkscape.org/) -->

<svg
   xmlns:dc="http://purl.org/dc/elements/1.1/"
   xmlns:cc="http://creativecommons.org/ns#"
   xmlns:rdf="http://www.w3.org/1999/02/22-rdf-syntax-ns#"
   xmlns:svg="http://www.w3.org/2000/svg"
   xmlns="http://www.w3.org/2000/svg"
   xmlns:sodipodi="http://sodipodi.sourceforge.net/DTD/sodipodi-0.dtd"
   xmlns:inkscape="http://www.inkscape.org/namespaces/inkscape"
   width="256"
   height="256"
   viewBox="0 0 67.733331 67.733335"
   version="1.1"
   id="svg8"
   inkscape:version="0.92.3 (2405546, 2018-03-11)"
   sodipodi:docname="MifosPayCircle.svg"
   inkscape:export-filename="C:\Users\jonat\Desktop\Projects\GCI\Mifos\MifosPay Logo Task\MifosPayCircle_png.png"
   inkscape:export-xdpi="96"
   inkscape:export-ydpi="96">
  <defs
     id="defs2">
    <clipPath
       clipPathUnits="userSpaceOnUse"
       id="clipPath858">
      <path
         style="fill:#ff5555;stroke:#000000;stroke-width:0.26458332px;stroke-linecap:butt;stroke-linejoin:miter;stroke-opacity:1"
         d="m 51.310267,261.56472 c 0.157491,-0.126 0.301443,-0.27109 0.472472,-0.37798 0.08446,-0.0528 0.191,-0.0575 0.28348,-0.0945 0.0654,-0.0262 0.119925,-0.0807 0.188989,-0.0945 0.09266,-0.0185 0.190275,0.0155 0.283483,0 0.09825,-0.0164 0.187708,-0.0671 0.283482,-0.0945 0.124873,-0.0357 0.256376,-0.0489 0.377976,-0.0945 0.131895,-0.0495 0.245594,-0.14085 0.377976,-0.18899 0.215503,-0.0784 0.442291,-0.12155 0.661458,-0.18898 0.190402,-0.0586 0.375418,-0.13426 0.566965,-0.18899 0.499491,-0.14271 1.006235,-0.259 1.511904,-0.37798 0.282678,-0.0665 0.568719,-0.11855 0.850447,-0.18899 0.698278,-0.17457 0.680178,-0.23053 1.41741,-0.37797 0.2184,-0.0437 0.443677,-0.0478 0.661458,-0.0945 0.224219,-0.048 0.43724,-0.14094 0.661459,-0.18898 0.435562,-0.0933 0.883528,-0.11576 1.322916,-0.18899 0.347369,-0.0579 0.692068,-0.1311 1.039435,-0.18899 0.188989,-0.0315 0.375795,-0.0817 0.566965,-0.0945 0.282855,-0.0189 0.566965,0 0.850447,0 0.125992,0 0.252754,0.0139 0.377976,0 1.128424,-0.12538 -0.179922,-0.0945 0.944941,-0.0945 0.818946,0 1.637895,0 2.456844,0 0.283483,0 0.566965,0 0.850448,0 0.125991,0 0.253248,-0.0178 0.377975,0 0.0986,0.0141 0.186849,0.0703 0.283483,0.0945 0.155813,0.0389 0.315685,0.0596 0.472469,0.0945 0.126778,0.0282 0.250629,0.069 0.377976,0.0945 1.174832,0.23497 0.0034,2.6e-4 1.039434,0.0945 0.19081,0.0174 0.376322,0.0754 0.566965,0.0945 0.125368,0.0125 0.251984,0 0.377976,0 0.440973,0 0.881946,0 1.322916,0 0.12599,0 0.252958,-0.0156 0.377976,0 0.128868,0.0161 0.251984,0.063 0.377976,0.0945 0.125995,0.0315 0.253106,0.0588 0.377979,0.0945 0.09577,0.0274 0.186848,0.0703 0.283477,0.0945 0.155818,0.039 0.316661,0.0555 0.472474,0.0945 0.358992,0.0897 0.249037,0.13007 0.661459,0.18899 0.09354,0.0134 0.190272,-0.0155 0.283482,0 0.09825,0.0164 0.188987,0.063 0.283483,0.0945 0.09449,0.0315 0.191,0.0575 0.283477,0.0945 0.06539,0.0262 0.122174,0.0722 0.188992,0.0945 0.05976,0.0199 0.144444,-0.0446 0.188989,0 0.0498,0.0498 0.03589,0.14992 0.09449,0.18899 0.05242,0.0349 0.132646,-0.0282 0.188989,0 0.02817,0.0141 -0.02228,0.0722 0,0.0945 0.02228,0.0223 0.06829,-0.0175 0.0945,0 0.307657,0.2051 0.05486,0.17578 0.377976,0.28348 0.05976,0.0199 0.132643,-0.0282 0.188986,0 0.432464,0.21623 -0.400976,-0.0392 0.283483,0.18899 0.03677,0.0122 0.268819,-0.0147 0.283482,0 0.115094,0.11509 0.04426,0.21112 0.188989,0.28348 0.251984,0 -0.0315,-0.0315 0.09449,0.0945 0.02228,0.0223 0.07222,-0.0223 0.09449,0 0.02228,0.0223 -0.02228,0.0722 0,0.0945 0.02228,0.0223 0.06632,-0.0141 0.0945,0 0.03984,0.0199 0.05465,0.0746 0.09449,0.0945 0.02817,0.0141 0.07222,-0.0223 0.09449,0 0.02228,0.0223 -0.01408,0.0663 0,0.0945 0.01992,0.0398 0.063,0.063 0.09449,0.0945 0.0315,0.0315 0.05465,0.0746 0.0945,0.0945 0.02817,0.0141 0.06632,-0.0141 0.09449,0 0.03984,0.0199 0.05743,0.0698 0.09449,0.0945 0.0586,0.0391 0.130387,0.0554 0.188992,0.0945 0.03706,0.0247 0.05223,0.0804 0.09449,0.0945 0.05976,0.0199 0.132644,-0.0282 0.18899,0 0.02817,0.0141 -0.01408,0.0663 0,0.0945 0.19663,0.39327 -0.0065,-0.10101 0.188986,0.0945 0.02228,0.0223 -0.01408,0.0663 0,0.0945 0.01992,0.0398 0.07457,0.0546 0.0945,0.0945 0.01408,0.0282 -0.01408,0.0663 0,0.0945 0.01992,0.0398 0.07457,0.0546 0.09449,0.0945 0.01408,0.0282 -0.02228,0.0722 0,0.0945 0.02228,0.0223 0.07222,-0.0223 0.09449,0 0.251984,0.50396 -0.09449,-0.0945 0.283485,0.28348 0.02228,0.0223 -0.02228,0.0722 0,0.0945 0.02228,0.0223 0.06632,-0.0141 0.09449,0 0.03984,0.0199 0.05465,0.0746 0.0945,0.0945 0.02817,0.0141 0.07222,-0.0223 0.09449,0 0.02228,0.0223 -0.01408,0.0663 0,0.0945 0.0567,0.11339 0.226785,0.17009 0.283483,0.28348 0.01408,0.0282 -0.02228,0.0722 0,0.0945 0.02228,0.0223 0.07222,-0.0223 0.09449,0 0.02228,0.0223 -0.01408,0.0663 0,0.0945 0.01992,0.0398 0.07457,0.0547 0.09449,0.0945 0.01873,0.0375 -0.01931,0.26416 0,0.28348 0.02228,0.0223 0.07222,-0.0223 0.0945,0 0.04454,0.0445 -0.04454,0.14444 0,0.18899 0.02228,0.0223 0.07222,-0.0223 0.09449,0 0.02228,0.0223 -0.02228,0.0722 0,0.0945 0.02228,0.0223 0.06632,-0.0141 0.09449,0 0.393261,0.19663 -0.101018,-0.007 0.09449,0.18899 0.02228,0.0223 0.07222,-0.0223 0.0945,0 0.02228,0.0223 -0.02228,0.0722 0,0.0945 0.02228,0.0223 0.07222,-0.0223 0.09449,0 0.02228,0.0223 -0.02228,0.0722 0,0.0945 0.02228,0.0223 0.06632,-0.0141 0.09449,0 0.03984,0.0199 0.05465,0.0746 0.0945,0.0945 0.02817,0.0141 0.07222,-0.0223 0.09449,0 0.02228,0.0223 -0.02228,0.0722 0,0.0945 9e-5,9e-5 0.283054,-1.4e-4 0.283482,0 0.04226,0.0141 0.05465,0.0746 0.09449,0.0945 0.02817,0.0141 0.07222,-0.0223 0.09449,0 0.02228,0.0223 -0.01408,0.0663 0,0.0945 0.03984,0.0797 0.149145,0.10931 0.188989,0.18899 0.01408,0.0282 -0.02228,0.0722 0,0.0945 0.02228,0.0223 0.07222,-0.0223 0.09449,0 0.04725,0.0473 -0.04725,0.23624 0,0.28349 0.02228,0.0223 0.07222,-0.0223 0.09449,0 0.02228,0.0223 -0.02228,0.0722 0,0.0945 0.02228,0.0223 0.07222,-0.0223 0.0945,0 0.02228,0.0223 -0.02228,0.0722 0,0.0945 0.02228,0.0223 0.07222,-0.0223 0.09449,0 0.04454,0.0445 -0.04454,0.14444 0,0.18898 0.02228,0.0223 0.07222,-0.0223 0.09449,0 0.02228,0.0223 -0.01408,0.0663 0,0.0945 0.01992,0.0398 0.07457,0.0546 0.0945,0.0945 0.01408,0.0282 -0.01408,0.0663 0,0.0945 0.116766,0.23354 0.09449,-0.0326 0.09449,0.18899 0,0.0315 0,0.126 0,0.0945 0,-0.063 0,-0.25199 0,-0.18899 0,0.0945 0,0.18899 0,0.28348 0,0.0315 0,0.063 0,0.0945 0,0.0315 -0.01408,0.0663 0,0.0945 0.01992,0.0398 0.07457,0.0546 0.09449,0.0945 0.02817,0.0564 -0.04454,0.14445 0,0.18899 0.02228,0.0223 0.07222,-0.0223 0.09449,0 0.02228,0.0223 -0.01408,0.0663 0,0.0945 0.01992,0.0398 0.07458,0.0547 0.0945,0.0945 0.01408,0.0282 -0.02228,0.0722 0,0.0945 0.02228,0.0223 0.07222,-0.0223 0.09449,0 0.195511,0.19552 -0.298765,-0.008 0.09449,0.18899 0.251984,0 -0.0315,-0.0315 0.0945,0.0945 0.02228,0.0223 0.07222,-0.0223 0.09449,0 0.02228,0.0223 -0.02228,0.0722 0,0.0945 0.02228,0.0223 0.07222,-0.0223 0.09449,0 0.04454,0.0446 -0.04454,0.14444 0,0.18899 0.02228,0.0223 0.06632,-0.0141 0.09449,0 0.03984,0.0199 0.063,0.063 0.0945,0.0945 0.0315,0.0315 0.07457,0.0547 0.09449,0.0945 0.01408,0.0282 -0.01408,0.0663 0,0.0945 0.01992,0.0398 0.07457,0.0546 0.09449,0.0945 0.01408,0.0282 -0.01408,0.0663 0,0.0945 0.01992,0.0398 0.07457,0.0546 0.0945,0.0945 0.01408,0.0282 -0.01408,0.0663 0,0.0945 0.01992,0.0398 0.07457,0.0546 0.09449,0.0945 0.02817,0.0564 -0.02817,0.13264 0,0.18899 0.01992,0.0398 0.07457,0.0546 0.09449,0.0945 0.0297,0.0594 -0.02969,0.31859 0,0.37798 0.01992,0.0398 0.07457,0.0547 0.09449,0.0945 0.0378,0.0756 -0.0378,0.20789 0,0.28349 0.03984,0.0797 0.149148,0.1093 0.188989,0.18898 0.03264,0.0653 -0.03317,0.4393 0,0.47247 0.02228,0.0223 0.07222,-0.0223 0.09449,0 0.01931,0.0193 -0.01873,0.24602 0,0.28349 0.01992,0.0398 0.07457,0.0546 0.0945,0.0945 0.01709,0.0342 0,0.40675 0,0.47247 0,0.0315 -0.02228,0.0722 0,0.0945 0.02228,0.0223 0.07222,-0.0223 0.09449,0 0.04725,0.0473 -0.04725,0.23624 0,0.28349 0.02228,0.0223 0.07222,-0.0223 0.09449,0 0.02228,0.0223 0,0.063 0,0.0945 0,0.15749 0,0.31498 0,0.47247 0,0.0347 -0.0038,0.37417 0,0.37798 0.02228,0.0223 0.07222,-0.0223 0.09449,0 0.02228,0.0223 0,0.063 0,0.0945 0,0.0315 0,0.063 0,0.0945 0,0.37798 0,0.75596 0,1.13393 0,1.00794 0,2.01588 0,3.02381 0,1.98438 0,3.96875 0,5.95313 0,0.25198 0,0.50397 0,0.75595 0,0.0315 0,0.063 0,0.0945 0,0.0315 0.02228,0.0722 0,0.0945 -0.02228,0.0223 -0.063,0 -0.09449,0 -0.0315,0 -0.063,0 -0.09449,0 -0.409475,0 -0.818949,0 -1.228424,0 -1.385911,0 -2.771825,0 -4.157736,0 -0.440973,0 -0.881946,0 -1.322917,0 -0.05048,0 -0.445426,-0.0135 -0.472472,0 -0.03984,0.0199 -0.05465,0.0746 -0.09449,0.0945 -0.130342,0.0652 -0.08452,-0.11443 -0.188989,0.0945 -0.01408,0.0282 0.02228,0.0722 0,0.0945 -0.02228,0.0223 -0.07222,-0.0223 -0.09449,0 -0.02228,0.0223 0.02228,0.0722 0,0.0945 -0.02228,0.0223 -0.06632,-0.0141 -0.09449,0 -0.09298,0.0465 -0.284991,0.33148 -0.377976,0.37797 -0.02817,0.0141 -0.063,0 -0.0945,0 -0.06299,0.0315 -0.130384,0.0554 -0.188987,0.0945 -0.03707,0.0247 -0.05743,0.0698 -0.0945,0.0945 -0.0586,0.0391 -0.130384,0.0554 -0.188987,0.0945 -0.03706,0.0247 -0.05465,0.0746 -0.09449,0.0945 -0.02817,0.0141 -0.063,0 -0.0945,0 -0.063,0 -0.129225,-0.0199 -0.188986,0 -0.08452,0.0282 -0.109305,0.14914 -0.18899,0.18898 -0.05152,0.0258 -0.339182,-0.0258 -0.377975,0 -0.07413,0.0494 -0.114861,0.13957 -0.18899,0.18899 -0.02619,0.0175 -0.06299,0 -0.09449,0 -0.063,0 -0.127871,-0.0153 -0.188987,0 -0.136657,0.0342 -0.24434,0.14445 -0.377978,0.18899 -0.02988,0.01 -0.06393,-0.008 -0.09449,0 -0.09663,0.0242 -0.185235,0.0781 -0.283483,0.0945 -0.09321,0.0155 -0.190825,-0.0185 -0.283485,0 -0.06906,0.0138 -0.11992,0.0807 -0.188984,0.0945 -0.154432,0.0309 -0.31804,-0.0309 -0.472472,0 -0.09767,0.0195 -0.184877,0.0804 -0.283482,0.0945 -0.128172,0.0183 -0.718016,0 -0.850445,0 -0.377976,0 -0.755952,0 -1.13393,0 -0.503968,0 -1.007936,0 -1.511906,0 -0.125989,0 -0.251981,0 -0.377973,0 -0.063,0 -0.127217,0.0124 -0.188992,0 -0.09767,-0.0195 -0.184875,-0.0804 -0.28348,-0.0945 -0.124727,-0.0178 -0.251984,0 -0.377976,0 -0.125992,0 -0.251984,0 -0.377978,0 -0.598459,0 -1.196922,0 -1.795383,0 -0.472472,0 -0.944941,0 -1.417413,0 -0.157488,0 -0.314981,0 -0.472469,0 -0.0315,0 -0.06461,-0.01 -0.09449,0 -0.06682,0.0223 -0.12066,0.0774 -0.188989,0.0945 -0.06111,0.0153 -0.125992,0 -0.188987,0 -0.0945,0 -0.188989,0 -0.283482,0 -0.0315,0 -0.06394,-0.008 -0.0945,0 -0.09663,0.0242 -0.185809,0.075 -0.28348,0.0945 -0.06177,0.0123 -0.127873,-0.0153 -0.188989,0 -0.456306,0.11407 0.0047,0.0449 -0.283483,0.18898 -0.05889,0.0294 -0.510421,-0.0283 -0.566965,0 -0.02817,0.0141 0.02817,0.0804 0,0.0945 -0.04964,0.0248 -0.406059,-0.0133 -0.472469,0 -0.09767,0.0195 -0.185812,0.075 -0.283483,0.0945 -0.06177,0.0124 -0.125992,0 -0.188986,0 -0.283483,0 -0.566965,0 -0.850448,0 -0.629959,0 -1.259919,0 -1.889881,0 -1.070933,0 -2.141863,0 -3.212796,0 -0.314981,0 -0.629963,0 -0.944941,0 -0.125992,0 -0.251984,0 -0.377976,0 -0.125992,0 -0.252957,0.0156 -0.377978,0 -0.128866,-0.0161 -0.248899,-0.0802 -0.377976,-0.0945 -0.156525,-0.0174 -0.314979,0 -0.472469,0 -0.125992,0 -0.251984,0 -0.377976,0 -0.503968,0 -1.007938,0 -1.511906,0 -0.157491,0 -0.314978,0 -0.472469,0 -0.0945,0 -0.19181,0.0229 -0.283483,0 -0.04321,-0.0108 -0.05223,-0.0804 -0.09449,-0.0945 -0.05976,-0.0199 -0.127871,0.0153 -0.188987,0 -0.06833,-0.0171 -0.119925,-0.0807 -0.188992,-0.0945 -0.173201,-0.0346 -0.487198,0.0348 -0.661458,0 -0.491575,-0.0983 -0.09449,-0.063 -0.472469,-0.18899 -0.02988,-0.01 -0.063,0 -0.09449,0 -0.0945,-0.0315 -0.191003,-0.0575 -0.283485,-0.0945 -0.130789,-0.0523 -0.24434,-0.14445 -0.377976,-0.18899 -0.02988,-0.01 -0.06461,0.01 -0.0945,0 -0.06681,-0.0223 -0.119922,-0.0807 -0.188986,-0.0945 -0.09266,-0.0185 -0.192625,0.026 -0.283483,0 -0.661458,-0.18899 -0.14174,-0.14174 -0.566965,-0.28349 -1.15067,-0.38355 0.09706,0.0383 -0.566962,-0.0945 -0.09767,-0.0195 -0.185812,-0.075 -0.283483,-0.0945 -0.06177,-0.0124 -0.132643,0.0282 -0.188989,0 -0.07968,-0.0399 -0.114861,-0.13957 -0.188987,-0.18899 -0.05242,-0.0349 -0.144444,0.0445 -0.188989,0 -0.02228,-0.0223 0,-0.063 0,-0.0945 0,-0.1231 0.02104,-0.36734 0,-0.47246 -0.01953,-0.0977 -0.07496,-0.18582 -0.09449,-0.28349 -0.03089,-0.15443 0.02228,-0.31656 0,-0.47247 -0.03673,-0.25713 -0.146289,-0.49975 -0.18899,-0.75595 -0.02588,-0.15535 0.01953,-0.3162 0,-0.47247 -0.05501,-0.44009 -0.108061,-0.44581 -0.188986,-0.85045 -0.03758,-0.18787 -0.063,-0.37797 -0.0945,-0.56696 -0.30884,-1.85305 0.169564,0.88578 -0.283482,-1.22842 -0.07303,-0.34079 -0.149048,-1.21236 -0.188987,-1.51191 -0.135919,-1.0194 -0.09449,-0.10723 -0.09449,-1.32292 0,-0.31498 0,-0.62996 0,-0.94494 0,-0.28348 -0.03312,-0.5689 0,-0.85044 0.03035,-0.25796 0.129498,-0.50312 0.188987,-0.75596 0.115578,-0.4912 0.206457,-1.03165 0.377976,-1.5119 0.08068,-0.22591 0.197371,-0.43756 0.283482,-0.66146 0.264658,-0.68811 0.130628,-0.48638 0.377976,-1.22842 0.05364,-0.16092 0.131022,-0.31306 0.188989,-0.47247 0.06808,-0.18722 0.12091,-0.37975 0.188987,-0.56696 0.05797,-0.15941 0.140248,-0.31001 0.188989,-0.47248 0.04615,-0.15383 0.05223,-0.31751 0.09449,-0.47247 0.104833,-0.38438 0.26349,-0.75231 0.377976,-1.13392 0.135342,-0.45114 0.04665,-0.37677 0.283482,-0.85045 0.05079,-0.10158 0.1382,-0.1819 0.188989,-0.28348 0.07586,-0.15172 0.113131,-0.32076 0.188987,-0.47247 0.01992,-0.0399 0.06777,-0.0589 0.0945,-0.0945 0.06814,-0.0908 0.130556,-0.1861 0.188986,-0.28348 0.07247,-0.12079 0.136673,-0.24719 0.188989,-0.37798 0.03699,-0.0925 0.0575,-0.191 0.09449,-0.28348 0.02162,-0.0541 0.167362,-0.32391 0.188989,-0.37797 0.03699,-0.0925 0.0575,-0.191 0.09449,-0.28348 0.02617,-0.0654 0.063,-0.126 0.09449,-0.18899 0.0315,-0.063 0.05543,-0.13039 0.0945,-0.18899 0.02471,-0.0371 0.06978,-0.0574 0.09449,-0.0945 0.07814,-0.1172 0.11085,-0.26077 0.188986,-0.37797 0.02471,-0.0371 0.07458,-0.0546 0.0945,-0.0945 0.01408,-0.0282 -0.02228,-0.0722 0,-0.0945 0.02228,-0.0223 0.07222,0.0223 0.09449,0 0.02228,-0.0223 -0.01408,-0.0663 0,-0.0945 0.01992,-0.0399 0.07457,-0.0547 0.09449,-0.0945 0.01408,-0.0282 -0.01408,-0.0663 0,-0.0945 0.196631,-0.39326 -0.0065,0.10101 0.188989,-0.0945 0.02228,-0.0223 -0.01407,-0.0663 0,-0.0945 0.01992,-0.0398 0.07457,-0.0546 0.09449,-0.0945 0.01408,-0.0282 -0.02228,-0.0722 0,-0.0945 0.02228,-0.0223 0.07222,0.0223 0.09449,0 0.02228,-0.0223 -0.02228,-0.0722 0,-0.0945 0.04454,-0.0446 0.132643,0.0282 0.188989,0 0.03984,-0.0199 0.05465,-0.0746 0.09449,-0.0945 0.05635,-0.0282 0.132644,0.0282 0.188989,0 0.393261,-0.19663 -0.101018,0.007 0.09449,-0.18899 0.04454,-0.0445 0.132643,0.0282 0.188989,0 0.03984,-0.0199 0.05465,-0.0746 0.09449,-0.0945 0.02519,-0.0126 0.524216,0 0.566965,0 0.0315,0 0.07222,0.0223 0.09449,0 0.02228,-0.0223 0,-0.063 0,-0.0945 0.125992,-0.0945 0.251986,-0.18899 0.377978,-0.28348 z"
         id="path860"
         inkscape:connector-curvature="0" />
    </clipPath>
    <clipPath
       clipPathUnits="userSpaceOnUse"
       id="clipPath1152">
      <path
         style="opacity:1;fill:#ff00ff;fill-opacity:0.98412697;fill-rule:evenodd;stroke:#000000;stroke-width:0.09181613;stroke-miterlimit:4;stroke-dasharray:none;stroke-opacity:0.98412697"
         d="m 10.612097,301.74256 v 48.3431 h 24.900342 v -21.74225 h 12.875299 v 21.74225 h 22.592505 v -48.3431 z"
         id="path1154"
         inkscape:connector-curvature="0" />
    </clipPath>
  </defs>
  <sodipodi:namedview
     id="base"
     pagecolor="#ffffff"
     bordercolor="#666666"
     borderopacity="1.0"
     inkscape:pageopacity="0.0"
     inkscape:pageshadow="2"
     inkscape:zoom="1.4142136"
     inkscape:cx="90.655554"
     inkscape:cy="103.06017"
     inkscape:document-units="mm"
     inkscape:current-layer="layer1"
     showgrid="false"
     inkscape:pagecheckerboard="true"
     units="px"
     inkscape:snap-midpoints="true"
     inkscape:snap-smooth-nodes="true"
     inkscape:snap-intersection-paths="true"
     inkscape:object-paths="true"
     inkscape:window-width="1366"
     inkscape:window-height="705"
     inkscape:window-x="-8"
     inkscape:window-y="-8"
     inkscape:window-maximized="1"
     inkscape:snap-nodes="true" />
  <metadata
     id="metadata5">
    <rdf:RDF>
      <cc:Work
         rdf:about="">
        <dc:format>image/svg+xml</dc:format>
        <dc:type
           rdf:resource="http://purl.org/dc/dcmitype/StillImage" />
        <dc:title></dc:title>
      </cc:Work>
    </rdf:RDF>
  </metadata>
  <g
     inkscape:label="Layer 1"
     inkscape:groupmode="layer"
     id="layer1"
     transform="translate(0,-229.26665)">
    <g
       id="g1208">
      <circle
         r="33.866665"
         cy="263.13333"
         cx="33.866665"
         id="path1188"
         style="opacity:1;fill:#ffffff;fill-opacity:1;fill-rule:evenodd;stroke:#000000;stroke-width:0;stroke-miterlimit:3.79999995;stroke-dasharray:none;stroke-opacity:0.98412697" />
      <g
         transform="matrix(0.73191082,0,0,0.73191082,9.0792869,70.543195)"
         id="g1186">
        <g
           id="g1170"
           transform="matrix(0.99842771,0,0,0.99842771,0.0532501,5.1085547)">
          <g
             clip-path="url(#clipPath1152)"
             style="stroke:#000000;stroke-width:0.09181613;stroke-miterlimit:4;stroke-dasharray:none;stroke-opacity:0.98412697"
             transform="matrix(1.0891333,0,0,1.0891333,-10.367363,-98.44518)"
             id="g1045">
            <text
               id="text1037"
               y="348.64499"
               x="6.9253101"
               style="font-style:normal;font-variant:normal;font-weight:100;font-stretch:normal;font-size:81.82328033px;line-height:1.25;font-family:HelvLight;-inkscape-font-specification:'HelvLight, Thin';font-variant-ligatures:normal;font-variant-caps:normal;font-variant-numeric:normal;font-feature-settings:normal;text-align:start;letter-spacing:0px;word-spacing:0px;writing-mode:lr-tb;text-anchor:start;fill:#000000;fill-opacity:1;stroke:#000000;stroke-width:0.09181613;stroke-miterlimit:4;stroke-dasharray:none;stroke-opacity:0.98412697"
               xml:space="preserve"><tspan
                 y="348.64499"
                 x="6.9253101"
                 id="tspan1033"
                 sodipodi:role="line">m</tspan><tspan
                 y="450.9241"
                 x="6.9253101"
                 id="tspan1035"
                 sodipodi:role="line"></tspan></text>
            <text
               xml:space="preserve"
               style="font-style:normal;font-variant:normal;font-weight:100;font-stretch:normal;font-size:81.82328033px;line-height:1.25;font-family:HelvLight;-inkscape-font-specification:'HelvLight, Thin';font-variant-ligatures:normal;font-variant-caps:normal;font-variant-numeric:normal;font-feature-settings:normal;text-align:start;letter-spacing:0px;word-spacing:0px;writing-mode:lr-tb;text-anchor:start;fill:#03b14b;fill-opacity:1;stroke:#000000;stroke-width:0.09181613;stroke-miterlimit:4;stroke-dasharray:none;stroke-opacity:0.98412697"
               x="6.2256618"
               y="347.74512"
               id="text900"><tspan
                 sodipodi:role="line"
                 id="tspan974"
                 x="6.2256618"
                 y="347.74512">m</tspan><tspan
                 sodipodi:role="line"
                 id="tspan976"
                 x="6.2256618"
                 y="450.02423"></tspan></text>
          </g>
          <g
             transform="matrix(1.5025324,0,0,1.5025324,-29.162921,-272.15837)"
             id="g1051">
            <text
               id="text1031"
               y="366.08801"
               x="24.822168"
               style="font-style:normal;font-variant:normal;font-weight:100;font-stretch:normal;font-size:19.98521423px;line-height:1.25;font-family:HelvLight;-inkscape-font-specification:'HelvLight, Thin';font-variant-ligatures:normal;font-variant-caps:normal;font-variant-numeric:normal;font-feature-settings:normal;text-align:start;letter-spacing:0px;word-spacing:0px;writing-mode:lr-tb;text-anchor:start;fill:#000000;fill-opacity:1;stroke:none;stroke-width:0.49963248"
               xml:space="preserve"><tspan
                 style="font-style:normal;font-variant:normal;font-weight:100;font-stretch:normal;font-size:19.98521423px;font-family:HelvLight;-inkscape-font-specification:'HelvLight, Thin';font-variant-ligatures:normal;font-variant-caps:normal;font-variant-numeric:normal;font-feature-settings:normal;text-align:start;writing-mode:lr-tb;text-anchor:start;fill:#000000;fill-opacity:1;stroke-width:0.49963248"
                 y="366.08801"
                 x="24.822168"
                 id="tspan1029"
                 sodipodi:role="line">pay</tspan></text>
            <text
               xml:space="preserve"
               style="font-style:normal;font-variant:normal;font-weight:100;font-stretch:normal;font-size:19.98521423px;line-height:1.25;font-family:HelvLight;-inkscape-font-specification:'HelvLight, Thin';font-variant-ligatures:normal;font-variant-caps:normal;font-variant-numeric:normal;font-feature-settings:normal;text-align:start;letter-spacing:0px;word-spacing:0px;writing-mode:lr-tb;text-anchor:start;fill:#016db6;fill-opacity:1;stroke:none;stroke-width:0.49963248"
               x="24.521828"
               y="365.68811"
               id="text980"><tspan
                 sodipodi:role="line"
                 id="tspan978"
                 x="24.521828"
                 y="365.68811"
                 style="font-style:normal;font-variant:normal;font-weight:100;font-stretch:normal;font-size:19.98521423px;font-family:HelvLight;-inkscape-font-specification:'HelvLight, Thin';font-variant-ligatures:normal;font-variant-caps:normal;font-variant-numeric:normal;font-feature-settings:normal;text-align:start;writing-mode:lr-tb;text-anchor:start;fill:#016db6;fill-opacity:1;stroke-width:0.49963248">pay</tspan></text>
          </g>
        </g>
        <path
           style="fill:none;stroke:#000000;stroke-width:0.2643528px;stroke-linecap:butt;stroke-linejoin:miter;stroke-opacity:1"
           d="m 30.767116,263.92606 h 5.967176 0.221784 0.0097"
           id="path1156"
           inkscape:connector-curvature="0" />
      </g>
    </g>
  </g>
</svg>
