<?xml version="1.0" encoding="UTF-8"?>
<!DOCTYPE svg PUBLIC "-//W3C//DTD SVG 1.1//EN" "http://www.w3.org/Graphics/SVG/1.1/DTD/svg11.dtd">
<!-- Creator: CorelDRAW X7 -->
<svg xmlns="http://www.w3.org/2000/svg" xml:space="preserve" width="8.26772in" height="11.6929in" version="1.1" style="shape-rendering:geometricPrecision; text-rendering:geometricPrecision; image-rendering:optimizeQuality; fill-rule:evenodd; clip-rule:evenodd"
viewBox="0 0 8268 11693"
 xmlns:xlink="http://www.w3.org/1999/xlink">
 <defs>
  <style type="text/css">
   <![CDATA[
    .fil0 {fill:#E6E7E8}
    .fil1 {fill:#D2D3D5}
    .fil5 {fill:#0C72BA}
    .fil4 {fill:#12B24B}
    .fil3 {fill:#2CACE2}
    .fil2 {fill:#646466}
    .fil6 {fill:#76C37B}
   ]]>
  </style>
 </defs>
 <g id="Layer_x0020_1">
  <metadata id="CorelCorpID_0Corel-Layer"/>
  <g id="_1724803551232">
   <path class="fil0" d="M6450 4701l-16 0c-6,-8 -11,-16 -17,-23 -13,7 -26,15 -38,23l-48 0 9 -5c21,-13 47,-24 64,-42 -13,-40 -64,-97 -68,-138 1,1 4,1 4,4 1,3 4,3 5,4l32 50c15,29 26,46 37,73l519 -327c28,-17 54,-37 82,-53 8,9 44,-22 11,28 -116,59 -539,352 -594,365 2,8 9,23 18,41zm-2306 0l-12 0c-10,-32 -16,-57 -19,-73l7 1 24 72zm-166 0l-15 0c2,-4 4,-6 8,-11 8,-12 4,-8 14,-17l2 8 -9 20z"/>
   <path class="fil0" d="M1287 4701l11 -937 23 -25c24,-24 -5,-7 28,-23l499 -1c54,13 -25,43 115,107l-50 879 12 0 41 -712c2,-33 4,-66 5,-99 3,-91 -1,-73 28,-68 12,-12 0,-10 16,8 3,-20 -2,-12 8,-23 43,-4 27,-3 51,34l-24 -46c7,-14 12,-17 16,-23 9,-14 4,-2 10,-17 7,-17 7,-38 8,-55l484 -64c20,-10 223,-34 265,-39 39,-6 97,-23 133,-7 35,16 42,47 91,65 -12,-28 -62,-46 -79,-79 93,-10 456,-74 509,-62 -14,-34 -13,0 -3,-42 -37,2 -105,-13 -140,-29 -2,-1 -6,-1 -8,-4 -1,-4 -5,-3 -7,-5 9,-28 20,-41 28,-69 -1,25 -19,44 -26,74 -83,-7 -418,-98 -545,-128 -31,-7 -62,-12 -91,-20 -52,-16 -26,-6 -42,-60 16,-16 333,-256 372,-272l2 -5 26 -22c14,-12 10,-8 21,-16 15,-10 30,-20 44,-30 15,-12 36,-26 48,-35l133 -98c18,-13 32,-22 43,-31l306 -229c27,-20 59,-38 84,-61 83,66 79,45 192,43l217 429c43,83 199,374 219,438l113 199 -25 32c-5,49 -1,30 5,76 -31,18 -65,56 -93,82 -44,41 -76,59 -81,97 37,-41 158,-161 197,-178l-191 393c39,-54 174,-364 191,-378 32,-13 63,-11 85,-46 -6,-68 -4,-60 -56,-73 -39,-9 -12,12 -36,-19l-393 -770c-29,-55 -132,-242 -145,-295l28 -8c15,-23 28,-43 37,-79l453 121 590 143c39,-7 16,1 29,-9l-26 -19 -1035 -257 -6 -61c-19,12 -6,4 -8,-8 -2,-46 -41,-74 -74,-99l-1 -3c-92,-7 -68,-9 -151,12l-5 2c-37,44 -32,32 -61,92l-7 35 -1211 1 -1 10 335 0 259 0 619 2 24 72 -697 516 -20 15 -363 269c-73,-33 -90,-32 -136,31 -84,-10 -390,-91 -514,-121 -31,-7 -57,-14 -88,-22 -29,-8 -52,-11 -80,-20 17,-39 293,-359 335,-411 27,-33 35,-33 52,-72 -21,9 1,-4 -16,12l-333 398c-6,11 -52,63 -62,74 -21,24 -27,37 -45,57 -22,24 -30,29 -43,59 35,-14 68,-79 102,-112l83 18 467 114c57,14 140,20 142,54 -8,34 14,11 -25,30l-105 34c-47,16 -91,31 -137,47 -62,21 -238,90 -287,89 -9,9 -4,5 -17,13l-296 102c-70,23 -251,95 -314,101 5,-34 5,-18 18,-46l-49 22c-110,8 -39,100 -39,99 0,-1 2,3 3,5 35,11 11,-14 21,30l-1 555c0,116 2,234 2,352l10 0zm1290 -1080c-82,8 -174,23 -259,35l-186 27c-77,8 -67,-23 -21,-59l411 -300c30,20 45,26 92,20 20,-18 12,-13 36,-20l11 -39 719 175c15,4 36,8 52,12 1,0 20,7 21,7 26,12 -1,-7 16,11 -29,19 -302,48 -365,56 -64,10 -131,33 -176,-1 -43,-33 -71,-72 -120,-93 17,38 102,80 127,118l-358 51zm-1240 82c24,-19 41,-20 75,-31 27,-9 50,-17 76,-26l434 -147c184,-62 394,-146 582,-197l-404 301c-48,35 -32,30 -78,9 -126,-56 -152,75 -165,92l-520 -1z"/>
   <path class="fil0" d="M3380 4701l-8 0c55,-48 108,-96 121,-131l-572 84c-88,13 -99,-1 -116,47l-144 0c-4,-44 -2,-27 11,-66 9,-24 9,19 5,-26 -1,-17 -5,-13 -11,-27 14,37 12,25 52,21 33,-3 53,2 76,11 5,23 5,16 15,43 88,-1 389,-52 512,-70l172 -35c-20,-24 -39,-28 -61,-44 124,65 48,-19 129,30 33,19 32,11 91,1 89,-15 178,-28 264,-40 0,-49 17,-80 28,-117 -25,-16 -22,-11 -39,-35l46 31 38 -28c-20,-51 -48,-104 -85,-147l-10 -17c-49,-147 -260,-466 -339,-638 -51,0 -50,-15 -71,14 11,-24 6,-23 3,-48 -14,-34 -13,0 -3,-42 4,-43 -10,-19 25,-25 45,-23 56,3 76,34 -12,110 -55,-2 56,209l112 188c1,34 133,274 159,294 13,64 59,113 82,170 81,-21 71,-13 147,-3l114 -237c-23,79 -100,172 -113,250 45,15 25,30 67,21 -11,6 -8,3 -15,9 8,26 20,48 29,78l2 9 0 25c-22,70 -43,111 -105,135l-7 -1c-48,10 -64,4 -106,-1l-20 54 -2 -8 15 -57c-45,-20 -71,-50 -80,-106 -84,6 -153,20 -235,32 -50,6 -88,3 -120,28 -61,46 -27,5 -75,27 -9,5 -57,52 -110,104zm-1158 0l-21 0c-100,-411 -203,-834 -202,-879 12,-12 0,-10 16,8l207 871z"/>
   <path class="fil0" d="M5875 1633c-10,54 6,50 -38,67 -10,4 -19,5 -33,13 -24,12 -15,9 -20,14 99,-26 41,-46 134,-1l-16 997c-28,15 -38,7 -66,28 -24,19 -19,30 -39,48l-730 -178 -47 -504c55,-18 49,-37 58,-77l10 -32 509 -204c-40,0 -158,55 -204,69l-314 129c-13,-11 -35,-27 -46,-45l-74 -1c-1,-1 -17,-9 -21,-12 0,47 -30,35 -32,115 -68,11 -193,62 -250,52 -32,28 -218,66 -251,70l-412 104c2,12 -11,20 8,8 91,-16 390,-110 449,-103 2,-2 5,-3 7,-4 1,-1 4,-3 6,-4 41,-22 -25,9 14,-7 13,-5 16,-5 29,-8l170 -42c78,-21 153,-42 227,-58 47,41 21,51 109,60l17 217 28 259c-12,10 17,19 -15,8l26 19c-13,10 10,2 -29,9l23 10c9,145 29,301 44,445 13,131 45,341 39,460l13 -3 -88 -904 719 179c11,40 14,53 28,91l-276 285c42,0 14,13 51,-22l233 -255c35,15 40,17 80,29 3,17 100,903 89,938l-25 28c-2,2 -5,4 -7,5 -1,1 -4,3 -6,5 -47,-16 -94,-47 -141,-49 60,28 122,40 139,72 26,47 -1,35 56,55 47,17 108,150 134,198 15,27 25,42 41,69 14,23 33,50 29,68l-862 124c-43,-21 -8,-21 -74,-47l-103 -762 -19 1c25,102 68,483 88,634 17,126 34,114 -27,180l-992 -4 0 25 999 -3 5 30c34,17 45,17 93,9l49 61c-11,-32 -23,-28 -38,-53 -16,-27 -1,-18 3,-62l885 -125c49,45 72,138 115,165 -5,-48 -63,-120 -87,-170l289 -44 -38 3 -258 35c-59,-116 -115,-195 -174,-298 -28,-50 -8,-52 0,-123 -27,-11 -25,-16 -54,-23l0 -37 -91 -905c54,-32 59,-14 86,29 21,34 8,16 35,39 27,23 85,112 138,157 39,34 2,16 70,79 19,18 16,22 31,43 24,31 15,11 38,35 17,16 18,27 31,43 20,25 17,11 38,35 14,15 18,29 31,44 20,22 16,7 39,35 8,11 7,14 15,23 15,17 1,17 22,11l7 -6c-4,-19 -9,-29 -23,-49l-494 -561 33 -51c184,15 389,49 573,74l424 55c49,6 117,-1 91,45l71 5c10,-40 14,-62 -43,-79 -7,10 -17,21 -27,33l-406 -54c-103,-9 -632,-70 -686,-93 -20,-101 -45,-88 -89,-117 -27,-18 -1,11 -17,-15l14 -772c0,-307 -2,-175 41,-244 15,-24 6,-47 0,-67 -63,-28 -54,0 -91,2z"/>
   <path class="fil0" d="M6497 3527c-3,48 8,12 -26,42 32,-12 8,-12 49,-18 21,42 30,54 60,80l451 515c-9,16 -14,21 -21,40 -7,21 -3,24 -11,47l-461 69 471 -61 6 26c8,9 44,-22 11,28l40 25c1,1 4,7 5,5 1,-2 4,4 5,5 -18,84 -62,227 -107,371l1 0 98 -326c15,-48 5,-38 42,-46 114,-11 148,-127 74,-194l-16 -14c0,-1 -2,-1 -3,-3l-102 1 -18 5c-25,-28 -42,-58 -66,-79 -25,-22 -16,-10 -35,-38 -17,-24 -10,-19 -29,-35l-130 -148c-25,-23 -16,-10 -36,-38 -15,-23 -11,-19 -29,-36l-193 -219 -23 -10 -7 6z"/>
   <path class="fil0" d="M736 4701l-33 -476c100,-26 12,-115 12,-115l321 -1156c88,-22 35,-50 119,-28 45,11 89,24 136,31 -13,-15 -37,-19 -59,-24 -207,-47 -87,-21 -154,-94 -150,3 -58,110 -58,110 8,24 -33,142 -43,177l-267 970c-24,45 -35,1 -67,57 -8,65 19,49 50,85l31 463 12 0z"/>
   <path class="fil0" d="M4255 1144c-3,75 15,103 69,128 92,17 125,-14 145,-82 9,-66 -29,-117 -85,-127 -76,-13 -103,33 -129,81z"/>
   <path class="fil0" d="M5158 3551l-13 3c-39,4 -39,23 -42,65l9 24 -32 20c43,-29 20,-27 76,-4l19 -1 46 -35 83 40 -33 -28c-17,0 -37,1 -52,-18 -8,-13 -11,-38 -16,-55l238 -244c-22,6 -19,6 -42,30 -13,14 -19,20 -32,33 -23,25 -40,42 -63,66 -103,108 -78,106 -146,104z"/>
   <path class="fil0" d="M3091 1218c-4,50 -1,39 14,73 -17,30 -33,49 -51,80 15,-8 0,5 16,-11l45 -66 34 6 21 -8 51 76c-5,-34 -25,-50 -41,-78l20 -63c-49,-62 -61,-44 -109,-9z"/>
   <path class="fil0" d="M2348 2427c8,-5 4,-1 14,-12 3,-4 11,-15 12,-16 26,-29 -1,-13 37,-18 53,-7 55,-6 82,13 -33,-19 -18,-26 -11,-59l1 -10c-18,-70 -25,-19 -1,-85 -30,80 -105,-2 -106,86 -2,74 30,2 -28,101z"/>
   <path class="fil0" d="M1664 2055c11,15 9,11 18,22 54,9 58,-2 84,-28l-1 -51 -13 -11c-57,-30 -103,2 -88,68z"/>
   <path class="fil0" d="M3352 3897c-16,-40 -14,-10 -51,-52 7,-20 5,-13 15,-33 -27,26 -2,16 -39,20l-128 -111c-39,-31 -58,-52 -92,-66 8,22 -8,5 21,27l203 168c-1,2 -2,3 -3,7 -2,15 -9,6 -14,39 21,-37 12,-24 38,-39 13,27 25,31 50,40z"/>
   <path class="fil0" d="M3920 4163c22,-8 6,1 21,-10 6,-3 15,-13 20,-17 13,-13 19,-20 33,-32l187 -173c14,-22 7,1 9,-32 -49,51 -85,85 -133,129 -44,40 -107,87 -137,135z"/>
   <path class="fil0" d="M7377 3586c19,-29 20,-17 16,-58 -14,-12 -11,-12 -34,-20 -25,6 -33,-1 -39,29 -4,19 8,32 14,42l43 7z"/>
   <path class="fil0" d="M3759 4228c8,19 -1,7 15,22l11 8c13,12 6,4 15,17 -26,39 -150,145 -199,192l213 -182 51 33c-25,-52 -1,-9 -38,-44 28,-26 14,-6 28,-42 -23,16 -22,17 -41,29l-55 -33z"/>
   <path class="fil0" d="M2208 2594c25,-9 125,-137 140,-167 -28,13 -125,137 -140,167z"/>
   <path class="fil0" d="M3352 3897c9,22 -11,1 32,33 18,14 20,20 40,34 37,26 45,40 91,66 -15,-27 3,-5 -15,-22l-148 -111z"/>
   <path class="fil0" d="M3657 4146c-11,-25 -80,-74 -106,-88 1,3 3,4 4,8 2,4 4,6 6,8 10,10 2,2 17,14 25,21 47,44 79,58z"/>
   <path class="fil0" d="M3759 4228c-10,-23 -77,-72 -102,-82 11,24 77,72 102,82z"/>
   <path class="fil0" d="M1479 3471c19,-8 0,13 25,-19 8,-10 17,-26 28,-41 -13,6 -23,-6 -53,60z"/>
   <path class="fil0" d="M2650 3324c10,25 14,25 61,50 -13,-24 8,-5 -25,-31 -9,-7 -23,-14 -36,-19z"/>
   <path class="fil0" d="M2808 3452c-10,-23 -9,-20 -61,-50 8,15 2,25 61,50z"/>
   <path class="fil0" d="M1433 3527c24,-10 -4,18 26,-20 6,-9 14,-24 20,-36 -19,8 -7,-5 -27,20 -6,9 -14,23 -19,36z"/>
   <path class="fil0" d="M1386 3582c20,-7 7,5 27,-20 7,-8 14,-23 20,-35 -23,9 2,-17 -26,20 -6,8 -15,24 -21,35z"/>
   <path class="fil0" d="M1663 3249c-16,7 -6,-20 -51,63l31 -28c6,-8 15,-23 20,-35z"/>
   <path class="fil0" d="M1663 3249c17,-7 2,11 26,-20 8,-11 14,-21 20,-35 -23,9 3,-18 -26,20 -6,8 -15,24 -20,35z"/>
   <path class="fil0" d="M1340 3638c19,-8 8,4 26,-20 7,-9 15,-24 20,-36 -20,9 1,-14 -25,21 -9,11 -14,20 -21,35z"/>
   <path class="fil1" d="M800 2694c48,-6 1035,-473 1193,-552 12,-6 27,-14 38,-19l46 -4c4,15 14,-19 1,17 -5,16 1,3 -10,13 35,25 -40,0 9,-1l20 1c-34,71 -301,815 -307,864 -57,0 -68,14 -94,39l-244 -80 -4 -30c-22,41 -36,18 -164,-22 -93,-30 -471,-149 -508,-171 -1,-39 7,-37 20,-51 0,-1 3,-2 4,-4zm-747 -1246l0 -12c1,-5 3,-12 6,-24 46,68 -81,32 157,84l612 134c37,-34 14,-77 156,-71l130 -306c20,-22 107,-220 108,-249 2,-2 4,-7 5,-6l218 -476c5,-9 5,-10 11,-18 9,-12 5,-8 14,-16l2 8 -120 267 50 51 -43 -44c-17,13 -3,-5 -21,23 -3,5 -11,25 -14,32 -9,22 -17,37 -26,57 -19,42 -42,87 -54,131l-251 553 57 64 745 -222 -1 -72 29 -36 -40 -56c25,29 30,62 70,37 14,-37 -233,-719 -255,-838l8 0 267 829c40,-4 64,-6 95,19 15,15 30,32 42,47 54,-16 201,-64 243,-94 -7,-22 3,-8 -17,-32 6,20 7,13 18,32l917 -334c4,-56 -3,-109 59,-137 64,-29 107,15 146,25 43,-30 88,-54 129,-83l320 -205c21,-12 47,-23 64,-42 -13,-40 -64,-97 -68,-138 1,2 4,2 4,4 1,3 4,4 5,4l32 51c15,28 26,45 37,72l519 -327c28,-17 54,-37 82,-52 8,8 44,-23 12,27 -117,60 -540,352 -595,365 11,41 125,223 152,271 26,45 142,231 147,267 -2,-1 -4,-6 -5,-4l-68 -107c-21,-38 -54,-87 -71,-124 -55,-91 -112,-207 -170,-285 -91,55 -169,111 -257,162 -78,46 -175,122 -259,165l6 69c72,33 168,33 206,60 -47,2 -156,-27 -202,-43 -36,31 -40,66 -107,74l16 891c41,3 371,-48 413,-62l554 -86c13,-52 20,-60 83,-54 46,44 41,110 -56,103 -43,-52 -32,-35 -217,-6 -85,14 -169,27 -255,40 -172,27 -347,57 -521,83l11 686c2,108 77,7 105,-5l-65 57c5,43 -2,6 10,17 -3,34 -6,58 -36,70 -31,13 -39,-1 -66,-14 -12,-79 -27,-64 -104,-104 -49,-25 -93,-53 -145,-69l-812 -415c-29,26 -47,25 -83,38l-312 868c11,10 26,30 35,37 6,64 0,38 -13,81 -15,48 -2,12 8,57l-23 -35c-83,16 -59,3 -115,-20l-8 -58 -274 -89c-12,20 -45,68 -64,79 15,-18 10,-10 20,-29 20,-27 23,-21 39,-54l-641 -208 -50 45c4,27 8,46 14,72l21 56c-5,42 50,299 68,334l74 333c40,-2 14,8 34,-11 13,17 -7,18 20,11l-16 14 0 41c-26,17 -9,17 -53,15 -12,-14 -12,-12 -20,-34 -38,-60 -112,-58 -136,-106 52,23 105,70 155,79 4,-40 -127,-637 -147,-674l-28 -130c-83,-29 -61,-26 -83,-10 15,-39 -4,-47 -2,-107 19,-11 12,-8 23,-31 4,13 5,-1 12,-7 57,-4 43,-23 60,-86l206 -803c-106,-58 -46,-55 -111,-31 42,-59 23,-3 17,-106l-384 -79 -383 -86c-6,-16 -10,-23 -11,-29zm2160 614c176,-32 938,-158 1079,-170l2 723c-39,23 -25,23 -75,-4l-962 -488c-46,-22 -46,-13 -44,-61zm812 -144l-230 37c-71,14 -553,102 -589,85 -1,-37 -1,-18 16,-38l67 -73c31,-35 55,-63 86,-98 32,-35 70,-59 100,-94 29,-33 57,-74 93,-94 12,-42 49,-61 79,-85l157 -176c34,-36 26,-8 87,-79 46,-54 102,-130 161,-171 57,-41 106,-121 158,-171l67 24 9 573 4 320 -265 40zm-1491 -78l3 31c62,6 203,64 267,86 82,28 178,65 257,86l2 50c-92,51 -216,105 -318,151l-912 426c-10,5 -12,6 -18,11 -15,10 -9,6 -15,13l-61 -20 67 -87c-73,34 -30,71 -103,79l234 -887c24,-7 47,-11 68,-26 16,-11 12,-8 24,-22 3,-5 9,-13 12,-17l401 119c24,4 7,5 14,-15 -66,5 -332,-100 -407,-125l2 -43c24,-16 688,-217 747,-227 26,33 18,67 135,65l170 504c-7,7 -15,15 -23,24 -20,18 2,4 -27,23l-401 -140c-121,-42 -70,-15 -118,-59zm476 -497c49,-12 110,-38 156,-55 107,-40 61,-11 134,-50 67,-35 217,-80 297,-110l519 -192c77,-31 64,-16 75,-9 3,30 -83,119 -111,141 -110,84 -101,127 -231,231l-152 171c-28,31 -46,32 -74,63 -72,80 -108,135 -190,199 -62,50 -120,155 -192,205 -33,23 -36,42 -64,62l-61 -13 -169 -502c47,-44 70,-45 63,-141z"/>
   <path class="fil1" d="M1398 -12c13,63 58,111 81,168 81,-20 71,-13 147,-2l80 -166 3 0c-31,60 -72,123 -82,178 45,15 25,31 67,21 -11,6 -8,4 -15,10 8,25 20,48 29,77l3 9 -1 26c-22,69 -43,111 -104,134l-8 0c-47,9 -64,3 -106,-2l-20 55 -2 -8 15 -57c-45,-21 -71,-50 -80,-107 -84,7 -153,21 -235,32 -50,7 -88,4 -120,28 -61,47 -27,5 -75,28 -19,9 -208,206 -259,243 48,-79 235,-199 262,-271l-572 84c-105,16 -100,-7 -127,83l-38 14c-39,4 -38,-14 -62,67 -23,78 -78,237 -126,381l0 -22 23 -67c38,-118 78,-238 115,-355 -9,-9 -38,-40 -45,-46 -4,-54 -2,-33 11,-73 9,-25 9,18 6,-27 -2,-17 -6,-12 -12,-27 14,37 12,25 52,21 33,-3 53,2 77,11 4,23 4,16 14,43 88,0 389,-52 512,-70l172 -35c-20,-24 -39,-28 -61,-44 124,66 48,-19 129,30 33,20 32,11 91,1 89,-14 178,-27 264,-39 0,-50 17,-80 28,-118 -25,-16 -22,-10 -39,-35l46 32 38 -28c-20,-52 -48,-105 -85,-148l-10 -17c-1,-4 -3,-8 -5,-12l24 0zm-1345 1693l0 -33 249 411c33,-11 35,-17 66,-35 -22,29 -35,25 -57,51l176 296c34,56 162,252 172,297 -7,6 -8,20 -12,7 -30,-70 -329,-533 -353,-594l-10 -3c-18,-45 -50,-92 -75,-132l-156 -265zm0 -180l0 -53c1,6 5,13 11,29 -4,9 -8,17 -11,24zm0 -65l0 -64c5,10 6,16 6,40 -3,12 -5,19 -6,24zm0 -137l0 -5 236 -228c-5,18 -1,8 -12,23l-224 210z"/>
   <path class="fil1" d="M3612 -12c7,13 13,24 17,32 15,27 25,43 41,70 14,22 34,49 29,67l-862 124c-43,-21 -8,-21 -74,-47l-33 -246 -16 0c6,47 11,88 15,119 17,126 34,114 -27,180l-991 -4 -1 26 999 -4 5 30c34,17 45,18 93,9l49 61c-11,-31 -23,-28 -38,-53 -16,-27 -1,-17 3,-61l885 -125c50,44 72,138 115,164 -5,-47 -63,-120 -87,-169l289 -45 -38 3 -258 35c-32,-63 -63,-115 -94,-166l-21 0z"/>
   <path class="fil1" d="M4500 -12c-1,3 -3,7 -4,12 -7,21 -4,25 -12,47l-461 69 471 -61 6 27c8,8 44,-23 12,27l39 25c1,1 4,7 5,5 1,-1 4,4 5,6 -33,151 -151,501 -207,690 -12,40 -23,75 -34,114 -6,18 -11,37 -17,56 -32,107 -64,24 -87,7 6,35 42,67 -9,74 -14,2 -82,-17 -98,-21 -68,-17 -135,-30 -201,-50 -76,-14 -246,-69 -310,-67 2,1 5,1 6,4 0,2 4,2 5,3 49,22 203,43 266,69l298 69c64,14 38,9 53,65 25,7 37,12 62,18l39 -39c11,-83 -15,-54 -29,-96l255 -852c15,-48 5,-38 42,-45 94,-10 134,-91 103,-156l-198 0z"/>
   <path class="fil1" d="M53 2377l34 212c9,-40 -17,-186 -34,-282l0 70zm0 -139c17,-5 19,-7 40,-20l32 -26c2,-3 3,-5 5,-8l12 -16c-61,13 -58,37 -89,47l0 23z"/>
   <path class="fil1" d="M225 3386l-33 9c-47,57 -18,124 52,99l30 -19c2,-73 -27,-53 -11,-96l-11 17 -27 -10z"/>
   <path class="fil1" d="M2105 3548c-16,28 -19,32 -24,70 26,28 17,38 78,34 37,-35 35,-41 29,-87 -42,-22 -34,-17 -83,-17z"/>
   <path class="fil1" d="M1456 1818c-7,20 10,19 -14,15l-2 56c41,23 85,35 97,-18l-3 -31 -2 -53c-26,15 -80,10 -76,31z"/>
   <path class="fil1" d="M225 3386l27 10 11 -17c17,-38 26,-30 31,-74 -31,4 -31,4 -61,-14 -45,-28 -23,-24 -23,-24l15 119z"/>
   <path class="fil1" d="M477 870c-17,29 -68,74 -97,100 -8,7 -14,11 -20,18 -21,25 -4,1 -17,30 62,-42 86,-94 148,-125 23,-60 131,-106 157,-172 -55,37 -132,136 -171,149z"/>
   <path class="fil1" d="M4854 1013l-3 24c29,23 6,30 65,20 28,-41 20,-40 -8,-74l-36 1 -18 29z"/>
   <path class="fil1" d="M3270 3248l-51 -10c-13,11 -29,17 -26,46 3,31 25,34 63,27 18,-32 12,-23 14,-63z"/>
   <path class="fil1" d="M4132 2482c5,35 -9,10 14,37 33,12 39,5 61,-8 3,-28 -1,-41 -9,-61l-46 0 -20 32z"/>
   <path class="fil1" d="M1244 42c8,20 -1,7 15,22l11 8c13,12 6,4 15,17 -26,39 -150,146 -199,193l213 -182 51 33c-25,-52 -1,-10 -38,-45 28,-26 14,-6 28,-42 -22,16 -22,17 -41,30l-55 -34z"/>
   <path class="fil1" d="M294 3305c-5,44 -14,36 -31,74l40 -56c45,15 10,18 63,17 -7,-6 -9,-10 -19,-16 -27,-15 -2,-3 -30,-11l16 -40c-2,2 -5,2 -6,5l-33 27z"/>
   <path class="fil1" d="M1626 1683c39,-18 68,-62 94,-102 -38,18 -68,62 -94,102z"/>
   <path class="fil1" d="M1078 2288c26,-9 -4,17 28,-18 7,-6 14,-18 20,-26 17,-22 31,-33 44,-58 -24,7 -5,-8 -29,17 -5,6 -13,19 -19,27 -17,22 -31,33 -44,58z"/>
   <path class="fil1" d="M1170 2186c27,-9 -4,17 29,-17l68 -89c-30,13 -14,-3 -53,48 -17,22 -30,33 -44,58z"/>
   <path class="fil1" d="M986 2389c27,-9 -5,18 28,-17 6,-7 13,-18 20,-27 17,-21 30,-32 44,-57 -23,7 -7,-7 -29,17 -5,6 -13,19 -20,27 -16,21 -30,32 -43,57z"/>
   <path class="fil1" d="M1534 1784c36,-16 70,-64 94,-101 -37,17 -70,64 -94,101z"/>
   <path class="fil1" d="M804 2588c32,-15 3,7 30,-18l64 -84c-37,17 -67,61 -94,102z"/>
   <path class="fil1" d="M1719 1581c28,-13 4,5 29,-18l64 -84c-37,18 -68,63 -93,102z"/>
   <path class="fil1" d="M1354 1983c19,-6 9,2 25,-13 7,-6 14,-18 20,-26 16,-21 27,-29 41,-55 -19,8 -11,1 -26,15 -6,6 -14,18 -20,26 -15,20 -27,29 -40,53z"/>
   <path class="fil1" d="M1354 1983c-32,9 -68,65 -88,96 30,-14 3,7 29,-18l59 -78z"/>
   <path class="fil1" d="M986 2389c-27,8 -17,2 -45,39 -17,22 -26,30 -44,58 31,-14 3,7 29,-18l60 -79z"/>
   <path class="fil1" d="M1244 42c-6,-13 -31,-36 -57,-54l-21 0c24,23 61,48 78,54z"/>
   <path class="fil1" d="M7594 3461c23,-3 264,-113 525,-235l0 -19 -493 230c-9,5 -12,6 -18,11 -15,10 -9,6 -14,13l-62 -20 68 -87c-74,34 -30,71 -104,79l235 -886c24,-8 47,-12 68,-27 16,-11 12,-8 23,-22 4,-5 9,-13 13,-17l284 85 0 -9c-102,-32 -228,-80 -277,-97l2 -43c11,-7 132,-46 275,-90l0 -12 -275 82 -57 -64 250 -553c13,-44 36,-89 54,-131 9,-20 17,-35 26,-57l2 -5 0 -38 -99 216c0,-1 -3,4 -5,6 -1,29 -88,227 -108,249l-130 306c-141,-6 -119,37 -155,71l-613 -134c-237,-52 -110,-16 -157,-84 -9,39 -8,28 5,65l383 86 384 79c7,103 26,47 -16,106 64,-24 5,-27 110,32l-206 802c-16,63 -2,82 -60,86 -6,6 -8,20 -12,8 -11,22 -3,19 -22,30 -2,60 17,68 1,107 22,-16 1,-19 84,10l28 130c19,37 151,634 147,674 -51,-9 -103,-56 -155,-79 24,48 97,46 135,107 8,21 9,19 21,33 43,2 26,2 53,-15l-1 -41 16 -14c-27,7 -7,6 -19,-11 -20,19 5,9 -34,11l-75 -333c-18,-35 -73,-292 -68,-334l-21 -56c-5,-26 -9,-45 -14,-72l51 -45 552 179 0 -23c-12,-5 -26,-9 -41,-14 -93,-30 -472,-149 -508,-171 -1,-39 6,-37 19,-51 1,-1 3,-2 5,-4z"/>
   <path class="fil1" d="M6182 1438l-12 91c14,62 -7,305 -18,379l-520 -265 4 -39c-9,-42 -25,-52 -52,-77l-2 5c-27,-21 -11,9 -18,-38l12 -1149 23 -25c24,-24 -4,-7 29,-23l498 0c54,12 -25,42 116,107l-60 1034zm256 -1450l24 0c-89,32 -178,64 -262,92l-434 147c-26,9 -48,17 -76,26 -33,11 -50,13 -74,32l520 1c13,-17 38,-149 164,-92 46,20 30,26 78,-10l264 -196 46 0 -299 218c-45,35 -56,66 22,58l186 -27c84,-12 176,-27 259,-35l358 -51c-25,-37 -111,-80 -127,-117 49,20 77,59 120,92 44,34 111,11 176,2 62,-9 335,-37 365,-57 -17,-17 9,1 -17,-11 0,0 -19,-6 -20,-6 -17,-5 -37,-9 -52,-12l-221 -54 10 0c72,17 132,30 162,32 2,-12 7,-22 12,-32l-3 0c-4,8 -8,17 -11,28 2,1 6,0 7,4 1,3 5,3 7,4 36,16 103,31 141,29 -10,42 -11,8 2,42 -52,-11 -416,52 -509,62 18,33 68,51 80,80 -50,-19 -56,-49 -92,-66 -35,-16 -93,1 -133,7 -41,6 -244,29 -265,39l-483 65c-1,16 -2,38 -8,54 -7,15 -2,4 -11,17 -3,6 -8,9 -16,23l25 46c-25,-37 -9,-37 -52,-34 -10,11 -5,3 -7,24 -17,-19 -5,-21 -16,-9 -29,-4 -26,-23 -29,68 -1,33 -3,66 -5,99l-77 1352c56,15 147,70 206,101 51,27 160,91 210,101 -1,2 -1,4 -2,7l-11 21c-2,2 -5,4 -7,7 -9,-36 -9,-30 -46,-49l-148 -74c-60,-32 -144,-84 -204,-102l0 95c-12,-13 -4,3 -10,-20 0,-1 -2,-34 -2,-35l-1 -52c-178,-82 -348,-190 -524,-271 -14,10 -23,17 -41,24 -55,17 -14,0 -28,17l-19 -3c-26,-32 -40,-11 -53,-54 -12,-38 8,-70 15,-90l50 -16c7,-197 2,-401 2,-599l0 -555c-9,-44 14,-19 -20,-30 -1,-2 -3,-6 -3,-5 -1,2 -71,-90 39,-99l49 -22c-13,28 -13,12 -19,46 64,-6 245,-78 314,-101l296 -102c14,-8 9,-4 17,-12 35,0 134,-34 211,-62z"/>
   <path class="fil1" d="M6357 2380c69,-33 145,-86 213,-102 11,13 17,21 25,30l30 30c2,1 4,3 6,5 -23,72 -96,200 -132,272l-337 677c-31,61 -45,117 -75,118 -17,-41 16,-411 18,-457 7,-155 18,-311 28,-465l224 -108zm1762 -1737l0 5c-82,-162 -224,-385 -285,-519 -51,0 -50,-14 -71,14 10,-24 6,-23 2,-48 -13,-34 -12,0 -2,-42 3,-42 -11,-18 25,-25 44,-22 56,4 76,34 -13,110 -56,-2 56,209l111 188c1,20 46,109 88,184zm0 448l0 9c-51,7 -101,15 -155,23 -50,7 -88,4 -121,28 -60,47 -26,5 -74,28 -19,9 -209,206 -259,243 48,-79 234,-199 262,-271l-572 84c-105,16 -101,-7 -128,83l-38 14c-39,4 -37,-14 -61,67 -44,146 -201,584 -211,659l55 32 265 -257c-4,18 0,8 -11,23l-250 233 15 29c15,31 17,25 16,61 -9,39 -8,28 5,65 -9,20 -16,37 -24,48 -10,13 -9,9 -18,20 -15,17 -6,4 -18,22l299 492c33,-11 35,-17 66,-35 -22,29 -36,25 -58,51l176 296c34,56 162,252 172,297 -6,6 -8,20 -12,8 -30,-71 -329,-534 -353,-595l-9 -3c-19,-45 -51,-92 -75,-132l-219 -371 -44 7 -65 1 -32 -4c-48,76 -108,213 -151,300 -30,61 -143,257 -142,303l-24 29c-4,7 -10,20 -15,31l-147 296c-18,38 -56,83 -42,124 52,16 75,-46 130,-57l-111 70 6 28 -3 46c7,16 14,17 28,29 -67,-17 -21,-10 -71,10 -28,12 -55,11 -80,-7 -37,-29 -35,-101 10,-128l31 -11c20,-24 30,-381 35,-441 12,-148 18,-303 24,-449 -2,-2 -5,-3 -7,-3 -1,-1 -5,-2 -6,-3 -2,0 -5,-1 -7,-1 -1,-1 -4,-1 -5,-1 -2,0 -11,2 -15,2 24,-8 22,-7 45,-22 1,-73 20,-237 8,-294 7,11 3,-1 7,19 1,2 2,30 2,31l-10 239c79,-25 141,-76 224,-106l200 -104c1,-3 1,-6 1,-8 3,-59 -15,-63 5,-109 2,-3 5,-5 7,-7l11 -21c1,-3 1,-5 2,-7 9,-35 36,-53 79,-66 -42,-235 -387,-1572 -384,-1655 11,-12 -1,-10 16,9l224 943 160 696 67 2 125 -362c38,-118 78,-238 114,-355 -8,-9 -37,-40 -44,-46 -5,-54 -3,-33 11,-73 8,-25 9,18 5,-27 -1,-17 -5,-12 -12,-27 15,37 12,25 53,21 32,-3 53,2 76,11 5,23 5,16 14,43 89,0 390,-52 513,-70l172 -35c-21,-24 -40,-28 -61,-44 123,66 47,-19 129,30 32,20 32,11 91,1 63,-10 126,-20 188,-29z"/>
   <path class="fil1" d="M5081 2064l19 -2c-14,-27 -7,-31 13,-46 -21,-92 -7,-41 14,-93l-44 22c-30,-8 -18,-1 -24,-17l-77 -1121c99,-27 12,-116 12,-116l195 -703 -11 0 -190 689c-24,45 -34,1 -67,57 -7,65 20,49 51,85l74 1118c-28,18 -57,33 -43,79 8,26 21,27 36,32 46,15 38,-17 42,16z"/>
   <path class="fil1" d="M6523 3176c-28,57 -242,133 -271,196 44,-6 110,-58 153,-84l102 -64c13,-8 23,-17 37,-27l283 -175 53 334c12,-52 -35,-277 -44,-349 28,-6 26,-6 50,-22l32 -26c2,-3 4,-5 6,-8l11 -16c-69,14 -56,45 -104,50 -13,-128 -102,-559 -91,-636l-65 1 45 18c2,1 5,2 7,3l96 628c-57,22 -242,164 -300,177z"/>
   <path class="fil1" d="M5441 2558c16,38 5,80 0,130 -2,12 -6,63 -7,70 -11,41 3,20 -46,35 -13,70 -38,109 83,91 13,-45 2,-55 40,-76 22,-13 64,-25 71,-38l277 -129c16,-20 76,-43 102,-57 37,-18 80,-33 103,-60 -78,23 -161,99 -237,103 -6,13 0,6 -16,19l-343 164c-23,-48 -32,4 -22,-83 4,-40 3,-86 20,-110 27,-40 -3,26 6,-5 2,-8 -1,7 -6,-21 -8,-41 36,-401 43,-451 1,-25 2,-16 -3,-36 0,-2 -4,-2 -5,-8 0,-5 -4,-4 -6,-7 14,99 -36,361 -42,479 -16,-11 -14,13 -12,-10z"/>
   <path class="fil1" d="M5559 1692l21 5 99 374 -158 -18 38 -361zm-19 -3l-41 350c-1,92 -3,31 25,55l-1 -34 152 18c26,39 45,139 60,193 3,-48 -30,-145 -44,-187 39,-1 72,5 111,11 35,5 62,8 104,13 73,8 156,17 221,27l7 62c7,11 3,-1 7,19 1,2 2,30 2,31 6,-9 3,4 11,-24 12,-39 12,-158 11,-194 -12,-13 -4,3 -10,-20 0,-1 -2,-34 -2,-35l-17 74c-1,24 0,51 0,75 -46,5 -413,-39 -447,-57 -19,-41 -98,-342 -102,-391 -55,17 -14,0 -28,17l-19 -3z"/>
   <path class="fil1" d="M7018 4153l-33 9c-46,57 -18,124 52,99l30 -19c3,-73 -27,-53 -11,-96l-10 17 -28 -10z"/>
   <path class="fil1" d="M7631 479c-16,-41 -15,-11 -51,-52 6,-21 5,-14 15,-34 -27,27 -2,16 -40,20l-127 -111c-39,-31 -58,-52 -92,-65 8,22 -8,4 20,26l204 168c-1,3 -3,4 -3,7 -2,15 -9,6 -14,39 20,-37 12,-24 38,-38 13,26 25,31 50,40z"/>
   <path class="fil1" d="M7018 4153l28 10 10 -17c17,-38 26,-30 32,-74 -32,4 -32,4 -61,-14 -45,-28 -24,-24 -24,-24l15 119z"/>
   <path class="fil1" d="M7270 1637c-17,29 -67,74 -97,100 -7,7 -14,11 -19,18 -21,25 -4,1 -17,30 61,-42 86,-94 147,-125 23,-60 131,-106 158,-172 -56,37 -133,136 -172,149z"/>
   <path class="fil1" d="M8037 809c8,20 0,7 16,22l11 8c12,12 6,4 15,17 -27,39 -150,146 -200,193l214 -182 26 17 0 -17c-3,-3 -7,-6 -13,-12 6,-6 11,-10 13,-12l0 -19c-9,7 -12,10 -26,19l-56 -34z"/>
   <path class="fil1" d="M7631 479c8,21 -11,0 31,32 18,14 21,20 40,34 38,26 45,40 91,66 -14,-27 3,-5 -14,-22l-148 -110z"/>
   <path class="fil1" d="M7088 4072c-6,44 -15,36 -32,74l41 -56c44,15 9,18 62,17 -6,-6 -8,-10 -19,-16 -26,-15 -2,-3 -30,-11l16 -40c-2,2 -5,2 -6,5l-32 27z"/>
   <path class="fil1" d="M7871 3055c27,-9 -3,17 29,-18 6,-6 13,-18 20,-26 16,-22 30,-33 43,-58 -23,7 -5,-8 -28,17 -5,6 -14,19 -20,27 -17,22 -30,33 -44,58z"/>
   <path class="fil1" d="M7963 2953c28,-9 -4,17 29,-17l69 -89c-31,13 -14,-3 -54,48 -16,22 -30,33 -44,58z"/>
   <path class="fil1" d="M7779 3156c27,-9 -5,18 28,-17 7,-7 13,-18 20,-27 17,-21 31,-32 44,-57 -22,7 -6,-7 -28,17 -5,6 -14,19 -20,27 -17,21 -31,32 -44,57z"/>
   <path class="fil1" d="M7598 3355c31,-15 3,7 29,-18l65 -84c-38,17 -68,61 -94,102z"/>
   <path class="fil1" d="M8119 2768c-23,22 -46,56 -60,78 30,-14 4,7 29,-18l31 -41 0 -19z"/>
   <path class="fil1" d="M7779 3156c-26,8 -16,2 -44,39 -17,22 -27,30 -44,58 30,-14 3,7 29,-18l59 -79z"/>
   <path class="fil1" d="M7936 727c-11,-25 -81,-74 -107,-88 2,3 4,4 5,8 1,5 4,6 5,8 10,10 2,3 17,15 26,20 47,44 80,57z"/>
   <path class="fil1" d="M8037 809c-9,-23 -77,-72 -101,-82 10,24 77,72 101,82z"/>
   <path class="fil1" d="M5758 53c19,-8 -1,13 25,-20 8,-10 17,-25 27,-41 -12,7 -22,-5 -52,61z"/>
   <path class="fil1" d="M7087 34c-10,-23 -10,-21 -54,-46l-5 0c5,13 5,23 59,46z"/>
   <path class="fil1" d="M5711 108c25,-10 -3,18 26,-20 7,-8 15,-23 21,-35 -20,7 -8,-5 -27,19 -7,9 -14,24 -20,36z"/>
   <path class="fil1" d="M5665 164c19,-8 7,5 26,-20 7,-9 15,-24 20,-36 -23,10 3,-17 -26,20 -6,8 -15,24 -20,36z"/>
   <path class="fil1" d="M5619 219c19,-8 7,5 26,-20 7,-9 14,-24 20,-35 -20,8 1,-15 -26,20 -9,12 -13,20 -20,35z"/>
  </g>
  <g id="_1724803521632">
   <path class="fil0" d="M6238 6589l-16 0c-6,8 -11,16 -17,23 -13,-8 -26,-15 -39,-23l-47 0 8 5c21,13 48,24 65,42 -14,41 -65,98 -69,139 2,-2 4,-2 5,-4 0,-3 3,-4 4,-5l32 -50c16,-28 27,-46 38,-73l521 329c28,16 54,37 82,52 8,-9 44,23 12,-28 -117,-59 -542,-353 -598,-366 3,-8 10,-23 19,-41zm-2315 0l-12 0c-10,32 -17,57 -20,73l8 -1 24 -72zm-167 0l-15 0c2,4 4,6 8,11 9,12 5,8 14,17l2 -8 -9 -20z"/>
   <path class="fil0" d="M1055 6589l10 941 23 25c25,24 -4,7 29,23l501 0c53,-12 -26,-43 116,-107l-51 -882 12 0 41 715c2,33 4,66 5,99 3,92 -1,73 28,69 12,12 0,10 16,-9 3,20 -2,12 8,24 43,3 27,3 52,-35l-25 47c8,14 13,17 17,23 8,13 4,2 10,17 7,16 7,38 8,54l486 65c20,10 224,34 265,40 40,5 98,23 134,6 35,-16 42,-46 92,-65 -12,28 -63,46 -80,79 93,11 459,74 511,63 -14,34 -12,0 -3,42 -37,-2 -105,13 -141,29 -2,1 -6,1 -7,4 -1,4 -5,3 -7,5 9,28 19,41 28,69 -2,-25 -19,-44 -26,-74 -84,7 -420,99 -548,128 -31,7 -62,12 -91,21 -52,15 -26,5 -42,60 16,16 335,257 373,272l2 6 26 22c15,12 11,8 22,16 14,10 30,20 43,30 16,12 37,26 49,35l133 99c19,13 32,22 44,31l307 229c27,21 60,38 84,62 83,-67 79,-45 193,-43l218 -431c43,-83 200,-376 220,-440l113 -200 -25 -32c-5,-49 -1,-30 5,-76 -31,-18 -65,-56 -93,-82 -45,-42 -76,-59 -82,-97 37,40 159,161 198,178l-191 -395c39,55 174,365 191,380 33,13 64,11 85,46 -6,68 -3,61 -56,73 -39,10 -12,-12 -36,20l-395 773c-28,55 -132,243 -145,296l29 8c14,22 27,43 36,79l455 -121 592 -144c39,7 16,-1 30,9l-27 19 -1038 258 -6 61c-20,-11 -7,-4 -9,8 -2,47 -41,75 -74,99l-1 4c-93,7 -69,9 -152,-12l-5 -2c-37,-45 -32,-32 -60,-93l-8 -35 -1216 0 -1 -10 337 -1 259 0 622 -1 24 -73 -700 -518 -20 -15 -364 -270c-74,32 -90,31 -136,-32 -85,11 -392,92 -516,122 -32,7 -58,14 -89,22 -29,8 -52,11 -80,20 17,40 294,361 336,413 27,33 35,33 52,72 -21,-9 1,4 -16,-12l-334 -400c-6,-11 -52,-63 -63,-74 -21,-24 -27,-37 -45,-57 -22,-24 -29,-29 -43,-59 36,14 68,79 103,112l83 -18 469 -115c57,-14 140,-20 142,-54 -7,-34 15,-10 -25,-30l-105 -34c-47,-15 -92,-31 -138,-47 -62,-21 -238,-91 -288,-90 -9,-8 -4,-4 -17,-12l-297 -102c-70,-24 -252,-96 -316,-102 6,34 6,18 19,46l-49 -22c-111,-8 -40,-101 -40,-100 1,2 3,-3 3,-4 35,-11 12,14 21,-31l0 -557c0,-116 2,-235 2,-353l10 0zm1295 1084c-83,-8 -175,-23 -260,-35l-187 -27c-78,-8 -67,23 -21,59l412 301c31,-19 46,-25 93,-19 20,17 12,12 36,19l10 39 723 -176c15,-3 36,-7 52,-12 1,0 20,-6 21,-6 26,-12 -1,6 17,-11 -30,-20 -305,-48 -367,-57 -65,-9 -132,-33 -177,2 -43,33 -71,72 -120,92 16,-37 102,-80 127,-118l-359 -51zm-1245 -83c24,19 41,21 75,32 27,9 50,17 76,26l436 148c185,61 396,146 584,197l-406 -302c-48,-35 -32,-30 -78,-9 -126,57 -152,-75 -165,-92l-522 0z"/>
   <path class="fil0" d="M3156 6589l-9 0c56,48 109,96 123,132l-575 -85c-88,-13 -99,1 -116,-47l-145 0c-4,44 -2,27 11,66 9,25 9,-19 6,26 -2,17 -6,13 -12,27 14,-36 12,-25 53,-21 32,3 52,-2 76,-11 5,-22 4,-16 14,-43 89,1 391,53 515,70l172 35c-20,25 -39,29 -61,45 124,-66 48,19 130,-30 32,-20 32,-11 91,-1 89,14 178,27 265,39 0,50 17,81 28,118 -25,17 -22,11 -39,35l46 -31 38 28c-20,52 -48,105 -85,148l-10 17c-50,148 -261,468 -340,641 -51,0 -50,14 -72,-15 11,25 7,24 3,49 -14,34 -12,0 -3,42 4,43 -10,18 26,25 44,22 56,-4 76,-34 -13,-110 -56,2 56,-210l112 -189c2,-34 134,-275 160,-295 13,-64 59,-113 83,-171 81,21 70,14 146,3l115 239c-23,-80 -100,-173 -113,-251 45,-16 25,-31 67,-22 -11,-6 -8,-3 -15,-9 8,-26 20,-48 29,-78l3 -9 -1 -26c-22,-70 -43,-111 -105,-135l-8 1c-47,-10 -63,-4 -105,1l-21 -54 -2 8 15 57c-45,20 -71,50 -80,107 -84,-7 -154,-21 -236,-32 -50,-7 -88,-4 -121,-29 -60,-46 -26,-4 -74,-27 -10,-4 -58,-52 -111,-104zm-1163 0l-21 0c-100,412 -204,837 -203,883 12,12 0,10 16,-9l208 -874z"/>
   <path class="fil0" d="M5660 9669c-9,-54 7,-50 -38,-68 -10,-4 -19,-5 -33,-12 -24,-12 -15,-9 -19,-14 99,26 41,46 133,1l-16 -1001c-27,-16 -38,-7 -65,-29 -24,-19 -20,-30 -39,-47l-733 178 -48 506c56,18 50,38 59,77l9 33 511 205c-39,-1 -158,-56 -205,-70l-315 -130c-12,11 -35,28 -46,46l-74 1c-1,1 -17,9 -21,11 0,-46 -30,-34 -32,-115 -69,-11 -194,-62 -251,-52 -32,-28 -219,-66 -252,-70l-414 -105c2,-12 -11,-19 9,-8 90,16 390,111 450,104 2,1 5,3 7,4 1,1 4,3 6,4 41,21 -25,-9 14,7 13,5 16,5 29,8l171 43c79,20 154,41 228,57 47,-41 21,-51 109,-60l17 -218 28 -260c-11,-10 17,-19 -15,-8l27 -19c-14,-10 9,-2 -30,-9l24 -10c9,-145 29,-303 43,-447 13,-132 46,-342 39,-462l13 3 -88 908 723 -179c11,-41 14,-54 27,-92l-277 -287c43,1 15,-12 51,23l235 255c34,-14 39,-16 80,-28 3,-18 100,-906 89,-942l-25 -28c-2,-2 -5,-4 -7,-5 -1,-1 -4,-3 -6,-5 -48,16 -94,47 -141,49 60,-28 122,-40 139,-72 26,-47 -1,-35 56,-56 48,-17 108,-150 135,-198 15,-27 25,-43 41,-70 14,-22 34,-49 29,-67l-866 -125c-43,21 -7,21 -74,47l-103 765 -19 -1c24,-103 68,-485 88,-636 17,-127 35,-115 -27,-181l-995 4 -1 -26 1003 4 5 -31c34,-16 45,-17 94,-8l49 -62c-12,32 -23,29 -38,54 -16,27 -2,17 2,61l889 126c50,-45 72,-139 115,-165 -5,48 -63,120 -87,170l290 45 -38 -3 -259 -35c-59,116 -115,195 -174,298 -29,50 -9,53 -1,124 -26,11 -24,16 -54,23l0 37 -91 909c54,32 59,14 86,-30 22,-34 8,-16 35,-39 28,-23 86,-112 139,-158 39,-33 2,-15 70,-78 20,-19 16,-22 32,-43 23,-31 14,-12 38,-35 16,-17 17,-28 31,-44 20,-25 17,-11 38,-35 14,-15 17,-29 31,-44 20,-22 16,-7 39,-36 8,-11 7,-14 15,-22 15,-18 1,-18 22,-11l7 5c-4,20 -9,29 -23,50l-496 563 34 51c184,-15 390,-49 574,-74l427 -55c48,-7 117,1 91,-45l71 -5c9,40 14,62 -43,79 -8,-10 -17,-21 -27,-34l-408 55c-104,9 -635,70 -689,93 -20,102 -45,89 -89,117 -28,18 -1,-11 -17,16l14 774c0,309 -3,177 41,246 15,24 6,47 0,67 -63,28 -55,0 -92,-2z"/>
   <path class="fil0" d="M6285 7768c-3,-49 8,-12 -26,-42 32,12 9,11 50,18 20,-43 29,-55 59,-81l454 -517c-10,-16 -15,-21 -21,-40 -7,-21 -4,-25 -12,-47l-463 -69 473 61 6 -27c8,-9 44,23 12,-28l39 -25c1,-1 5,-6 5,-5 1,2 4,-3 6,-5 -19,-84 -63,-228 -108,-372l1 0 99 328c14,48 4,38 41,45 115,11 149,128 75,195l-16 14c-1,2 -3,2 -3,3l-102 -1 -19 -5c-25,28 -41,58 -65,79 -26,23 -17,10 -36,39 -17,24 -10,18 -30,35l-130 148c-25,23 -16,11 -35,39 -16,23 -11,19 -30,35l-193 220 -24 10 -7 -5z"/>
   <path class="fil0" d="M501 6589l-33 477c100,27 12,117 12,117l323 1160c88,22 34,50 119,28 45,-11 90,-24 137,-32 -14,16 -37,20 -59,25 -209,47 -88,21 -156,94 -150,-3 -58,-110 -58,-110 8,-25 -33,-143 -42,-178l-269 -974c-24,-45 -35,-1 -67,-57 -8,-65 19,-49 50,-85l31 -465 12 0z"/>
   <path class="fil0" d="M4035 10160c-4,-75 14,-104 68,-129 93,-16 126,14 146,83 9,66 -29,117 -85,127 -77,14 -104,-33 -129,-81z"/>
   <path class="fil0" d="M4940 7743l-13 -3c-38,-3 -38,-22 -42,-65l10 -24 -32 -20c43,29 20,27 76,4l19 1 46 35 83 -40 -33 28c-17,0 -37,-1 -51,19 -9,12 -12,38 -17,54l239 245c-22,-5 -20,-6 -42,-30 -13,-14 -19,-20 -32,-33 -23,-25 -40,-42 -64,-66 -103,-108 -78,-106 -147,-105z"/>
   <path class="fil0" d="M2866 10086c-5,-51 -2,-39 14,-74 -17,-30 -33,-49 -52,-80 15,8 1,-5 17,11l45 66 34 -6 21 8 51 -76c-5,34 -25,50 -41,78l20 64c-50,62 -61,44 -109,9z"/>
   <path class="fil0" d="M2120 8872c8,5 4,1 14,12 3,4 10,15 11,16 27,29 0,13 38,18 53,7 55,6 82,-13 -33,19 -18,26 -11,60l1 10c-18,69 -25,18 0,85 -31,-80 -106,1 -108,-87 -1,-74 31,-1 -27,-101z"/>
   <path class="fil0" d="M1433 9245c11,-14 9,-11 18,-22 54,-9 58,2 84,28l-1 52 -13 11c-57,30 -103,-2 -88,-69z"/>
   <path class="fil0" d="M3128 7396c-16,40 -15,11 -51,52 6,20 5,14 15,34 -28,-27 -2,-16 -40,-21l-128 112c-39,31 -58,52 -92,66 8,-22 -8,-5 20,-27l205 -169c-1,-2 -3,-3 -3,-7 -2,-15 -10,-5 -14,-39 20,37 11,24 38,39 13,-27 25,-31 50,-40z"/>
   <path class="fil0" d="M3698 7129c22,8 6,-1 21,10 6,3 15,13 20,18 13,13 19,19 33,31l188 174c14,22 7,-1 9,32 -49,-51 -86,-85 -134,-129 -44,-41 -107,-88 -137,-136z"/>
   <path class="fil0" d="M7169 7708c18,29 20,17 16,59 -15,11 -11,11 -35,19 -24,-5 -33,1 -38,-28 -4,-20 8,-32 13,-43l44 -7z"/>
   <path class="fil0" d="M3536 7064c8,-20 0,-7 16,-22l11 -9c12,-11 6,-4 15,-16 -27,-40 -151,-146 -201,-193l215 182 51 -33c-25,52 -1,9 -38,45 27,25 13,5 27,42 -22,-16 -21,-17 -40,-30l-56 34z"/>
   <path class="fil0" d="M1979 8704c26,9 126,138 141,168 -29,-13 -126,-137 -141,-168z"/>
   <path class="fil0" d="M3128 7396c9,-22 -11,-1 32,-33 18,-14 20,-20 40,-34 37,-26 45,-40 91,-66 -15,27 3,5 -14,22l-149 111z"/>
   <path class="fil0" d="M3434 7147c-11,24 -81,73 -107,87 2,-2 4,-3 5,-8 1,-4 4,-6 5,-7 10,-11 2,-3 17,-15 26,-21 48,-44 80,-57z"/>
   <path class="fil0" d="M3536 7064c-10,23 -77,72 -102,83 11,-25 78,-73 102,-83z"/>
   <path class="fil0" d="M1247 7823c19,8 0,-13 26,20 8,10 17,26 27,41 -12,-6 -23,6 -53,-61z"/>
   <path class="fil0" d="M2423 7971c10,-25 13,-25 62,-50 -14,24 7,6 -26,31 -9,7 -24,14 -36,19z"/>
   <path class="fil0" d="M2582 7842c-11,24 -10,21 -62,51 9,-15 2,-26 62,-51z"/>
   <path class="fil0" d="M1201 7768c24,10 -4,-19 26,20 7,8 15,23 20,35 -19,-7 -7,5 -26,-19 -7,-9 -15,-24 -20,-36z"/>
   <path class="fil0" d="M1154 7712c20,8 7,-5 27,20 7,9 14,24 20,36 -23,-10 2,17 -26,-21 -7,-7 -15,-24 -21,-35z"/>
   <path class="fil0" d="M1432 8046c-16,-6 -6,21 -51,-63l31 29c6,7 15,23 20,34z"/>
   <path class="fil0" d="M1432 8046c17,8 2,-11 26,21 9,11 14,21 20,35 -23,-10 3,18 -26,-20 -6,-8 -14,-25 -20,-36z"/>
   <path class="fil0" d="M1108 7656c19,8 7,-4 26,21 7,8 15,23 20,35 -20,-9 1,14 -26,-20 -9,-12 -13,-21 -20,-36z"/>
   <path class="fil1" d="M566 8604c48,6 1039,474 1197,554 12,6 28,14 38,19l46 4c5,-14 15,19 2,-17 -6,-16 0,-3 -10,-13 35,-25 -41,0 9,1l20 -1c-35,-71 -303,-818 -309,-868 -57,1 -68,-13 -94,-39l-245 81 -4 30c-22,-42 -36,-19 -164,22 -94,30 -473,149 -510,171 -1,40 7,38 19,52 1,0 4,2 5,4zm-595 1204l0 -15 240 -54 385 -79c7,-104 26,-47 -16,-106 65,24 5,27 111,-32l-207 -806c-16,-63 -2,-82 -60,-86 -7,-6 -8,-20 -12,-8 -12,-23 -4,-19 -23,-30 -2,-60 17,-68 1,-108 23,16 1,20 84,-10l29 -130c19,-38 151,-637 147,-676 -50,8 -103,56 -156,78 24,-47 98,-46 137,-106 8,-22 8,-20 20,-34 44,-2 27,-2 53,15l0 41 16 14c-27,-7 -7,-6 -20,11 -19,-19 6,-8 -34,-11l-74 334c-19,36 -74,294 -69,336l-21 56c-6,26 -9,46 -14,72l51 46 643 -209c-16,-34 -19,-28 -39,-54 -10,-20 -5,-12 -21,-29 20,10 53,59 65,79l275 -90 8 -58c56,-23 32,-36 116,-20l23 -35c-10,45 -23,9 -9,57 14,43 20,17 13,81 -8,7 -24,28 -34,37l312 872c37,13 55,12 84,38l816 -417c52,-16 96,-44 145,-69 78,-40 92,-25 104,-104 27,-14 36,-28 67,-15 29,13 32,37 36,71 -12,11 -5,-26 -11,17l66 58c-28,-13 -103,-114 -105,-6l-11 689c174,26 350,56 523,83 86,14 170,27 255,40 186,30 175,47 219,-6 97,-6 102,60 55,104 -62,6 -70,-2 -83,-55l-556 -86c-42,-14 -373,-65 -415,-62l-15 894c67,9 70,43 107,75 46,-16 155,-45 202,-43 -37,27 -134,27 -206,60l-6 69c84,43 182,119 260,166 88,52 166,108 258,163 58,-79 115,-195 171,-286 17,-38 50,-86 71,-125l68 -107c1,1 3,-3 5,-5 -5,36 -122,223 -148,269 -27,48 -141,230 -152,271 55,14 480,307 597,367 33,50 -4,19 -12,27 -27,-15 -53,-35 -82,-52l-521 -329c-11,27 -22,45 -38,73l-32 51c0,1 -4,1 -4,4 -1,2 -3,3 -5,4 4,-41 56,-98 69,-138 -17,-19 -43,-30 -65,-43l-321 -206c-41,-28 -86,-53 -129,-83 -39,10 -82,54 -147,25 -62,-28 -55,-81 -59,-137l-920 -336c-11,19 -13,13 -19,33 21,-25 10,-10 18,-32 -43,-31 -190,-79 -245,-95 -11,15 -26,32 -41,47 -32,25 -56,24 -96,20l-269 831 -7 1c22,-119 270,-804 256,-841 -41,-25 -45,7 -70,37l39 -57 -28 -36 0 -72 -747 -223 -58 64 252 556c13,44 36,89 55,131 8,20 17,35 26,57 2,7 10,27 14,33 18,28 4,9 21,22l43 -44 -50 51 120 269 -2 8c-9,-9 -5,-4 -14,-16 -6,-8 -6,-9 -11,-18l-219 -479c-1,2 -3,-3 -5,-5 -1,-30 -88,-229 -108,-251l-131 -307c-142,6 -119,-36 -156,-71l-615 134 -8 2zm2013 -570c177,32 942,159 1084,171l2 -726c-40,-23 -26,-22 -75,4l-967 490c-46,22 -45,13 -44,61zm816 145l-232 -37c-71,-14 -554,-103 -591,-85 0,36 -1,18 17,38l67 72c30,36 55,64 86,99 32,35 70,59 101,94 28,33 57,75 93,95 11,42 49,61 79,85l157 177c35,36 26,9 88,79 46,54 103,131 162,172 57,41 106,122 158,172l67 -25 9 -575 4 -321 -265 -40zm-1497 78l3 -31c61,-5 204,-64 267,-86 83,-29 179,-66 258,-86l2 -51c-92,-51 -217,-105 -319,-151l-916 -429c-9,-4 -11,-5 -18,-10 -14,-10 -9,-6 -14,-13l-62 20 68 87c-74,-34 -30,-71 -104,-79l235 890c24,7 48,12 68,26 17,12 13,9 24,23 4,4 9,12 13,17l402 -120c24,-4 8,-5 14,15 -66,-4 -333,100 -409,125l3 44c24,16 690,218 749,228 27,-34 19,-68 136,-65l171 -506c-7,-8 -15,-16 -24,-24 -19,-18 3,-5 -26,-23l-403 140c-122,42 -70,15 -118,59zm477 499c49,12 110,39 157,56 107,40 61,10 134,49 68,36 219,81 299,111l520 193c78,31 65,15 76,8 3,-29 -83,-118 -112,-140 -110,-85 -101,-128 -231,-232l-153 -172c-29,-31 -46,-32 -74,-64 -72,-80 -109,-135 -190,-200 -63,-49 -122,-155 -194,-205 -32,-23 -36,-42 -64,-62l-61 13 -170 504c48,44 70,45 63,141z"/>
   <path class="fil1" d="M1547 11682c-6,-5 -10,-10 -14,-14 1,5 2,10 4,14l10 0zm109 0l-4 0 -112 -231c21,31 72,138 116,231z"/>
   <path class="fil1" d="M967 11682l38 -64c2,-34 134,-276 160,-296 13,-64 59,-113 83,-170 81,20 70,13 146,2l116 239c-24,-80 -101,-173 -114,-251 46,-16 25,-31 67,-21 -11,-6 -7,-4 -15,-10 8,-25 20,-48 29,-78l3 -9 -1 -26c-22,-69 -43,-111 -105,-135l-7 1c-48,-9 -64,-4 -106,2l-21 -55 -2 8 15 57c-45,21 -71,50 -80,107 -84,-7 -154,-21 -235,-32 -51,-7 -89,-4 -121,-28 -61,-47 -27,-5 -75,-28 -20,-9 -210,-207 -260,-244 48,80 235,199 263,272l-575 -85c-105,-16 -101,7 -128,-83l-38 -14c-16,-2 -26,0 -33,-3l0 152c30,2 50,-3 72,-12 5,-22 5,-16 14,-43 89,1 391,53 515,71l172 35c-20,24 -39,28 -61,44 124,-66 48,19 130,-30 32,-20 32,-11 91,-1 89,15 178,27 265,40 0,49 17,80 28,118 -25,16 -22,10 -39,35l46 -32 39 28c-21,52 -49,105 -86,148l-10 17c-29,87 -114,233 -195,374l15 0zm-996 -1522l0 -10 70 65c11,15 7,5 12,24l-82 -79zm0 -763l0 -40 2 -3c24,-39 57,-87 75,-132l9 -3c24,-61 325,-526 355,-597 4,-12 5,2 12,8 -10,45 -139,241 -173,298l-177 297c23,26 36,22 58,52 -31,-18 -33,-25 -66,-36l-95 156z"/>
   <path class="fil1" d="M3253 11682c3,-44 4,-73 2,-79l-25 -28c-2,-2 -5,-4 -7,-5 -1,-1 -4,-3 -6,-5 -48,16 -94,47 -141,49 60,-28 122,-40 140,-72 25,-47 -2,-35 56,-56 47,-16 107,-150 134,-198 15,-27 25,-42 41,-70 14,-22 34,-49 29,-67l-866 -125c-43,22 -7,21 -74,47l-82 609 -14 0c23,-157 48,-375 62,-481 17,-127 35,-115 -27,-180l-995 3 -1 -26 1003 4 5 -30c35,-17 46,-17 94,-9l49 -61c-11,31 -23,28 -38,53 -16,27 -2,18 3,62l889 125c49,-45 71,-138 114,-165 -5,48 -63,120 -87,170l290 45 -37 -3 -260 -35c-59,116 -115,195 -174,298 -29,51 -9,53 -1,125 -26,10 -24,15 -54,22l0 37 -5 46 -17 0z"/>
   <path class="fil1" d="M4004 11682l293 -333c-10,-17 -15,-22 -21,-41 -7,-21 -4,-24 -12,-47l-463 -69 474 61 5 -27c8,-8 45,23 12,-27l39 -25c1,-1 5,-7 6,-6 0,2 3,-3 5,-5 -33,-152 -152,-504 -209,-693 -12,-40 -22,-75 -34,-114 -5,-18 -10,-37 -16,-57 -33,-107 -65,-24 -88,-7 6,-35 42,-66 -9,-74 -14,-2 -82,17 -98,21 -68,18 -136,30 -202,50 -76,15 -247,70 -312,68 2,-2 5,-1 6,-4 1,-3 5,-3 6,-3 49,-23 204,-43 266,-70l300 -68c64,-15 38,-10 54,-66 24,-7 36,-12 61,-18l39 39c12,83 -14,55 -29,97l257 855c15,48 4,38 41,45 115,11 149,128 75,195l-16 14c0,2 -2,2 -3,3l-102 -1 -19 -5c-24,28 -41,58 -65,80 -26,22 -17,10 -36,38 -17,24 -10,19 -29,36l-131 147c-5,6 -9,9 -12,11l-33 0z"/>
   <path class="fil1" d="M-12 7909l-17 -5 0 -108c10,-2 22,-1 36,4l30 20c3,73 -27,53 -11,96l-10 -17 -28 10z"/>
   <path class="fil1" d="M1876 7746c-17,-28 -20,-31 -24,-69 26,-29 16,-39 78,-35 37,35 35,42 29,87 -42,23 -34,18 -83,17z"/>
   <path class="fil1" d="M1224 9483c-6,-20 10,-19 -14,-15l-2 -56c41,-23 85,-35 98,18l-3 31 -3 53c-26,-14 -80,-10 -76,-31z"/>
   <path class="fil1" d="M603 11598c-16,41 -15,11 -51,52 6,20 5,14 14,32l-1 0c-24,-24 -1,-14 -38,-19l-21 19 -19 0 45 -37c-1,-2 -3,-3 -3,-7 -2,-15 -9,-5 -14,-38 20,37 12,24 38,38 13,-26 25,-31 50,-40z"/>
   <path class="fil1" d="M-12 7909l28 -10 10 17c17,39 26,31 32,75 -32,-5 -32,-5 -61,14 -14,8 -22,14 -26,18l0 6c1,0 2,0 2,0l15 -120z"/>
   <path class="fil1" d="M241 10435c-17,-29 -68,-74 -97,-101 -8,-7 -14,-10 -20,-17 -21,-26 -4,-1 -17,-31 62,43 86,95 148,126 23,60 131,106 158,173 -55,-38 -133,-137 -172,-150z"/>
   <path class="fil1" d="M1173 11332c22,7 6,-1 22,9 5,4 14,13 19,18 14,13 19,19 33,32l188 174c14,22 7,-2 9,31 -49,-51 -86,-85 -134,-129 -44,-40 -107,-88 -137,-135z"/>
   <path class="fil1" d="M4636 10292l-3 -25c29,-23 6,-30 65,-20 28,41 20,40 -8,75l-37 -1 -17 -29z"/>
   <path class="fil1" d="M3045 8048l-51 10c-13,-12 -29,-17 -26,-46 3,-32 25,-35 64,-28 17,32 11,24 13,64z"/>
   <path class="fil1" d="M3911 8817c5,-36 -9,-10 14,-37 33,-12 39,-6 61,7 3,29 -1,42 -9,62l-47 0 -19 -32z"/>
   <path class="fil1" d="M1011 11266c8,-19 0,-7 16,-22l11 -8c12,-12 6,-4 15,-17 -27,-39 -151,-146 -200,-193l214 183 51 -34c-25,52 -1,9 -38,45 27,26 13,6 28,42 -23,-16 -22,-17 -41,-29l-56 33z"/>
   <path class="fil1" d="M603 11598c9,-22 -11,0 32,-33 18,-14 20,-20 40,-34 38,-26 45,-40 91,-66 -15,27 3,5 -14,22l-149 111z"/>
   <path class="fil1" d="M58 7991c-6,-44 -15,-36 -32,-75l41 57c45,-16 9,-19 62,-18 -6,6 -8,10 -19,16 -26,15 -2,4 -30,12l17 39c-3,-1 -5,-1 -6,-5l-33 -26z"/>
   <path class="fil1" d="M1395 9619c39,18 68,62 94,102 -38,-17 -68,-62 -94,-102z"/>
   <path class="fil1" d="M844 9012c27,8 -3,-17 29,17 6,7 14,18 20,27 17,22 31,33 44,58 -24,-7 -5,8 -29,-17 -5,-6 -13,-19 -20,-27 -16,-22 -30,-33 -44,-58z"/>
   <path class="fil1" d="M937 9114c28,9 -4,-18 29,17l69 90c-31,-14 -15,3 -54,-49 -16,-22 -30,-33 -44,-58z"/>
   <path class="fil1" d="M752 8910c27,9 -5,-18 28,17 7,7 13,18 20,27 17,21 31,32 44,58 -22,-7 -6,6 -28,-18 -5,-5 -14,-18 -20,-26 -17,-22 -31,-33 -44,-58z"/>
   <path class="fil1" d="M1302 9517c36,17 70,64 94,102 -36,-17 -70,-64 -94,-102z"/>
   <path class="fil1" d="M570 8711c31,14 3,-7 30,18l64 84c-37,-17 -67,-62 -94,-102z"/>
   <path class="fil1" d="M1488 9721c28,13 5,-5 29,18l65 84c-38,-17 -69,-62 -94,-102z"/>
   <path class="fil1" d="M1122 9318c19,6 9,-2 25,12 7,7 14,18 20,27 16,21 27,29 41,55 -19,-8 -11,-1 -26,-15 -6,-6 -14,-18 -20,-26 -15,-20 -27,-30 -40,-53z"/>
   <path class="fil1" d="M1122 9318c-32,-10 -69,-66 -89,-97 30,14 4,-6 29,18l60 79z"/>
   <path class="fil1" d="M752 8910c-27,-8 -16,-2 -45,-39 -17,-23 -26,-30 -44,-58 31,14 3,-7 29,18l60 79z"/>
   <path class="fil1" d="M909 11349c-11,24 -81,73 -107,88 2,-3 4,-4 5,-8 1,-5 4,-6 5,-8 10,-11 2,-3 17,-15 26,-20 48,-44 80,-57z"/>
   <path class="fil1" d="M1011 11266c-10,23 -77,73 -102,83 11,-24 78,-73 102,-83z"/>
   <path class="fil1" d="M7386 7834c23,3 265,113 528,236l0 19 -495 -232c-10,-4 -12,-5 -18,-10 -15,-10 -9,-6 -15,-13l-61 20 67 87c-74,-34 -30,-71 -104,-79l236 890c24,7 47,12 68,26 16,11 12,9 24,23 3,4 9,12 12,17l286 -85 0 9c-103,31 -230,80 -278,96l2 44c10,6 132,46 276,90l0 13 -277 -83 -57 64 251 556c13,44 36,89 55,131 9,20 17,35 26,57l2 5 0 39 -100 -218c0,2 -3,-4 -4,-5 -1,-30 -89,-229 -109,-251l-131 -307c-142,6 -119,-36 -156,-71l-614 134c-239,52 -112,17 -158,85 -10,-39 -9,-28 5,-66l384 -86 386 -79c6,-104 25,-47 -17,-106 65,24 5,27 111,-32l-207 -806c-16,-63 -2,-82 -60,-87 -6,-5 -8,-19 -12,-7 -11,-23 -3,-19 -23,-30 -2,-60 18,-68 2,-108 22,16 0,20 84,-10l28 -130c20,-38 152,-637 147,-676 -50,8 -103,56 -155,78 24,-47 98,-46 136,-107 8,-21 8,-19 21,-33 43,-2 26,-2 53,15l-1 41 16 14c-27,-7 -7,-6 -19,11 -20,-19 5,-9 -35,-11l-74 334c-18,36 -73,294 -69,336l-21 56c-5,26 -9,46 -14,72l51 46 555 -180 0 23c-12,5 -26,9 -42,14 -93,30 -473,149 -510,171 -1,40 7,38 20,51 0,1 3,3 4,5z"/>
   <path class="fil1" d="M5969 9865l-12 -92c14,-62 -7,-306 -18,-380l-523 266 4 39c-8,43 -25,53 -52,77l-2 -4c-27,21 -10,-9 -18,38l13 1153 23 25c24,24 -5,7 29,23l500 1c54,-13 -25,-43 116,-108l-60 -1038zm997 1817l-38 0 -221 -163c-73,33 -90,32 -136,-31 -85,10 -391,91 -516,121 -31,8 -58,15 -88,22 -30,8 -52,11 -81,20 2,6 10,17 21,31l-17 0c-12,-14 -24,-27 -28,-32 -21,-23 -27,-36 -45,-57 -22,-24 -30,-29 -43,-59 35,14 68,79 102,112l83 -18 470 -114c57,-14 140,-20 141,-54 -7,-34 15,-11 -25,-30l-105 -34c-46,-16 -91,-32 -138,-48 -62,-21 -238,-90 -288,-89 -8,-9 -3,-5 -17,-13l-297 -102c-70,-23 -252,-96 -315,-102 6,34 5,18 19,47l-50 -23c-110,-8 -39,-100 -39,-99 0,1 2,-3 3,-5 35,-11 11,14 21,-30l-1 -557c0,-199 5,-404 -2,-602l-50 -15c-7,-21 -27,-53 -15,-91 13,-43 27,-22 54,-54l18 -3c15,17 -27,0 28,17 19,7 28,14 42,24 176,-81 347,-189 525,-272l2 -52c0,-1 2,-35 2,-36 5,-23 -2,-6 9,-20l1 96c60,-19 145,-70 205,-102l148 -75c38,-19 38,-13 47,-49 2,3 5,5 6,7l12 21c1,3 1,5 1,7 -50,10 -159,74 -211,101 -59,32 -150,86 -206,102l78 1357c1,33 3,66 5,99 3,92 -1,73 28,69 12,12 -1,10 16,-9 3,20 -2,12 8,24 43,3 27,3 51,-34l-24 46c7,14 12,17 16,23 9,13 4,2 10,17 7,17 8,38 9,55l485 65c20,9 224,33 266,39 39,5 98,23 134,6 35,-16 41,-46 91,-65 -12,28 -62,47 -80,80 94,10 459,73 512,62 -14,34 -13,0 -3,42 -38,-2 -105,13 -141,30 -2,0 -6,0 -8,4 -1,3 -5,2 -7,4 9,29 20,41 28,69 -1,-24 -19,-44 -26,-73 -83,6 -420,98 -547,127 -32,8 -62,12 -91,21 -53,16 -27,5 -43,60 11,10 140,109 245,185zm-321 -576c-83,-8 -175,-24 -260,-36l-187 -27c-77,-8 -67,24 -21,59l413 301c30,-19 45,-25 92,-19 21,18 12,12 36,20l11 38 723 -175c15,-4 35,-8 52,-12 1,-1 20,-7 20,-7 26,-12 0,7 17,-11 -30,-19 -304,-48 -366,-57 -65,-9 -132,-32 -177,2 -43,33 -71,72 -121,93 17,-38 103,-81 128,-118l-360 -51zm-1245 -83c24,19 42,20 75,31 28,9 50,17 76,26l436 148c186,62 396,146 585,198l-406 -303c-48,-35 -32,-30 -78,-9 -127,57 -152,-75 -166,-92l-522 1z"/>
   <path class="fil1" d="M6144 8919c70,33 146,86 214,102 11,-12 18,-21 26,-29l30 -31c1,-1 4,-3 5,-5 -23,-72 -96,-201 -131,-272l-340 -681c-30,-61 -44,-117 -75,-118 -16,41 17,413 19,459 7,155 17,312 27,467l225 108zm1770 1744l0 -5c-83,162 -225,386 -287,521 -51,0 -50,14 -71,-14 11,24 6,23 3,48 -14,34 -13,0 -3,42 3,43 -11,19 25,25 45,23 56,-3 76,-34 -12,-110 -55,2 56,-210l113 -188c1,-20 45,-109 88,-185zm0 -450l0 -9c-52,-7 -101,-15 -156,-23 -51,-7 -89,-4 -121,-28 -61,-47 -27,-5 -75,-28 -19,-9 -210,-207 -260,-244 48,79 236,199 263,272l-574 -85c-106,-16 -101,7 -128,-83l-38 -14c-40,-4 -38,14 -62,-67 -45,-147 -202,-586 -211,-662l54 -32 267 259c-5,-19 -1,-9 -12,-24l-250 -234 14 -29c15,-31 18,-25 17,-61 -10,-39 -9,-28 5,-66 -9,-19 -16,-36 -25,-48 -9,-13 -8,-9 -17,-20 -15,-17 -7,-4 -18,-22l299 -494c34,11 35,18 67,36 -23,-30 -36,-26 -58,-52l176 -297c35,-57 163,-253 173,-299 -6,-5 -8,-19 -12,-7 -30,71 -330,536 -354,597l-10 3c-18,45 -51,92 -75,132l-220 373 -43 -7 -66 -1 -32 4c-49,-76 -109,-214 -152,-301 -30,-61 -143,-258 -142,-304l-24 -29c-5,-7 -10,-20 -16,-31l-147 -298c-18,-37 -57,-83 -43,-124 52,-16 76,46 131,57l-112 -70 7 -28 -3 -47c6,-15 13,-16 28,-29 -67,17 -21,11 -71,-10 -29,-12 -56,-11 -80,8 -38,29 -36,101 9,128l31 10c21,25 30,384 35,444 13,148 19,304 25,451 -2,1 -6,2 -7,3 -2,0 -5,2 -7,2 -1,1 -5,2 -6,2 -1,0 -5,0 -6,1 -2,0 -11,-3 -14,-3 23,8 22,7 44,23 2,73 21,237 9,295 6,-11 3,1 7,-19 1,-3 2,-30 2,-32l-11 -240c80,25 142,77 225,107l201 105c1,2 1,6 1,8 3,59 -15,63 6,109 2,3 5,5 6,7l12 21c1,3 1,5 1,7 9,35 36,53 80,67 -42,235 -389,1577 -386,1661 12,12 -1,10 16,-9l225 -947 161 -698 67 -3 125 364c39,118 79,239 115,356 -8,9 -38,41 -44,46 -5,54 -3,33 11,74 8,25 9,-19 5,26 -2,18 -5,13 -12,28 15,-37 12,-25 53,-22 32,3 53,-2 76,-11 5,-22 5,-16 15,-43 89,1 391,53 514,71l173 35c-21,24 -40,28 -61,44 124,-66 47,19 129,-30 33,-20 32,-11 91,-1 64,10 127,20 190,29z"/>
   <path class="fil1" d="M4863 9236l20 2c-14,27 -7,31 13,46 -21,93 -8,42 14,94l-44 -22c-31,7 -18,0 -24,17l-78 1126c100,26 12,116 12,116l297 1067 -10 0c-9,-32 -20,-64 -24,-80l-269 -974c-24,-45 -34,0 -67,-56 -8,-66 20,-50 51,-86l74 -1122c-27,-19 -57,-33 -43,-80 8,-25 21,-27 37,-32 46,-15 37,17 41,-16z"/>
   <path class="fil1" d="M6312 8120c-29,-57 -244,-133 -273,-197 45,7 111,59 154,84l102 65c13,8 23,17 38,27l283 175 54 -335c12,52 -35,278 -45,350 28,7 26,7 51,23l32 26c2,3 3,5 5,7l12 17c-70,-15 -56,-45 -105,-51 -12,129 -101,561 -90,639l-66 -1 45 -18c2,-1 5,-2 7,-3l96 -630c-57,-22 -243,-165 -300,-178z"/>
   <path class="fil1" d="M5225 8741c16,-39 5,-81 0,-131 -2,-12 -6,-63 -7,-71 -11,-41 3,-19 -46,-35 -13,-70 -39,-109 84,-91 13,45 1,56 39,77 22,12 64,24 71,37l278 130c17,21 77,44 103,57 37,19 81,34 103,61 -78,-24 -161,-100 -238,-104 -6,-13 0,-6 -16,-19l-344 -165c-23,49 -32,-3 -22,84 4,40 3,86 20,110 27,40 -3,-26 6,5 2,8 -1,-7 -6,21 -8,42 36,403 43,453 1,25 2,16 -2,36 -1,3 -5,3 -5,8 -1,5 -5,4 -7,7 15,-99 -36,-362 -42,-481 -16,11 -14,-13 -12,11z"/>
   <path class="fil1" d="M5343 9610l21 -5 99 -376 -158 18 38 363zm-18 3l-42 -351c-1,-93 -2,-32 25,-56l0 34 152 -18c26,-39 45,-139 60,-193 3,48 -30,145 -44,187 39,1 72,-5 111,-11 36,-5 63,-8 105,-12 73,-9 157,-18 221,-28l8 -62c6,-11 3,1 7,-19 1,-3 2,-30 2,-32 6,10 2,-3 11,25 12,38 12,159 10,194 -11,14 -4,-3 -9,20 0,1 -2,35 -2,36l-17 -75c-2,-24 0,-51 -1,-75 -46,-5 -414,39 -448,57 -19,42 -99,344 -103,393 -55,-17 -13,0 -28,-17l-18 3z"/>
   <path class="fil1" d="M6808 7139l-33 -9c-47,-57 -18,-124 52,-100l31 20c2,73 -28,53 -12,96l-10 -17 -28 10z"/>
   <path class="fil1" d="M7424 10828c-17,41 -15,11 -52,52 7,20 5,14 15,34 -27,-27 -2,-16 -39,-21l-128 112c-39,31 -59,53 -93,66 8,-22 -8,-5 21,-27l204 -169c-1,-2 -3,-3 -3,-7 -2,-15 -9,-5 -14,-38 20,37 12,24 38,38 13,-26 25,-31 51,-40z"/>
   <path class="fil1" d="M6808 7139l28 -10 10 17c18,39 27,30 32,74 -31,-4 -31,-4 -61,15 -45,28 -23,24 -23,24l14 -120z"/>
   <path class="fil1" d="M7062 9665c-17,-29 -68,-74 -98,-101 -8,-7 -14,-10 -19,-17 -21,-26 -5,-1 -17,-31 61,43 86,95 147,126 24,60 132,106 159,173 -56,-38 -134,-137 -172,-150z"/>
   <path class="fil1" d="M7832 10496c7,-19 -1,-7 15,-22l11 -8c12,-12 6,-4 15,-17 -26,-39 -150,-146 -200,-193l214 183 27 -18 0 17c-3,3 -8,6 -14,12 7,6 11,10 14,12l0 20c-10,-7 -13,-11 -27,-19l-55 33z"/>
   <path class="fil1" d="M7424 10828c8,-22 -11,0 31,-33 18,-14 20,-20 40,-34 38,-26 45,-40 91,-66 -14,27 4,5 -14,22l-148 111z"/>
   <path class="fil1" d="M6878 7220c-5,-44 -14,-35 -32,-74l41 57c45,-16 10,-19 63,-18 -7,6 -9,10 -19,16 -27,15 -2,3 -30,12l16 39c-2,-1 -5,-1 -6,-5l-33 -27z"/>
   <path class="fil1" d="M7665 8242c27,8 -4,-17 29,17 6,7 13,18 19,27 17,22 31,33 44,58 -24,-7 -5,8 -28,-17 -6,-6 -14,-19 -20,-27 -17,-22 -30,-33 -44,-58z"/>
   <path class="fil1" d="M7757 8344c28,8 -4,-18 29,17l69 90c-30,-14 -14,3 -53,-49 -17,-22 -31,-33 -45,-58z"/>
   <path class="fil1" d="M7572 8140c28,9 -4,-18 29,17 6,7 13,18 20,27 17,21 30,32 44,58 -23,-7 -7,6 -29,-18 -5,-6 -13,-18 -20,-26 -17,-22 -30,-33 -44,-58z"/>
   <path class="fil1" d="M7390 7940c32,15 3,-7 30,19l65 84c-38,-17 -68,-62 -95,-103z"/>
   <path class="fil1" d="M7914 8530c-24,-22 -46,-57 -60,-79 30,14 3,-7 29,18l31 41 0 20z"/>
   <path class="fil1" d="M7572 8140c-26,-8 -16,-2 -44,-39 -17,-23 -27,-30 -45,-58 31,14 3,-7 30,18l59 79z"/>
   <path class="fil1" d="M7730 10579c-12,24 -81,73 -107,88 1,-3 3,-4 4,-9 2,-4 4,-5 6,-7 10,-11 2,-3 17,-15 25,-20 47,-44 80,-57z"/>
   <path class="fil1" d="M7832 10496c-10,23 -78,72 -102,83 10,-25 77,-73 102,-83z"/>
   <path class="fil1" d="M5543 11256c19,8 0,-14 25,19 8,10 17,26 28,42 -13,-7 -23,5 -53,-61z"/>
   <path class="fil1" d="M6718 11404c11,-26 14,-26 62,-51 -14,24 7,6 -26,31 -9,7 -23,14 -36,20z"/>
   <path class="fil1" d="M6877 11275c-10,24 -9,20 -61,50 8,-15 2,-25 61,-50z"/>
   <path class="fil1" d="M5496 11200c25,10 -3,-18 26,20 7,9 15,24 21,36 -20,-8 -8,5 -27,-20 -7,-9 -14,-24 -20,-36z"/>
   <path class="fil1" d="M5450 11144c19,8 7,-5 26,20 7,9 15,24 20,36 -23,-10 3,17 -26,-20 -6,-8 -15,-25 -20,-36z"/>
   <path class="fil1" d="M5728 11478c-16,-6 -7,21 -52,-62l32 28c5,7 14,23 20,34z"/>
   <path class="fil1" d="M5728 11478c17,8 1,-10 26,21 8,11 13,21 20,35 -24,-9 2,18 -26,-20 -7,-8 -15,-24 -20,-36z"/>
   <path class="fil1" d="M5404 11089c19,7 7,-5 26,20 7,9 14,23 20,35 -20,-8 0,15 -26,-20 -9,-12 -13,-21 -20,-35z"/>
  </g>
  <path class="fil2" d="M2989 6010l56 0c2,-25 11,-58 16,-85 15,-75 120,-554 120,-589 6,7 6,7 11,18 3,7 6,16 9,22 6,15 10,26 17,43 70,177 157,398 231,569 6,16 11,32 18,47 19,-14 236,-574 269,-652 8,-19 13,-26 18,-47 1,1 1,1 2,3l35 161c13,58 24,113 35,171l69 339 55 0c-51,-217 -108,-507 -154,-737 -7,-35 -19,-77 -22,-108 -6,7 -7,7 -12,18l-295 721c-7,-31 -231,-575 -261,-649 -7,-19 -27,-80 -41,-90 -3,40 -174,840 -176,845z"/>
  <path class="fil3" d="M6137 5235c0,58 6,105 10,156 49,4 89,15 146,15 47,0 200,14 226,-26 44,-65 61,-155 61,-240 -26,0 -31,3 -51,4l-115 6c-55,-1 -159,-15 -213,-28 -78,-20 -51,-21 -60,46 -3,21 -4,39 -4,67z"/>
  <path class="fil4" d="M6152 5049c92,44 253,40 358,40 30,0 36,-5 65,-5 -3,-38 -24,-92 -39,-122 -9,-20 -16,-36 -27,-53 -46,-69 -156,-170 -226,-187 -63,95 -92,168 -120,278 -3,16 -5,38 -11,49z"/>
  <path class="fil5" d="M5670 5471l75 61c97,68 200,100 332,100 28,0 30,-5 55,-5 0,-23 -26,-125 -32,-159 -9,-57 2,-27 -120,-70 -77,-27 -127,-54 -193,-95 -22,-13 -33,-25 -57,-38 -4,20 -10,30 -17,49 -7,19 -9,29 -15,50 -11,38 -19,68 -28,107z"/>
  <path class="fil5" d="M5755 5210c62,41 63,54 149,97 30,15 55,28 87,39 22,8 71,28 96,30 0,-81 -12,-124 -1,-227 3,-22 6,-47 6,-65 -59,-13 -140,-74 -186,-105 -8,11 -49,56 -83,107 -44,66 -42,75 -68,124z"/>
  <path class="fil2" d="M4561 5803c-27,-129 64,-239 168,-257 280,-48 358,368 83,425 -132,27 -230,-65 -251,-168zm-53 -60c0,75 6,113 54,178 20,26 23,27 48,47 194,160 512,-45 404,-314 -18,-44 -51,-81 -88,-108 -165,-122 -418,-4 -418,197z"/>
  <path class="fil2" d="M4292 5321l0 186 -55 0c0,59 -9,50 55,50l0 453 55 0 0 -453c145,0 126,14 126,-50l-126 0 0 -257c0,-30 12,-67 27,-83 26,-29 69,-17 99,-17l0 -46c-28,-2 -14,-5 -60,-5 -45,0 -89,36 -103,69 -15,36 -18,103 -18,153z"/>
  <path class="fil3" d="M5715 5165c6,-23 54,-97 69,-117l82 -105c-19,-28 -47,-44 -68,-72 -23,-29 -43,-54 -63,-83 -47,12 -131,128 -153,183 -8,19 -10,13 -4,29l53 78c14,17 27,31 39,47 11,15 24,34 45,40z"/>
  <path class="fil2" d="M5137 5622c0,162 246,109 246,242 0,98 -121,144 -192,82 -27,-24 -29,-41 -44,-72 -16,1 -39,9 -51,15 10,41 32,73 61,95 19,14 24,17 48,27 190,75 340,-192 124,-285 -85,-36 -137,-37 -137,-114 0,-64 98,-83 140,-49 14,12 19,25 31,34 19,-4 21,-10 40,-15 -7,-82 -194,-136 -253,-12 -6,11 -13,38 -13,52z"/>
  <path class="fil6" d="M5785 4747c3,35 97,135 121,151l64 -56c11,-10 22,-18 34,-27l174 -128c-68,-6 -53,-10 -141,-10 -68,0 -140,20 -196,45l-56 25z"/>
  <path class="fil6" d="M6188 5617c91,-21 220,-84 271,-161 -43,1 -51,8 -126,6l-181 -16 26 126c4,18 9,24 10,45z"/>
  <path class="fil5" d="M5946 4938c40,27 107,79 156,91 19,-80 35,-145 72,-220 9,-16 30,-53 34,-67 -32,9 -168,115 -201,141 -12,9 -54,45 -61,55z"/>
  <polygon class="fil2" points="4061,6010 4111,6010 4111,5507 4061,5507 "/>
  <path class="fil4" d="M5544 5130c0,82 0,96 26,175 9,27 34,86 54,101 19,-80 52,-150 61,-186 -28,-19 -117,-122 -126,-156l-10 0c0,29 -5,35 -5,66z"/>
  <path class="fil2" d="M4040 5331c0,85 91,60 91,10 0,-62 -91,-56 -91,-10z"/>
 </g>
</svg>
